<svg width="65" height="64" viewBox="0 0 65 64" fill="none" xmlns="http://www.w3.org/2000/svg">
<circle cx="32.5" cy="32" r="31.5" stroke="#E0DEF7"/>
<circle cx="32.5" cy="32" r="28" fill="#E0DEF7"/>
<g clip-path="url(#clip0_29354_16875)">
<path d="M44.1167 26.5094L35.2284 19.6024C34.4483 18.9962 33.4883 18.667 32.5 18.667C31.5118 18.667 30.5517 18.9962 29.7717 19.6024L20.8817 26.5094C20.3474 26.9245 19.9152 27.456 19.6179 28.0635C19.3207 28.671 19.1664 29.3383 19.1667 30.0145V42.0034C19.1667 42.8866 19.5179 43.7337 20.143 44.3582C20.7681 44.9828 21.616 45.3337 22.5 45.3337H42.5C43.3841 45.3337 44.2319 44.9828 44.857 44.3582C45.4822 43.7337 45.8334 42.8866 45.8334 42.0034V30.0145C45.8334 28.6441 45.2 27.3503 44.1167 26.5094Z" fill="white" stroke="white" stroke-width="2" stroke-linecap="round" stroke-linejoin="round"/>
</g>
<path d="M27.5 37L37.5 27" stroke="#7065F0" stroke-width="2" stroke-linecap="round" stroke-linejoin="round"/>
<path d="M28.3333 28.6667C28.7936 28.6667 29.1667 28.2936 29.1667 27.8333C29.1667 27.3731 28.7936 27 28.3333 27C27.8731 27 27.5 27.3731 27.5 27.8333C27.5 28.2936 27.8731 28.6667 28.3333 28.6667Z" fill="#7065F0" stroke="#7065F0" stroke-width="2" stroke-linecap="round" stroke-linejoin="round"/>
<path d="M36.6663 36.9997C37.1266 36.9997 37.4997 36.6266 37.4997 36.1663C37.4997 35.7061 37.1266 35.333 36.6663 35.333C36.2061 35.333 35.833 35.7061 35.833 36.1663C35.833 36.6266 36.2061 36.9997 36.6663 36.9997Z" fill="#7065F0" stroke="#7065F0" stroke-width="2" stroke-linecap="round" stroke-linejoin="round"/>
<rect x="40.5" y="40" width="24" height="24" rx="12" fill="#7065F0"/>
<path d="M46.1 52.7999C46.1 52.5877 46.1843 52.3842 46.3343 52.2342C46.4843 52.0842 46.6878 51.9999 46.9 51.9999H48.5C48.7121 51.9999 48.9156 52.0842 49.0657 52.2342C49.2157 52.3842 49.3 52.5877 49.3 52.7999V56.7999C49.3 57.0121 49.2157 57.2156 49.0657 57.3656C48.9156 57.5156 48.7121 57.5999 48.5 57.5999H46.9C46.6878 57.5999 46.4843 57.5156 46.3343 57.3656C46.1843 57.2156 46.1 57.0121 46.1 56.7999V52.7999ZM50.9 49.5999C50.9 49.3877 50.9843 49.1842 51.1343 49.0342C51.2843 48.8842 51.4878 48.7999 51.7 48.7999H53.3C53.5121 48.7999 53.7156 48.8842 53.8657 49.0342C54.0157 49.1842 54.1 49.3877 54.1 49.5999V56.7999C54.1 57.0121 54.0157 57.2156 53.8657 57.3656C53.7156 57.5156 53.5121 57.5999 53.3 57.5999H51.7C51.4878 57.5999 51.2843 57.5156 51.1343 57.3656C50.9843 57.2156 50.9 57.0121 50.9 56.7999V49.5999ZM55.7 47.1999C55.7 46.9877 55.7843 46.7842 55.9343 46.6342C56.0843 46.4842 56.2878 46.3999 56.5 46.3999H58.1C58.3121 46.3999 58.5156 46.4842 58.6657 46.6342C58.8157 46.7842 58.9 46.9877 58.9 47.1999V56.7999C58.9 57.0121 58.8157 57.2156 58.6657 57.3656C58.5156 57.5156 58.3121 57.5999 58.1 57.5999H56.5C56.2878 57.5999 56.0843 57.5156 55.9343 57.3656C55.7843 57.2156 55.7 57.0121 55.7 56.7999V47.1999Z" fill="white"/>
<defs>
<clipPath id="clip0_29354_16875">
<rect width="32" height="32" fill="white" transform="translate(16.5 16)"/>
</clipPath>
</defs>
</svg>
