<svg width="600" height="480" viewBox="0 0 600 480" fill="none" xmlns="http://www.w3.org/2000/svg">
<path d="M374.306 480L600 349.668L225.695 133.522L0 263.852L374.306 480Z" fill="#2516DF"/>
<path d="M591.557 349.669L225.699 138.4L8.44727 263.851L374.308 475.124L591.557 349.669Z" fill="#A9A2F6"/>
<path d="M304.116 432.726L371.637 393.735L441.819 434.262L374.296 473.253L304.116 432.726V432.726ZM226.466 309.905L288.738 345.865L221.218 384.855L158.944 348.894L226.466 309.905ZM435.194 261.292L369.653 299.138L307.381 263.178L372.922 225.331L435.194 261.292V261.292ZM452.552 347.01L518.091 309.162L588.272 349.689L522.73 387.536L452.552 347.01V347.01ZM447.596 349.872L517.777 390.397L446.772 431.4L376.593 390.874L447.596 349.872V349.872ZM374.608 302L440.147 264.152L513.135 306.301L447.596 344.148L374.608 302V302ZM293.694 343.003L231.42 307.043L302.426 266.04L364.698 302L293.694 343.003V343.003ZM366.683 390.874L299.16 429.865L226.172 387.718L293.694 348.725L366.683 390.874V390.874ZM298.649 345.865L369.653 304.862L442.641 347.01L371.637 388.012L298.649 345.865ZM440.178 258.444L440.163 258.42L440.149 258.429L372.922 219.606L149.033 348.894L374.296 478.977L598.184 349.689L440.178 258.444" fill="#F0EFFB"/>
<path d="M62.6006 191.598V196.075C62.7413 197.314 63.6712 198.609 65.4442 199.622C67.8657 201.03 71.1592 201.565 73.9463 201.143C75.1274 200.974 76.2257 200.636 77.1266 200.101L127.628 170.931C128.952 170.2 129.571 169.187 129.628 168.143L129.655 163.78L126.446 164.034C123.012 162.204 118.03 162.034 115.129 163.723L72.3403 188.417L65.2759 192.499L65.1352 191.598H62.6006" fill="#C7784C"/>
<path d="M62.6006 191.598V196.075C62.7413 197.314 63.6712 198.609 65.4442 199.622C67.8657 201.03 71.1592 201.565 73.9463 201.143V188.417H72.3403L65.2759 192.499L65.1352 191.598H62.6006" fill="#DFCFB5"/>
<path d="M77.1262 195.888L127.64 166.718C130.633 164.989 130.257 161.97 126.801 159.975V159.973C123.344 157.978 118.116 157.762 115.122 159.49L64.6086 188.66C61.615 190.389 61.9911 193.408 65.4477 195.404C68.9043 197.399 74.1326 197.616 77.1262 195.888" fill="white"/>
<path d="M304.606 184.875L304.59 184.847L304.573 184.855L226.429 139.729L10.4731 264.101L281.905 420.783L497.86 296.412L304.606 184.875Z" fill="#E8E6F9"/>
<path d="M497.861 256.304L438.893 222.252V183.201L445.148 185.467L438.89 181.876V177.976L397.054 157.482L396.886 157.777L314.132 110.299L310.346 108.928V106.207L264.38 34.3017L247.36 44.1368L209.623 54.21L58.2622 141.674L62.3566 140.581L62.2369 140.651V167.755L10.4736 197.646V124.38L226.44 6.66157e-05L497.861 156.674V256.304Z" fill="url(#paint0_linear_30003_5694)"/>
<path d="M497.861 290.179L438.894 256.127V221.746L497.861 255.797V290.179ZM10.4741 257.297V197.139L62.2374 167.249V204.268V227.944L10.4741 257.297Z" fill="url(#paint1_linear_30003_5694)"/>
<path d="M497.86 296.395L438.893 262.357V257.703L440.149 258.429L440.164 258.42L440.178 258.443L497.86 291.755V296.395" fill="url(#paint2_linear_30003_5694)"/>
<path d="M156.523 195.099L62.2368 140.652L213.596 53.1879L307.883 107.636L156.523 195.099Z" fill="#A8A2F6"/>
<path d="M156.523 307.996V195.099L307.882 107.636V220.533L156.523 307.996Z" fill="#7065F0"/>
<path d="M198.468 278.545L165.432 297.623V222.6L198.468 203.523V278.545Z" fill="#F7F7FD"/>
<path d="M62.2368 253.549V140.653L156.523 195.099V307.996L62.2368 253.549Z" fill="#A8A2F6"/>
<path d="M75.0117 167.528V240.115L87.6346 247.389V174.8L75.0117 167.528Z" fill="#F7F7FD"/>
<path d="M92.6699 177.718V250.305L105.291 257.579V184.991L92.6699 177.718" fill="#F7F7FD"/>
<path d="M110.327 187.908V260.496L122.95 267.769V195.182L110.327 187.908Z" fill="#F7F7FD"/>
<path d="M127.985 198.098V270.684L140.607 277.958V205.371L127.985 198.098Z" fill="#F7F7FD"/>
<path d="M337.084 241.561L206.068 166.394L307.877 107.629L438.893 182.797L337.084 241.561Z" fill="#7065F0"/>
<path d="M337.084 354.55V241.562L438.893 182.799V295.785L337.084 354.55Z" fill="#7065F0"/>
<path d="M206.068 279.382V166.396L337.084 241.562V354.55L206.068 279.382Z" fill="#A8A2F6"/>
<path d="M328.052 341.389L215.099 276.164V201.487L328.052 266.713V341.389" fill="#F7F7FD"/>
<path d="M181.789 194.613L176.633 188.765L200.099 175.204L206.068 178.629V181.161L181.789 194.613" fill="#5245ED"/>
<path d="M206.068 181.161V178.629L206.079 178.636L206.08 181.155L206.068 181.161" fill="#013BA1"/>
<path d="M58.2612 141.675L113.018 127.058L264.379 39.5937L209.622 54.2108L58.2612 141.675Z" fill="#5598E9"/>
<path d="M158.986 198.962L113.018 127.057L264.378 39.5925L310.345 111.498L158.986 198.962Z" fill="#3F461D"/>
<path d="M310.347 106.207V111.498L158.987 198.962V193.67L310.347 106.207Z" fill="#7065F0"/>
<path d="M126.531 166.093L109.328 141.704L76.6445 148.973L62.2368 140.653L64.9042 139.903L113.019 127.06L136.171 163.274L126.531 166.093Z" fill="#5245ED"/>
<path d="M62.2408 152.174L62.2368 140.651L76.6445 148.971L62.2408 152.174" fill="#5245ED"/>
<path d="M64.9038 139.903L112.808 126.443L113.018 126.774V127.059L64.9038 139.903" fill="#073CAE"/>
<path d="M58.2612 136.383L113.018 121.768L264.379 34.3031L209.622 48.9189L58.2612 136.383" fill="#CBC7FA"/>
<path d="M158.986 193.671L113.018 121.767L264.378 34.3023L310.345 106.208L158.986 193.671" fill="#A8A2F6"/>
<path d="M189.79 154.387L163.847 145.114L163.85 128.076L185.426 136.043L195.198 147.085L189.79 154.387" fill="#5245ED"/>
<path d="M163.848 126.757L154.468 121.341L163.79 115.958L173.169 121.375L163.848 126.757" fill="#A8A2F6"/>
<path d="M163.85 126.707L153.774 120.887L163.786 115.105L173.863 120.924L163.85 126.707" fill="#CBC7FA"/>
<path d="M163.851 128.456L173.864 122.673V120.923L163.851 126.706V128.456Z" fill="#2516DF"/>
<path d="M153.774 122.637L163.85 128.456V126.706L153.774 120.886V122.637Z" fill="#A8A2F6"/>
<path d="M170.429 121.363L163.836 125.18L163.815 125.157L157.22 121.342L163.792 117.548L163.815 117.571L170.429 121.363" fill="#2516DF"/>
<path d="M170.429 121.363L163.835 125.18L163.814 125.157V117.571L170.429 121.363" fill="#A8A2F6"/>
<path d="M163.847 145.113L173.169 139.731V121.375L163.847 126.757V145.113Z" fill="#2516DF"/>
<path d="M154.47 130.539L163.848 145.113V126.757L154.47 121.341V130.539Z" fill="#A8A2F6"/>
<path d="M163.852 117.075L162.528 116.309L163.843 115.55L165.168 116.314L163.852 117.075Z" fill="#A8A2F6"/>
<path d="M163.853 126.261L165.168 125.502V116.314L163.853 117.075V126.261Z" fill="#2516DF"/>
<path d="M162.528 125.497L163.852 126.261V117.075L162.528 116.309V125.497Z" fill="#A8A2F6"/>
<path d="M163.853 117.075L162.96 116.559L163.838 116.055L164.739 116.563L163.853 117.075Z" fill="#096EA8"/>
<path d="M163.862 119.894L163.853 119.888V117.076L164.738 116.565L165.164 116.804V119.145L163.862 119.894" fill="#093B7D"/>
<path d="M163.852 119.888L162.533 119.12V116.803L162.959 116.56L163.852 117.076V119.888Z" fill="#096EA8"/>
<path d="M171.858 112.447L170.533 111.683L171.848 110.922L173.174 111.687L171.858 112.447Z" fill="#A8A2F6"/>
<path d="M171.857 121.633L173.174 120.874V111.686L171.857 112.447V121.633Z" fill="#2516DF"/>
<path d="M170.533 120.869L171.858 121.633V112.447L170.533 111.682V120.869Z" fill="#A8A2F6"/>
<path d="M171.858 112.447L170.958 111.929L171.535 111.591L172.429 112.117L171.858 112.447" fill="#096EA8"/>
<path d="M171.857 115.272V112.448L172.428 112.118L173.174 112.556V114.512L171.857 115.272Z" fill="#093B7D"/>
<path d="M171.852 115.273L170.545 114.666V112.171L170.958 111.929L171.858 112.447V115.271L171.852 115.273Z" fill="#096EA8"/>
<path d="M155.794 112.423L154.468 111.659L155.785 110.899L157.109 111.664L155.794 112.423Z" fill="#A8A2F6"/>
<path d="M155.794 121.611L157.109 120.851V111.664L155.794 112.424V121.611Z" fill="#2516DF"/>
<path d="M154.468 120.846L155.794 121.611V112.423L154.468 111.659V120.846Z" fill="#A8A2F6"/>
<path d="M155.794 112.423L155.205 112.084L156.092 111.566L156.676 111.914L155.794 112.423Z" fill="#096EA8"/>
<path d="M155.794 115.246V112.424L156.676 111.915L157.105 112.172V114.513L155.794 115.246" fill="#093B7D"/>
<path d="M155.79 115.247L154.476 114.486V112.508L155.205 112.085L155.794 112.424V115.245L155.79 115.247Z" fill="#096EA8"/>
<path d="M163.854 117.061L152.771 110.66L163.784 104.301L174.867 110.7L163.854 117.061" fill="white"/>
<path d="M163.855 118.987L174.868 112.626V110.701L163.855 117.062V118.987Z" fill="#A8A2F6"/>
<path d="M152.771 112.587L163.854 118.987V117.062L152.771 110.662V112.587Z" fill="#CBC7FA"/>
<path d="M331.042 250.331L200.026 175.163L241.009 137.011L372.025 212.18L331.042 250.331Z" fill="#5598E9"/>
<path d="M314.13 110.299L266.035 92.8827L397.052 168.051L445.146 185.467L314.13 110.299" fill="#DDB79B"/>
<path d="M397.053 168.051L372.025 212.18L241.009 137.012L266.036 92.8828L397.053 168.051" fill="#433E44"/>
<path d="M337.088 256.302L337.084 244.707V256.193L337.088 256.189V256.302Z" fill="#02288E"/>
<path d="M337.088 256.302L206.08 181.155V178.637L331.042 250.331L337.084 244.707V256.3" fill="#5245ED"/>
<path d="M206.08 169.527V166.458L206.291 166.337L208.282 167.479L206.08 169.527Z" fill="#02288E"/>
<path d="M206.08 166.458V166.216L206.291 166.337L206.08 166.458Z" fill="#0852BE"/>
<path d="M331.042 250.331L206.08 178.637V169.527L208.282 167.478L337.088 241.362L337.084 244.707L331.042 250.331" fill="#073CAE"/>
<path d="M345.977 236.431L372.026 212.18L397.055 168.051L394.824 166.771L397.055 168.051L438.464 183.047L426.149 190.155L397.055 179.632L374.021 220.242L345.977 236.431" fill="#5245ED"/>
<path d="M337.088 256.189V244.703L345.976 236.431L374.02 220.242L372.025 223.761L337.088 256.189ZM438.889 194.764L426.148 190.155L438.463 183.047L438.889 183.201V194.764" fill="#5245ED"/>
<path d="M337.088 244.703V241.363L337.084 234.045L364.99 208.143L372.025 212.18L345.976 236.431L337.088 244.703" fill="#033093"/>
<path d="M438.889 181.877L396.885 157.778L397.053 157.483L438.889 177.977V181.877" fill="url(#paint3_linear_30003_5694)"/>
<path d="M438.889 183.203L438.463 183.049L397.054 168.053L394.823 166.773L397.054 162.841L394.761 161.525L396.885 157.78L438.889 181.879V183.203" fill="#073962"/>
<path d="M372.026 212.18L364.99 208.142L368.46 204.92L372.026 206.966L394.824 166.771L397.054 168.051L372.026 212.18" fill="#02132B"/>
<path d="M337.084 256.194V244.708L337.088 244.704V256.19L337.084 256.194Z" fill="#000D5A"/>
<path d="M337.084 244.709V241.363L337.088 241.365V244.705L337.084 244.709Z" fill="#00136E"/>
<path d="M331.042 245.12L200.026 169.95L241.009 131.801L372.025 206.969L331.042 245.12" fill="#A8A2F6"/>
<path d="M314.13 105.085L266.035 87.6697L397.052 162.838L445.146 180.253L314.13 105.085" fill="#A8A2F6"/>
<path d="M397.053 162.839L372.025 206.966L241.009 131.8L266.036 87.6708L397.053 162.839" fill="#CBC7FA"/>
<path d="M113.018 121.767V127.058L58.2612 141.675V136.383L113.018 121.767Z" fill="#A8A2F6"/>
<path d="M113.018 121.766V127.057L158.986 198.962V193.67L113.018 121.766" fill="#A8A2F6"/>
<path d="M445.147 185.467V180.254L397.054 162.838L372.025 206.967L331.042 245.118V250.331L372.025 212.18L397.054 168.051L445.147 185.467" fill="#2516DF"/>
<path d="M331.042 250.331V245.118L200.026 169.949V175.162L331.042 250.331" fill="#A8A2F6"/>
<path d="M277.651 146.578V119.614L270.255 115.34L268.716 100.867H277.651L305.137 116.174L304.67 120.136L297.616 131.612L277.651 146.578" fill="#5245ED"/>
<path d="M286.666 115.495V130.786L277.651 146.578V119.614L286.666 115.495Z" fill="#2516DF"/>
<path d="M277.651 146.578L259.78 136.249V109.287L277.651 119.614V146.578Z" fill="#A8A2F6"/>
<path d="M275.149 119.005L255.057 107.392L269.049 99.565L289.143 111.177L275.149 119.005Z" fill="#CBC7FA"/>
<path d="M275.149 118.112L255.057 106.498L269.049 98.6706L289.143 110.283L275.149 118.112Z" fill="white"/>
<path d="M276.494 121.168L286.667 115.494L289.143 111.178L275.149 119.006L276.494 121.168Z" fill="#2516DF"/>
<path d="M255.057 107.393L256.401 109.555L276.494 121.168L275.149 119.006L255.057 107.393Z" fill="#A8A2F6"/>
<path d="M275.149 119.005V118.11L289.143 110.281V111.177L275.149 119.005" fill="#A8A2F6"/>
<path d="M275.149 119.005V118.11L255.057 106.497V107.393L275.149 119.005" fill="#CBC7FA"/>
<path d="M261.369 135.8V114.406L276.066 122.888V144.281L261.369 135.8Z" fill="#A8A2F6"/>
<path d="M263.091 117.398V134.808L274.343 141.292V123.882L263.091 117.398Z" fill="white"/>
<path d="M265.03 118.517V133.983L274.343 139.346V141.292L263.091 134.809V117.398L265.03 118.517" fill="#2516DF"/>
<path d="M265.03 133.983L263.091 134.809L274.343 141.292V139.346L265.03 133.983" fill="#CBC7FA"/>
<path d="M266.463 134.809H263.091L265.03 133.982V118.517L266.501 119.363L266.463 134.809" fill="#0C59BE"/>
<path d="M315.399 168.195L308.991 146.257L306.464 122.485H315.399L342.885 137.791L342.418 141.754L335.363 153.229L315.399 168.195" fill="#5245ED"/>
<path d="M324.414 137.111V152.403L315.4 168.195V141.233L324.414 137.111Z" fill="#2516DF"/>
<path d="M315.4 168.195L297.528 157.866V130.904L315.4 141.233V168.195Z" fill="#A8A2F6"/>
<path d="M312.898 140.625L292.804 129.013L306.798 121.185L326.89 132.799L312.898 140.625Z" fill="#CBC7FA"/>
<path d="M312.898 139.728L292.804 128.115L306.798 120.288L326.89 131.9L312.898 139.728Z" fill="white"/>
<path d="M314.24 142.787L324.414 137.112L326.889 132.798L312.897 140.624L314.24 142.787Z" fill="#2516DF"/>
<path d="M292.804 129.012L294.147 131.173L314.241 142.787L312.898 140.624L292.804 129.012Z" fill="#A8A2F6"/>
<path d="M312.897 140.625V139.729L326.889 131.902V132.799L312.897 140.625Z" fill="#A8A2F6"/>
<path d="M312.898 140.625V139.729L292.804 128.117V129.013L312.898 140.625Z" fill="#CBC7FA"/>
<path d="M299.115 157.42V136.026L313.813 144.507V165.901L299.115 157.42Z" fill="#A8A2F6"/>
<path d="M300.838 139.016V156.426L312.09 162.91V145.5L300.838 139.016Z" fill="white"/>
<path d="M302.777 140.135V155.602L312.09 160.964V162.91L300.838 156.427V139.016L302.777 140.135" fill="#2516DF"/>
<path d="M302.777 155.602L300.838 156.427L312.09 162.91V160.964L302.777 155.602" fill="#CBC7FA"/>
<path d="M300.838 156.427H304.211L304.25 140.981L302.777 140.135V155.602L300.838 156.427" fill="#2516DF"/>
<path d="M353.148 189.814L346.739 167.876L344.211 144.104H353.148L380.632 159.41L380.165 163.373L373.108 174.848L353.148 189.814" fill="#5245ED"/>
<path d="M362.162 158.731V174.023L353.148 189.814V162.852L362.162 158.731Z" fill="#2516DF"/>
<path d="M353.149 189.814L335.277 179.486V152.523L353.149 162.852V189.814Z" fill="#A8A2F6"/>
<path d="M350.644 162.243L330.551 150.63L344.545 142.803L364.637 154.416L350.644 162.243Z" fill="#CBC7FA"/>
<path d="M350.644 161.348L330.551 149.735L344.545 141.908L364.637 153.521L350.644 161.348Z" fill="white"/>
<path d="M351.987 164.406L362.161 158.732L364.636 154.417L350.643 162.244L351.987 164.406" fill="#2516DF"/>
<path d="M330.551 150.631L331.895 152.793L351.988 164.406L350.644 162.243L330.551 150.631" fill="#A8A2F6"/>
<path d="M350.643 162.243V161.347L364.636 153.521V154.416L350.643 162.243Z" fill="#A8A2F6"/>
<path d="M350.644 162.243V161.347L330.551 149.734V150.63L350.644 162.243" fill="#CBC7FA"/>
<path d="M336.862 179.038V157.643L351.56 166.125V187.518L336.862 179.038" fill="#A8A2F6"/>
<path d="M338.585 160.636V178.044L349.837 184.529V167.119L338.585 160.636" fill="white"/>
<path d="M340.524 161.754V177.221L349.836 182.583V184.529L338.585 178.046V160.634L340.524 161.754" fill="#2516DF"/>
<path d="M340.524 177.221L338.585 178.046L349.836 184.529V182.583L340.524 177.221Z" fill="#CBC7FA"/>
<path d="M338.585 178.045H341.959L341.996 162.599L340.524 161.753V177.22L338.585 178.045" fill="#2516DF"/>
<path d="M579.717 300.901L474.277 240.014V234.59L579.717 295.477V300.901Z" fill="#2516DF"/>
<path d="M579.717 300.901L582.1 299.527V294.103L579.717 295.477V300.901Z" fill="#004899"/>
<path d="M582.101 294.102L579.717 295.477L474.277 234.589L476.662 233.215L582.101 294.102" fill="#A8A2F6"/>
<path d="M579.717 352.693L474.277 291.807V286.383L579.717 347.269V352.693Z" fill="#2516DF"/>
<path d="M579.717 352.693L582.1 351.319V345.895L579.717 347.269V352.693Z" fill="#004899"/>
<path d="M582.101 345.894L579.717 347.269L474.277 286.382L476.662 285.007L582.101 345.894" fill="#A8A2F6"/>
<path d="M488.25 307.446L479.812 302.573V226.689L484.031 223.991L488.25 231.561V307.446" fill="#A8A2F6"/>
<path d="M488.25 307.446L490.718 306.029V230.145L488.25 231.561V307.446Z" fill="#2516DF"/>
<path d="M488.251 231.561L490.718 230.145L486.5 222.577L484.031 223.991L488.251 231.561" fill="#CBC7FA"/>
<path d="M485.852 246.087C485.852 247.241 485.037 247.706 484.031 247.125C483.024 246.545 482.209 245.138 482.209 243.984C482.209 242.829 483.024 242.364 484.031 242.945C485.037 243.526 485.852 244.933 485.852 246.087" fill="#004899"/>
<path d="M485.852 296.305C485.852 297.46 485.037 297.924 484.031 297.343C483.024 296.761 482.209 295.355 482.209 294.2C482.209 293.047 483.024 292.583 484.031 293.163C485.037 293.743 485.852 295.15 485.852 296.305Z" fill="#004899"/>
<path d="M501.854 315.31L493.418 310.438V234.554L497.636 231.858L501.854 239.426V315.31" fill="#A8A2F6"/>
<path d="M501.854 315.31L504.322 313.894V238.01L501.854 239.426V315.31" fill="#2516DF"/>
<path d="M501.854 239.426L504.321 238.011L500.103 230.441L497.636 231.858L501.854 239.426Z" fill="#CBC7FA"/>
<path d="M499.458 253.95C499.458 255.105 498.643 255.571 497.637 254.989C496.63 254.409 495.815 253.002 495.815 251.847C495.815 250.694 496.63 250.228 497.637 250.809C498.643 251.391 499.458 252.797 499.458 253.95" fill="#004899"/>
<path d="M499.458 304.17C499.458 305.325 498.643 305.79 497.637 305.209C496.63 304.629 495.815 303.223 495.815 302.068C495.815 300.913 496.63 300.448 497.637 301.029C498.643 301.609 499.458 303.017 499.458 304.17Z" fill="#004899"/>
<path d="M515.46 323.175L507.023 318.302V242.419L511.242 239.722L515.46 247.292V323.175" fill="#A8A2F6"/>
<path d="M515.46 323.175L517.929 321.758V245.875L515.46 247.292V323.175Z" fill="#2516DF"/>
<path d="M515.46 247.291L517.929 245.874L513.71 238.306L511.242 239.721L515.46 247.291Z" fill="#CBC7FA"/>
<path d="M513.064 261.817C513.064 262.971 512.248 263.437 511.242 262.856C510.236 262.276 509.419 260.868 509.419 259.713C509.419 258.56 510.236 258.094 511.242 258.676C512.248 259.256 513.064 260.663 513.064 261.817" fill="#004899"/>
<path d="M513.064 312.037C513.064 313.192 512.248 313.656 511.242 313.076C510.236 312.493 509.419 311.087 509.419 309.932C509.419 308.777 510.236 308.313 511.242 308.893C512.248 309.475 513.064 310.882 513.064 312.037Z" fill="#004899"/>
<path d="M529.066 331.042L520.629 326.17V250.285L524.848 247.588L529.066 255.157V331.042" fill="#A8A2F6"/>
<path d="M529.065 331.042L531.534 329.626V253.741L529.065 255.157V331.042Z" fill="#2516DF"/>
<path d="M529.065 255.157L531.534 253.741L527.315 246.173L524.847 247.588L529.065 255.157Z" fill="#CBC7FA"/>
<path d="M526.669 269.683C526.669 270.838 525.852 271.304 524.847 270.722C523.841 270.141 523.025 268.735 523.025 267.581C523.025 266.425 523.841 265.961 524.847 266.542C525.852 267.122 526.669 268.528 526.669 269.683Z" fill="#004899"/>
<path d="M526.669 319.902C526.669 321.057 525.852 321.522 524.847 320.941C523.841 320.361 523.025 318.954 523.025 317.799C523.025 316.645 523.841 316.18 524.847 316.761C525.852 317.341 526.669 318.747 526.669 319.902Z" fill="#004899"/>
<path d="M542.671 338.907L534.233 334.034V258.151L538.453 255.454L542.671 263.022V338.907Z" fill="#A8A2F6"/>
<path d="M542.671 338.907L545.14 337.49V261.608L542.671 263.022V338.907Z" fill="#2516DF"/>
<path d="M542.67 263.022L545.139 261.608L540.92 254.038L538.452 255.454L542.67 263.022" fill="#CBC7FA"/>
<path d="M540.274 277.548C540.274 278.702 539.457 279.167 538.453 278.587C537.446 278.007 536.631 276.598 536.631 275.444C536.631 274.29 537.446 273.825 538.453 274.405C539.457 274.987 540.274 276.394 540.274 277.548Z" fill="#004899"/>
<path d="M540.274 327.769C540.274 328.923 539.457 329.387 538.453 328.807C537.446 328.225 536.631 326.819 536.631 325.665C536.631 324.51 537.446 324.046 538.453 324.627C539.457 325.207 540.274 326.614 540.274 327.769Z" fill="#004899"/>
<path d="M556.274 346.771L547.838 341.901V266.016L552.056 263.319L556.274 270.888V346.771" fill="#A8A2F6"/>
<path d="M556.274 346.771L558.743 345.357V269.472L556.274 270.888V346.771" fill="#2516DF"/>
<path d="M556.275 270.887L558.744 269.472L554.525 261.903L552.057 263.319L556.275 270.887Z" fill="#CBC7FA"/>
<path d="M553.88 285.415C553.88 286.568 553.064 287.034 552.057 286.453C551.052 285.873 550.236 284.467 550.236 283.312C550.236 282.158 551.052 281.691 552.057 282.274C553.064 282.854 553.88 284.26 553.88 285.415Z" fill="#004899"/>
<path d="M553.88 335.632C553.88 336.787 553.064 337.252 552.057 336.67C551.052 336.09 550.236 334.684 550.236 333.529C550.236 332.374 551.052 331.91 552.057 332.491C553.064 333.071 553.88 334.477 553.88 335.632Z" fill="#004899"/>
<path d="M569.882 354.638L561.445 349.765V273.882L565.663 271.185L569.882 278.753V354.638" fill="#A8A2F6"/>
<path d="M569.881 354.638L572.349 353.221V277.338L569.881 278.753V354.638" fill="#2516DF"/>
<path d="M569.881 278.753L572.348 277.338L568.13 269.769L565.663 271.185L569.881 278.753Z" fill="#CBC7FA"/>
<defs>
<linearGradient id="paint0_linear_30003_5694" x1="254.168" y1="96.1314" x2="254.168" y2="227.704" gradientUnits="userSpaceOnUse">
<stop stop-color="#F7F7FD"/>
<stop offset="1" stop-color="#E8E6F9"/>
</linearGradient>
<linearGradient id="paint1_linear_30003_5694" x1="254.168" y1="96.1338" x2="254.168" y2="227.706" gradientUnits="userSpaceOnUse">
<stop stop-color="#FFFCF7"/>
<stop offset="1" stop-color="#E8E6F9"/>
</linearGradient>
<linearGradient id="paint2_linear_30003_5694" x1="254.167" y1="96.132" x2="254.167" y2="227.704" gradientUnits="userSpaceOnUse">
<stop stop-color="#E8E6F9"/>
<stop offset="1" stop-color="#D1CEF3"/>
</linearGradient>
<linearGradient id="paint3_linear_30003_5694" x1="254.167" y1="96.1325" x2="254.167" y2="227.705" gradientUnits="userSpaceOnUse">
<stop stop-color="#0850A1"/>
<stop offset="1" stop-color="#074CA1"/>
</linearGradient>
</defs>
</svg>
