<svg width="40" height="40" viewBox="0 0 40 40" fill="none" xmlns="http://www.w3.org/2000/svg">
<g opacity="0.4">
<path d="M18.7501 26.5837V13.417C18.7501 12.167 18.2167 11.667 16.8917 11.667H13.5251C12.2001 11.667 11.6667 12.167 11.6667 13.417V26.5837C11.6667 27.8337 12.2001 28.3337 13.5251 28.3337H16.8917C18.2167 28.3337 18.7501 27.8337 18.7501 26.5837Z" stroke="#000929" stroke-width="2" stroke-linecap="round" stroke-linejoin="round"/>
<path d="M28.3333 17.1003V13.317C28.3333 12.142 27.8 11.667 26.475 11.667H23.1083C21.7833 11.667 21.25 12.142 21.25 13.317V17.092C21.25 18.2753 21.7833 18.742 23.1083 18.742H26.475C27.8 18.7503 28.3333 18.2753 28.3333 17.1003Z" stroke="#000929" stroke-width="2" stroke-linecap="round" stroke-linejoin="round"/>
<path d="M28.3333 26.475V23.1083C28.3333 21.7833 27.8 21.25 26.475 21.25H23.1083C21.7833 21.25 21.25 21.7833 21.25 23.1083V26.475C21.25 27.8 21.7833 28.3333 23.1083 28.3333H26.475C27.8 28.3333 28.3333 27.8 28.3333 26.475Z" stroke="#000929" stroke-width="2" stroke-linecap="round" stroke-linejoin="round"/>
</g>
</svg>
