<svg width="40" height="40" viewBox="0 0 40 40" fill="none" xmlns="http://www.w3.org/2000/svg">
<rect width="40" height="40" rx="8" fill="#F0EFFB"/>
<path d="M19.1666 26.5837V13.417C19.1666 12.167 18.6333 11.667 17.3083 11.667H13.9416C12.6166 11.667 12.0833 12.167 12.0833 13.417V26.5837C12.0833 27.8337 12.6166 28.3337 13.9416 28.3337H17.3083C18.6333 28.3337 19.1666 27.8337 19.1666 26.5837Z" fill="#7065F0"/>
<path d="M27.9166 26.3663V22.7997C27.9166 21.7163 27.0833 20.833 26.0583 20.833H22.6916C21.6666 20.833 20.8333 21.7163 20.8333 22.7997V26.3663C20.8333 27.4497 21.6666 28.333 22.6916 28.333H26.0583C27.0833 28.333 27.9166 27.4497 27.9166 26.3663Z" fill="#7065F0"/>
<path d="M27.9166 17.2003V13.6337C27.9166 12.5503 27.0833 11.667 26.0583 11.667H22.6916C21.6666 11.667 20.8333 12.5503 20.8333 13.6337V17.2003C20.8333 18.2837 21.6666 19.167 22.6916 19.167H26.0583C27.0833 19.167 27.9166 18.2837 27.9166 17.2003Z" fill="#7065F0"/>
</svg>
