<svg width="40" height="40" viewBox="0 0 40 40" fill="none" xmlns="http://www.w3.org/2000/svg">
<rect width="40" height="40" rx="8" fill="#F0EFFB"/>
<path fill-rule="evenodd" clip-rule="evenodd" d="M12.883 13.7682C13.662 12.9894 14.7185 12.5519 15.82 12.5519C16.9215 12.5519 17.9779 12.9894 18.757 13.7682L19.9741 14.9843L21.1913 13.7682C21.5745 13.3714 22.0329 13.055 22.5397 12.8373C23.0465 12.6195 23.5916 12.5049 24.1432 12.5002C24.6948 12.4954 25.2418 12.6005 25.7523 12.8093C26.2628 13.0182 26.7267 13.3267 27.1167 13.7167C27.5067 14.1068 27.8152 14.5706 28.0241 15.0811C28.2329 15.5916 28.3381 16.1386 28.3333 16.6902C28.3285 17.2418 28.2139 17.7869 27.9962 18.2937C27.7784 18.8006 27.462 19.2589 27.0652 19.6421L19.9741 26.7343L12.883 19.6421C12.1042 18.8631 11.6667 17.8067 11.6667 16.7052C11.6667 15.6036 12.1042 14.5472 12.883 13.7682Z" fill="#7065F0"/>
</svg>
