<svg width="40" height="40" viewBox="0 0 40 40" fill="none" xmlns="http://www.w3.org/2000/svg">
<g opacity="0.4">
<path d="M13.5984 14.4314C13.2501 14.7796 12.9739 15.193 12.7855 15.648C12.597 16.1029 12.5 16.5906 12.5 17.083C12.5 17.5755 12.597 18.0631 12.7855 18.5181C12.9739 18.9731 13.2501 19.3865 13.5984 19.7347L20 26.1364L26.4017 19.7347C27.105 19.0314 27.5001 18.0776 27.5001 17.083C27.5001 16.0885 27.105 15.1346 26.4017 14.4314C25.6984 13.7281 24.7446 13.333 23.75 13.333C22.7555 13.333 21.8016 13.7281 21.0984 14.4314L20 15.5297L18.9017 14.4314C18.5535 14.0831 18.1401 13.8069 17.6851 13.6185C17.2301 13.43 16.7425 13.333 16.25 13.333C15.7576 13.333 15.2699 13.43 14.815 13.6185C14.36 13.8069 13.9466 14.0831 13.5984 14.4314V14.4314Z" stroke="#000929" stroke-width="2" stroke-linecap="round" stroke-linejoin="round"/>
</g>
</svg>
