<svg width="40" height="40" viewBox="0 0 40 40" fill="none" xmlns="http://www.w3.org/2000/svg">
<rect width="40" height="40" rx="8" fill="#F0EFFB"/>
<path d="M25.6758 15.2086H26.8091C26.6508 14.9836 26.4841 14.7752 26.3091 14.5669L25.6758 15.2086Z" fill="#7065F0"/>
<path d="M25.4327 13.6831C25.2243 13.5081 25.016 13.3414 24.791 13.1831V14.3164L25.4327 13.6831Z" fill="#7065F0"/>
<path d="M26.3169 14.5669L28.7753 12.1085C29.0169 11.8669 29.0169 11.4669 28.7753 11.2252C28.5336 10.9835 28.1336 10.9835 27.8919 11.2252L25.4336 13.6835C25.7503 13.9585 26.0419 14.2585 26.3169 14.5669Z" fill="#7065F0"/>
<path d="M24.7924 12.5C24.7924 12.1583 24.5091 11.875 24.1674 11.875C23.8341 11.875 23.5674 12.1417 23.5508 12.4667C23.9841 12.675 24.4008 12.9083 24.7924 13.1833V12.5Z" fill="#7065F0"/>
<path d="M28.1253 15.8335C28.1253 15.4918 27.8419 15.2085 27.5003 15.2085H26.8086C27.0836 15.6002 27.3253 16.0168 27.5253 16.4502C27.8586 16.4335 28.1253 16.1668 28.1253 15.8335Z" fill="#7065F0"/>
<path d="M20.625 22.2917H20.875C21.2 22.2917 21.4583 22 21.4583 21.6417C21.4583 21.1917 21.3333 21.125 21.05 21.025L20.625 20.875V22.2917Z" fill="#7065F0"/>
<path d="M27.5327 16.4498C27.5244 16.4498 27.516 16.4582 27.4993 16.4582H24.166C24.0827 16.4582 24.0077 16.4415 23.9243 16.4082C23.7743 16.3415 23.6493 16.2248 23.5827 16.0665C23.5577 15.9915 23.541 15.9165 23.541 15.8332V12.4998C23.541 12.4915 23.5493 12.4832 23.5493 12.4665C22.466 11.9582 21.266 11.6665 19.9993 11.6665C15.3993 11.6665 11.666 15.3998 11.666 19.9998C11.666 24.5998 15.3993 28.3332 19.9993 28.3332C24.5993 28.3332 28.3327 24.5998 28.3327 19.9998C28.3327 18.7332 28.041 17.5332 27.5327 16.4498ZM21.4577 19.8498C21.991 20.0332 22.7077 20.4248 22.7077 21.6498C22.7077 22.6915 21.8827 23.5498 20.8743 23.5498H20.6243V23.7582C20.6243 24.0998 20.341 24.3832 19.9993 24.3832C19.6577 24.3832 19.3743 24.0998 19.3743 23.7582V23.5498H19.3077C18.1993 23.5498 17.291 22.6165 17.291 21.4665C17.291 21.1165 17.5743 20.8332 17.916 20.8332C18.2577 20.8332 18.541 21.1165 18.541 21.4582C18.541 21.9165 18.8827 22.2915 19.3077 22.2915H19.3743V20.4415L18.541 20.1498C18.0077 19.9665 17.291 19.5748 17.291 18.3498C17.291 17.3082 18.116 16.4498 19.1243 16.4498H19.3743V16.2498C19.3743 15.9082 19.6577 15.6248 19.9993 15.6248C20.341 15.6248 20.6243 15.9082 20.6243 16.2498V16.4582H20.691C21.7993 16.4582 22.7077 17.3915 22.7077 18.5415C22.7077 18.8832 22.4243 19.1665 22.0827 19.1665C21.741 19.1665 21.4577 18.8832 21.4577 18.5415C21.4577 18.0832 21.116 17.7082 20.691 17.7082H20.6243V19.5582L21.4577 19.8498Z" fill="#7065F0"/>
<path d="M18.541 18.3585C18.541 18.8085 18.666 18.8752 18.9493 18.9752L19.3743 19.1252V17.7085H19.1243C18.8077 17.7085 18.541 18.0002 18.541 18.3585Z" fill="#7065F0"/>
</svg>
