<svg width="40" height="40" viewBox="0 0 40 40" fill="none" xmlns="http://www.w3.org/2000/svg">
<g opacity="0.4">
<path d="M17.916 21.4585C17.916 22.2669 18.541 22.9169 19.3077 22.9169H20.8743C21.541 22.9169 22.0827 22.3502 22.0827 21.6419C22.0827 20.8835 21.7494 20.6085 21.2577 20.4335L18.7493 19.5585C18.2577 19.3835 17.9244 19.1169 17.9244 18.3502C17.9244 17.6502 18.466 17.0752 19.1327 17.0752H20.6993C21.466 17.0752 22.091 17.7252 22.091 18.5335" stroke="#100A55" stroke-width="2" stroke-linecap="round" stroke-linejoin="round"/>
<path d="M20 16.25V23.75" stroke="#100A55" stroke-width="2" stroke-linecap="round" stroke-linejoin="round"/>
<path d="M28.3327 19.9998C28.3327 24.5998 24.5993 28.3332 19.9993 28.3332C15.3993 28.3332 11.666 24.5998 11.666 19.9998C11.666 15.3998 15.3993 11.6665 19.9993 11.6665" stroke="#100A55" stroke-width="2" stroke-linecap="round" stroke-linejoin="round"/>
<path d="M24.166 12.5V15.8333H27.4993" stroke="#100A55" stroke-width="2" stroke-linecap="round" stroke-linejoin="round"/>
<path d="M28.3327 11.6665L24.166 15.8332" stroke="#100A55" stroke-width="2" stroke-linecap="round" stroke-linejoin="round"/>
</g>
</svg>
