<svg width="40" height="40" viewBox="0 0 40 40" fill="none" xmlns="http://www.w3.org/2000/svg">
<g opacity="0.4">
<path d="M20 22.5C21.3807 22.5 22.5 21.3807 22.5 20C22.5 18.6193 21.3807 17.5 20 17.5C18.6193 17.5 17.5 18.6193 17.5 20C17.5 21.3807 18.6193 22.5 20 22.5Z" stroke="#100A55" stroke-width="2" stroke-miterlimit="10" stroke-linecap="round" stroke-linejoin="round"/>
<path d="M11.6667 20.7329V19.2662C11.6667 18.3995 12.3751 17.6829 13.2501 17.6829C14.7584 17.6829 15.3751 16.6162 14.6167 15.3079C14.1834 14.5579 14.4417 13.5829 15.2001 13.1495L16.6417 12.3245C17.3001 11.9329 18.1501 12.1662 18.5417 12.8245L18.6334 12.9829C19.3834 14.2912 20.6167 14.2912 21.3751 12.9829L21.4667 12.8245C21.8584 12.1662 22.7084 11.9329 23.3667 12.3245L24.8084 13.1495C25.5667 13.5829 25.8251 14.5579 25.3917 15.3079C24.6334 16.6162 25.2501 17.6829 26.7584 17.6829C27.6251 17.6829 28.3417 18.3912 28.3417 19.2662V20.7329C28.3417 21.5995 27.6334 22.3162 26.7584 22.3162C25.2501 22.3162 24.6334 23.3829 25.3917 24.6912C25.8251 25.4495 25.5667 26.4162 24.8084 26.8495L23.3667 27.6745C22.7084 28.0662 21.8584 27.8329 21.4667 27.1745L21.3751 27.0162C20.6251 25.7079 19.3917 25.7079 18.6334 27.0162L18.5417 27.1745C18.1501 27.8329 17.3001 28.0662 16.6417 27.6745L15.2001 26.8495C14.4417 26.4162 14.1834 25.4412 14.6167 24.6912C15.3751 23.3829 14.7584 22.3162 13.2501 22.3162C12.3751 22.3162 11.6667 21.5995 11.6667 20.7329Z" stroke="#100A55" stroke-width="2" stroke-miterlimit="10" stroke-linecap="round" stroke-linejoin="round"/>
</g>
</svg>
