<svg width="40" height="40" viewBox="0 0 40 40" fill="none" xmlns="http://www.w3.org/2000/svg">
<rect width="40" height="40" rx="8" fill="#F0EFFB"/>
<path d="M23.3333 11.667H16.6667C13.75 11.667 12.5 13.3337 12.5 15.8337V24.167C12.5 26.667 13.75 28.3337 16.6667 28.3337H23.3333C26.25 28.3337 27.5 26.667 27.5 24.167V15.8337C27.5 13.3337 26.25 11.667 23.3333 11.667ZM16.6667 20.2087H20C20.3417 20.2087 20.625 20.492 20.625 20.8337C20.625 21.1753 20.3417 21.4587 20 21.4587H16.6667C16.325 21.4587 16.0417 21.1753 16.0417 20.8337C16.0417 20.492 16.325 20.2087 16.6667 20.2087ZM23.3333 24.792H16.6667C16.325 24.792 16.0417 24.5087 16.0417 24.167C16.0417 23.8253 16.325 23.542 16.6667 23.542H23.3333C23.675 23.542 23.9583 23.8253 23.9583 24.167C23.9583 24.5087 23.675 24.792 23.3333 24.792ZM25.4167 17.7087H23.75C22.4833 17.7087 21.4583 16.6837 21.4583 15.417V13.7503C21.4583 13.4087 21.7417 13.1253 22.0833 13.1253C22.425 13.1253 22.7083 13.4087 22.7083 13.7503V15.417C22.7083 15.992 23.175 16.4587 23.75 16.4587H25.4167C25.7583 16.4587 26.0417 16.742 26.0417 17.0837C26.0417 17.4253 25.7583 17.7087 25.4167 17.7087Z" fill="#7065F0"/>
</svg>
