<svg width="40" height="40" viewBox="0 0 40 40" fill="none" xmlns="http://www.w3.org/2000/svg">
<g opacity="0.4">
<path d="M25.0004 15.9665C24.9504 15.9582 24.8921 15.9582 24.8421 15.9665C23.6921 15.9248 22.7754 14.9832 22.7754 13.8165C22.7754 12.6248 23.7337 11.6665 24.9254 11.6665C26.1171 11.6665 27.0754 12.6332 27.0754 13.8165C27.0671 14.9832 26.1504 15.9248 25.0004 15.9665Z" stroke="#100A55" stroke-width="2" stroke-linecap="round" stroke-linejoin="round"/>
<path d="M24.1422 22.0333C25.2839 22.225 26.5422 22.025 27.4255 21.4333C28.6005 20.65 28.6005 19.3666 27.4255 18.5833C26.5339 17.9916 25.2589 17.7916 24.1172 17.9916" stroke="#100A55" stroke-width="2" stroke-linecap="round" stroke-linejoin="round"/>
<path d="M14.9734 15.9665C15.0234 15.9582 15.0818 15.9582 15.1318 15.9665C16.2818 15.9248 17.1984 14.9832 17.1984 13.8165C17.1984 12.6248 16.2401 11.6665 15.0484 11.6665C13.8568 11.6665 12.8984 12.6332 12.8984 13.8165C12.9068 14.9832 13.8234 15.9248 14.9734 15.9665Z" stroke="#100A55" stroke-width="2" stroke-linecap="round" stroke-linejoin="round"/>
<path d="M15.8326 22.0333C14.6909 22.225 13.4326 22.025 12.5492 21.4333C11.3742 20.65 11.3742 19.3666 12.5492 18.5833C13.4409 17.9916 14.7159 17.7916 15.8575 17.9916" stroke="#100A55" stroke-width="2" stroke-linecap="round" stroke-linejoin="round"/>
<path d="M20.0004 22.1916C19.9504 22.1833 19.8921 22.1833 19.8421 22.1916C18.6921 22.1499 17.7754 21.2083 17.7754 20.0416C17.7754 18.8499 18.7337 17.8916 19.9254 17.8916C21.1171 17.8916 22.0754 18.8583 22.0754 20.0416C22.0671 21.2083 21.1504 22.1583 20.0004 22.1916Z" stroke="#100A55" stroke-width="2" stroke-linecap="round" stroke-linejoin="round"/>
<path d="M17.5746 24.8168C16.3996 25.6001 16.3996 26.8835 17.5746 27.6668C18.9079 28.5585 21.0913 28.5585 22.4246 27.6668C23.5996 26.8835 23.5996 25.6001 22.4246 24.8168C21.0996 23.9335 18.9079 23.9335 17.5746 24.8168Z" stroke="#100A55" stroke-width="2" stroke-linecap="round" stroke-linejoin="round"/>
</g>
</svg>
