<svg width="40" height="40" viewBox="0 0 40 40" fill="none" xmlns="http://www.w3.org/2000/svg">
<rect width="40" height="40" rx="8" fill="#F0EFFB"/>
<path d="M24.6079 16.4748C24.5495 16.4665 24.4912 16.4665 24.4329 16.4748C23.1412 16.4332 22.1162 15.3748 22.1162 14.0748C22.1162 12.7498 23.1912 11.6665 24.5245 11.6665C25.8495 11.6665 26.9329 12.7415 26.9329 14.0748C26.9245 15.3748 25.8995 16.4332 24.6079 16.4748Z" fill="#7065F0"/>
<path d="M27.3247 22.2498C26.3913 22.8748 25.083 23.1082 23.8747 22.9498C24.1913 22.2665 24.358 21.5082 24.3663 20.7082C24.3663 19.8748 24.183 19.0832 23.833 18.3915C25.0663 18.2248 26.3747 18.4582 27.3163 19.0832C28.633 19.9498 28.633 21.3748 27.3247 22.2498Z" fill="#7065F0"/>
<path d="M15.3665 16.4748C15.4248 16.4665 15.4831 16.4665 15.5415 16.4748C16.8331 16.4332 17.8581 15.3748 17.8581 14.0748C17.8581 12.7415 16.7831 11.6665 15.4498 11.6665C14.1248 11.6665 13.0498 12.7415 13.0498 14.0748C13.0498 15.3748 14.0748 16.4332 15.3665 16.4748Z" fill="#7065F0"/>
<path d="M15.4579 20.7083C15.4579 21.5167 15.6329 22.2833 15.9496 22.975C14.7746 23.1 13.5496 22.85 12.6496 22.2583C11.3329 21.3833 11.3329 19.9583 12.6496 19.0833C13.5413 18.4833 14.7996 18.2417 15.9829 18.375C15.6413 19.075 15.4579 19.8667 15.4579 20.7083Z" fill="#7065F0"/>
<path d="M20.1 23.225C20.0333 23.2167 19.9583 23.2167 19.8833 23.225C18.35 23.175 17.125 21.9167 17.125 20.3667C17.1333 18.7833 18.4083 17.5 20 17.5C21.5833 17.5 22.8667 18.7833 22.8667 20.3667C22.8583 21.9167 21.6417 23.175 20.1 23.225Z" fill="#7065F0"/>
<path d="M17.392 24.9502C16.1337 25.7919 16.1337 27.1752 17.392 28.0085C18.8253 28.9669 21.1753 28.9669 22.6087 28.0085C23.867 27.1669 23.867 25.7835 22.6087 24.9502C21.1837 23.9919 18.8337 23.9919 17.392 24.9502Z" fill="#7065F0"/>
</svg>
