<svg width="40" height="40" viewBox="0 0 40 40" fill="none" xmlns="http://www.w3.org/2000/svg">
<g opacity="0.4" clip-path="url(#clip0_30427_4004)">
<path d="M27.2607 16.5685L21.7055 12.2516C21.218 11.8727 20.618 11.667 20.0003 11.667C19.3827 11.667 18.7826 11.8727 18.2951 12.2516L12.7389 16.5685C12.405 16.8279 12.1348 17.1601 11.949 17.5398C11.7633 17.9195 11.6668 18.3366 11.667 18.7592V26.2522C11.667 26.8043 11.8865 27.3337 12.2772 27.724C12.6679 28.1144 13.1978 28.3337 13.7503 28.3337H26.2503C26.8029 28.3337 27.3328 28.1144 27.7235 27.724C28.1142 27.3337 28.3337 26.8043 28.3337 26.2522V18.7592C28.3337 17.9027 27.9378 17.094 27.2607 16.5685Z" stroke="#100A55" stroke-width="2" stroke-linecap="round" stroke-linejoin="round"/>
</g>
<defs>
<clipPath id="clip0_30427_4004">
<rect width="20" height="20" fill="white" transform="translate(10 10)"/>
</clipPath>
</defs>
</svg>
