<svg width="40" height="40" viewBox="0 0 40 40" fill="none" xmlns="http://www.w3.org/2000/svg">
<rect width="40" height="40" rx="8" fill="#F0EFFB"/>
<g clip-path="url(#clip0_30427_4438)">
<path d="M27.2598 16.5685L21.7046 12.2516C21.217 11.8727 20.617 11.667 19.9993 11.667C19.3817 11.667 18.7817 11.8727 18.2941 12.2516L12.7379 16.5685C12.404 16.8279 12.1338 17.1601 11.9481 17.5398C11.7623 17.9195 11.6658 18.3366 11.666 18.7592V26.2522C11.666 26.8043 11.8855 27.3337 12.2762 27.724C12.6669 28.1144 13.1968 28.3337 13.7493 28.3337H26.2494C26.8019 28.3337 27.3318 28.1144 27.7225 27.724C28.1132 27.3337 28.3327 26.8043 28.3327 26.2522V18.7592C28.3327 17.9027 27.9368 17.094 27.2598 16.5685Z" fill="#7065F0"/>
</g>
<defs>
<clipPath id="clip0_30427_4438">
<rect width="20" height="20" fill="white" transform="translate(10 10)"/>
</clipPath>
</defs>
</svg>
