<svg width="161" height="40" viewBox="0 0 161 40" fill="none" xmlns="http://www.w3.org/2000/svg">
<path d="M37.44 28V13.1H43C44.0133 13.1 44.9067 13.2867 45.68 13.66C46.4667 14.02 47.08 14.5533 47.52 15.26C47.96 15.9533 48.18 16.8 48.18 17.8C48.18 18.7867 47.9533 19.6333 47.5 20.34C47.06 21.0333 46.4533 21.5667 45.68 21.94C44.9067 22.3133 44.0133 22.5 43 22.5H40.16V28H37.44ZM40.16 20.1H43.04C43.5333 20.1 43.96 20.0067 44.32 19.82C44.68 19.62 44.96 19.3467 45.16 19C45.36 18.6533 45.46 18.2533 45.46 17.8C45.46 17.3333 45.36 16.9333 45.16 16.6C44.96 16.2533 44.68 15.9867 44.32 15.8C43.96 15.6 43.5333 15.5 43.04 15.5H40.16V20.1ZM50.1888 28V17.12H52.8088V28H50.1888ZM50.1888 15.9V13.1H52.8088V15.9H50.1888ZM55.2278 28V17.12H57.6878V19.26L57.4878 18.88C57.7411 18.2267 58.1545 17.7333 58.7278 17.4C59.3145 17.0533 59.9945 16.88 60.7678 16.88C61.5678 16.88 62.2745 17.0533 62.8878 17.4C63.5145 17.7467 64.0011 18.2333 64.3478 18.86C64.6945 19.4733 64.8678 20.1867 64.8678 21V28H62.2478V21.62C62.2478 21.14 62.1545 20.7267 61.9678 20.38C61.7811 20.0333 61.5211 19.7667 61.1878 19.58C60.8678 19.38 60.4878 19.28 60.0478 19.28C59.6211 19.28 59.2411 19.38 58.9078 19.58C58.5745 19.7667 58.3145 20.0333 58.1278 20.38C57.9411 20.7267 57.8478 21.14 57.8478 21.62V28H55.2278ZM72.0433 28.12C70.8166 28.12 69.8633 27.7867 69.1833 27.12C68.5166 26.44 68.1833 25.4867 68.1833 24.26V19.46H66.3033V17.12H66.5033C67.0366 17.12 67.4499 16.98 67.7433 16.7C68.0366 16.42 68.1833 16.0133 68.1833 15.48V14.64H70.8033V17.12H73.3033V19.46H70.8033V24.12C70.8033 24.48 70.8633 24.7867 70.9833 25.04C71.1166 25.2933 71.3166 25.4867 71.5833 25.62C71.8633 25.7533 72.2166 25.82 72.6433 25.82C72.7366 25.82 72.8433 25.8133 72.9633 25.8C73.0966 25.7867 73.2233 25.7733 73.3433 25.76V28C73.1566 28.0267 72.9433 28.0533 72.7033 28.08C72.4633 28.1067 72.2433 28.12 72.0433 28.12ZM79.225 28.24C78.385 28.24 77.6517 28.0533 77.025 27.68C76.4117 27.3067 75.9383 26.7867 75.605 26.12C75.285 25.4533 75.125 24.6733 75.125 23.78V17.12H77.745V23.56C77.745 24.0133 77.8317 24.4133 78.005 24.76C78.1917 25.0933 78.4517 25.36 78.785 25.56C79.1317 25.7467 79.5183 25.84 79.945 25.84C80.3717 25.84 80.7517 25.7467 81.085 25.56C81.4183 25.36 81.6783 25.0867 81.865 24.74C82.0517 24.3933 82.145 23.98 82.145 23.5V17.12H84.765V28H82.285V25.86L82.505 26.24C82.2517 26.9067 81.8317 27.4067 81.245 27.74C80.6717 28.0733 79.9983 28.24 79.225 28.24ZM87.4205 28V13.1H92.9605C93.9738 13.1 94.8671 13.2867 95.6405 13.66C96.4271 14.02 97.0405 14.5533 97.4805 15.26C97.9205 15.9533 98.1405 16.8 98.1405 17.8C98.1405 18.8267 97.8938 19.7 97.4005 20.42C96.9205 21.14 96.2671 21.6733 95.4405 22.02L98.8605 28H95.7805L92.1205 21.46L93.8805 22.5H90.1405V28H87.4205ZM90.1405 20.1H93.0005C93.4938 20.1 93.9205 20.0067 94.2805 19.82C94.6405 19.62 94.9205 19.3467 95.1205 19C95.3205 18.6533 95.4205 18.2533 95.4205 17.8C95.4205 17.3333 95.3205 16.9333 95.1205 16.6C94.9205 16.2533 94.6405 15.9867 94.2805 15.8C93.9205 15.6 93.4938 15.5 93.0005 15.5H90.1405V20.1ZM104.303 28.24C103.463 28.24 102.73 28.0533 102.103 27.68C101.49 27.3067 101.016 26.7867 100.683 26.12C100.363 25.4533 100.203 24.6733 100.203 23.78V17.12H102.823V23.56C102.823 24.0133 102.91 24.4133 103.083 24.76C103.27 25.0933 103.53 25.36 103.863 25.56C104.21 25.7467 104.596 25.84 105.023 25.84C105.45 25.84 105.83 25.7467 106.163 25.56C106.496 25.36 106.756 25.0867 106.943 24.74C107.13 24.3933 107.223 23.98 107.223 23.5V17.12H109.843V28H107.363V25.86L107.583 26.24C107.33 26.9067 106.91 27.4067 106.323 27.74C105.75 28.0733 105.076 28.24 104.303 28.24ZM112.279 28V17.12H114.739V19.64L114.459 19.22C114.659 18.4333 115.059 17.8467 115.659 17.46C116.259 17.0733 116.965 16.88 117.779 16.88C118.672 16.88 119.459 17.1133 120.139 17.58C120.819 18.0467 121.259 18.66 121.459 19.42L120.719 19.48C121.052 18.6133 121.552 17.9667 122.219 17.54C122.885 17.1 123.652 16.88 124.519 16.88C125.292 16.88 125.979 17.0533 126.579 17.4C127.192 17.7467 127.672 18.2333 128.019 18.86C128.365 19.4733 128.539 20.1867 128.539 21V28H125.919V21.62C125.919 21.14 125.832 20.7267 125.659 20.38C125.485 20.0333 125.245 19.7667 124.939 19.58C124.632 19.38 124.259 19.28 123.819 19.28C123.405 19.28 123.039 19.38 122.719 19.58C122.399 19.7667 122.152 20.0333 121.979 20.38C121.805 20.7267 121.719 21.14 121.719 21.62V28H119.099V21.62C119.099 21.14 119.012 20.7267 118.839 20.38C118.665 20.0333 118.419 19.7667 118.099 19.58C117.792 19.38 117.425 19.28 116.999 19.28C116.585 19.28 116.219 19.38 115.899 19.58C115.579 19.7667 115.332 20.0333 115.159 20.38C114.985 20.7267 114.899 21.14 114.899 21.62V28H112.279ZM134.055 28.24C133.295 28.24 132.635 28.1133 132.075 27.86C131.515 27.6067 131.082 27.2467 130.775 26.78C130.468 26.3 130.315 25.7467 130.315 25.12C130.315 24.52 130.448 23.9867 130.715 23.52C130.982 23.04 131.395 22.64 131.955 22.32C132.515 22 133.222 21.7733 134.075 21.64L137.635 21.06V23.06L134.575 23.58C134.055 23.6733 133.668 23.84 133.415 24.08C133.162 24.32 133.035 24.6333 133.035 25.02C133.035 25.3933 133.175 25.6933 133.455 25.92C133.748 26.1333 134.108 26.24 134.535 26.24C135.082 26.24 135.562 26.1267 135.975 25.9C136.402 25.66 136.728 25.3333 136.955 24.92C137.195 24.5067 137.315 24.0533 137.315 23.56V20.76C137.315 20.2933 137.128 19.9067 136.755 19.6C136.395 19.28 135.915 19.12 135.315 19.12C134.755 19.12 134.255 19.2733 133.815 19.58C133.388 19.8733 133.075 20.2667 132.875 20.76L130.735 19.72C130.948 19.1467 131.282 18.6533 131.735 18.24C132.202 17.8133 132.748 17.48 133.375 17.24C134.002 17 134.682 16.88 135.415 16.88C136.308 16.88 137.095 17.0467 137.775 17.38C138.455 17.7 138.982 18.1533 139.355 18.74C139.742 19.3133 139.935 19.9867 139.935 20.76V28H137.455V26.14L138.015 26.1C137.735 26.5667 137.402 26.96 137.015 27.28C136.628 27.5867 136.188 27.8267 135.695 28C135.202 28.16 134.655 28.24 134.055 28.24ZM142.357 28V12.86H144.977V19.26L144.617 18.88C144.87 18.2267 145.283 17.7333 145.857 17.4C146.443 17.0533 147.123 16.88 147.897 16.88C148.697 16.88 149.403 17.0533 150.017 17.4C150.643 17.7467 151.13 18.2333 151.477 18.86C151.823 19.4733 151.997 20.1867 151.997 21V28H149.377V21.62C149.377 21.14 149.283 20.7267 149.097 20.38C148.91 20.0333 148.65 19.7667 148.317 19.58C147.997 19.38 147.617 19.28 147.177 19.28C146.75 19.28 146.37 19.38 146.037 19.58C145.703 19.7667 145.443 20.0333 145.257 20.38C145.07 20.7267 144.977 21.14 144.977 21.62V28H142.357Z" fill="#100A55"/>
<g clip-path="url(#clip0_30293_931)">
<path d="M25.3333 15.6132L18.2226 10.0825C17.5986 9.59707 16.8306 9.3335 16.04 9.3335C15.2494 9.3335 14.4813 9.59707 13.8573 10.0825L6.74529 15.6132C6.31788 15.9456 5.97208 16.3712 5.7343 16.8577C5.49651 17.3441 5.37304 17.8784 5.37329 18.4199V28.0199C5.37329 28.7271 5.65424 29.4054 6.15434 29.9055C6.65444 30.4056 7.33271 30.6865 8.03996 30.6865H24.04C24.7472 30.6865 25.4255 30.4056 25.9256 29.9055C26.4257 29.4054 26.7066 28.7271 26.7066 28.0199V18.4199C26.7066 17.3225 26.2 16.2865 25.3333 15.6132Z" fill="#7065F0" stroke="#7065F0" stroke-width="3" stroke-linecap="round" stroke-linejoin="round"/>
<path d="M21.3334 24C18.3867 25.7773 13.6107 25.7773 10.6667 24" stroke="#F9FAFB" stroke-width="3" stroke-linecap="round" stroke-linejoin="round"/>
</g>
<defs>
<clipPath id="clip0_30293_931">
<rect width="32" height="32" fill="white" transform="translate(0 4)"/>
</clipPath>
</defs>
</svg>
