<svg width="113" height="40" viewBox="0 0 113 40" fill="none" xmlns="http://www.w3.org/2000/svg">
<path d="M8 40L0 32H8V40Z" fill="#5245ED"/>
<path d="M0 8C0 3.58172 3.58172 0 8 0H105C109.418 0 113 3.58172 113 8V24C113 28.4183 109.418 32 105 32H0V8Z" fill="#7065F0"/>
<path fill-rule="evenodd" clip-rule="evenodd" d="M20 9.6001C20.2121 9.6001 20.4156 9.68438 20.5657 9.83441C20.7157 9.98444 20.8 10.1879 20.8 10.4001V11.2001H21.6C21.8121 11.2001 22.0156 11.2844 22.1657 11.4344C22.3157 11.5844 22.4 11.7879 22.4 12.0001C22.4 12.2123 22.3157 12.4158 22.1657 12.5658C22.0156 12.7158 21.8121 12.8001 21.6 12.8001H20.8V13.6001C20.8 13.8123 20.7157 14.0158 20.5657 14.1658C20.4156 14.3158 20.2121 14.4001 20 14.4001C19.7878 14.4001 19.5843 14.3158 19.4343 14.1658C19.2843 14.0158 19.2 13.8123 19.2 13.6001V12.8001H18.4C18.1878 12.8001 17.9843 12.7158 17.8343 12.5658C17.6843 12.4158 17.6 12.2123 17.6 12.0001C17.6 11.7879 17.6843 11.5844 17.8343 11.4344C17.9843 11.2844 18.1878 11.2001 18.4 11.2001H19.2V10.4001C19.2 10.1879 19.2843 9.98444 19.4343 9.83441C19.5843 9.68438 19.7878 9.6001 20 9.6001ZM20 17.6001C20.2121 17.6001 20.4156 17.6844 20.5657 17.8344C20.7157 17.9844 20.8 18.1879 20.8 18.4001V19.2001H21.6C21.8121 19.2001 22.0156 19.2844 22.1657 19.4344C22.3157 19.5844 22.4 19.7879 22.4 20.0001C22.4 20.2123 22.3157 20.4158 22.1657 20.5658C22.0156 20.7158 21.8121 20.8001 21.6 20.8001H20.8V21.6001C20.8 21.8123 20.7157 22.0158 20.5657 22.1658C20.4156 22.3158 20.2121 22.4001 20 22.4001C19.7878 22.4001 19.5843 22.3158 19.4343 22.1658C19.2843 22.0158 19.2 21.8123 19.2 21.6001V20.8001H18.4C18.1878 20.8001 17.9843 20.7158 17.8343 20.5658C17.6843 20.4158 17.6 20.2123 17.6 20.0001C17.6 19.7879 17.6843 19.5844 17.8343 19.4344C17.9843 19.2844 18.1878 19.2001 18.4 19.2001H19.2V18.4001C19.2 18.1879 19.2843 17.9844 19.4343 17.8344C19.5843 17.6844 19.7878 17.6001 20 17.6001ZM25.6 9.6001C25.7765 9.60004 25.9481 9.65839 26.0881 9.76605C26.228 9.87371 26.3284 10.0246 26.3736 10.1953L27.3168 13.7601L30 15.3073C30.1216 15.3775 30.2226 15.4785 30.2928 15.6001C30.363 15.7217 30.3999 15.8597 30.3999 16.0001C30.3999 16.1405 30.363 16.2785 30.2928 16.4001C30.2226 16.5217 30.1216 16.6227 30 16.6929L27.3168 18.2409L26.3728 21.8049C26.3275 21.9754 26.2271 22.1262 26.0873 22.2337C25.9475 22.3413 25.776 22.3996 25.5996 22.3996C25.4232 22.3996 25.2517 22.3413 25.1119 22.2337C24.972 22.1262 24.8717 21.9754 24.8264 21.8049L23.8832 18.2401L21.2 16.6929C21.0784 16.6227 20.9774 16.5217 20.9072 16.4001C20.837 16.2785 20.8 16.1405 20.8 16.0001C20.8 15.8597 20.837 15.7217 20.9072 15.6001C20.9774 15.4785 21.0784 15.3775 21.2 15.3073L23.8832 13.7593L24.8272 10.1953C24.8723 10.0248 24.9726 9.87394 25.1124 9.76629C25.2521 9.65865 25.4236 9.60022 25.6 9.6001Z" fill="white"/>
<path d="M36.864 21V12.06H40.2C40.808 12.06 41.344 12.172 41.808 12.396C42.28 12.612 42.648 12.932 42.912 13.356C43.176 13.772 43.308 14.28 43.308 14.88C43.308 15.472 43.172 15.98 42.9 16.404C42.636 16.82 42.272 17.14 41.808 17.364C41.344 17.588 40.808 17.7 40.2 17.7H38.496V21H36.864ZM38.496 16.26H40.224C40.52 16.26 40.776 16.204 40.992 16.092C41.208 15.972 41.376 15.808 41.496 15.6C41.616 15.392 41.676 15.152 41.676 14.88C41.676 14.6 41.616 14.36 41.496 14.16C41.376 13.952 41.208 13.792 40.992 13.68C40.776 13.56 40.52 13.5 40.224 13.5H38.496V16.26ZM49.5493 21.144C48.8933 21.144 48.2813 21.028 47.7133 20.796C47.1453 20.564 46.6493 20.24 46.2253 19.824C45.8013 19.408 45.4693 18.92 45.2293 18.36C44.9973 17.792 44.8813 17.18 44.8813 16.524C44.8813 15.86 44.9973 15.248 45.2293 14.688C45.4613 14.128 45.7893 13.64 46.2133 13.224C46.6373 12.808 47.1333 12.488 47.7013 12.264C48.2693 12.032 48.8853 11.916 49.5493 11.916C50.2133 11.916 50.8293 12.032 51.3973 12.264C51.9653 12.496 52.4613 12.82 52.8853 13.236C53.3093 13.644 53.6373 14.128 53.8693 14.688C54.1093 15.248 54.2293 15.86 54.2293 16.524C54.2293 17.18 54.1093 17.792 53.8693 18.36C53.6293 18.92 53.2973 19.408 52.8733 19.824C52.4493 20.24 51.9533 20.564 51.3853 20.796C50.8253 21.028 50.2133 21.144 49.5493 21.144ZM49.5493 19.656C49.9893 19.656 50.3933 19.58 50.7613 19.428C51.1293 19.268 51.4493 19.048 51.7213 18.768C52.0013 18.488 52.2133 18.156 52.3573 17.772C52.5093 17.388 52.5853 16.972 52.5853 16.524C52.5853 16.076 52.5093 15.664 52.3573 15.288C52.2133 14.904 52.0013 14.572 51.7213 14.292C51.4493 14.004 51.1293 13.784 50.7613 13.632C50.3933 13.48 49.9893 13.404 49.5493 13.404C49.1173 13.404 48.7173 13.48 48.3493 13.632C47.9813 13.784 47.6573 14.004 47.3773 14.292C47.1053 14.572 46.8933 14.904 46.7413 15.288C46.5893 15.664 46.5133 16.076 46.5133 16.524C46.5133 16.972 46.5893 17.388 46.7413 17.772C46.8933 18.156 47.1053 18.488 47.3773 18.768C47.6573 19.048 47.9813 19.268 48.3493 19.428C48.7173 19.58 49.1173 19.656 49.5493 19.656ZM56.1804 21V12.06H59.5164C60.1244 12.06 60.6604 12.172 61.1244 12.396C61.5964 12.612 61.9644 12.932 62.2284 13.356C62.4924 13.772 62.6244 14.28 62.6244 14.88C62.6244 15.472 62.4884 15.98 62.2164 16.404C61.9524 16.82 61.5884 17.14 61.1244 17.364C60.6604 17.588 60.1244 17.7 59.5164 17.7H57.8124V21H56.1804ZM57.8124 16.26H59.5404C59.8364 16.26 60.0924 16.204 60.3084 16.092C60.5244 15.972 60.6924 15.808 60.8124 15.6C60.9324 15.392 60.9924 15.152 60.9924 14.88C60.9924 14.6 60.9324 14.36 60.8124 14.16C60.6924 13.952 60.5244 13.792 60.3084 13.68C60.0924 13.56 59.8364 13.5 59.5404 13.5H57.8124V16.26ZM67.9057 21.144C67.2177 21.144 66.6057 21 66.0697 20.712C65.5417 20.424 65.1257 20.028 64.8217 19.524C64.5177 19.02 64.3657 18.448 64.3657 17.808V12.06H65.9977V17.724C65.9977 18.092 66.0777 18.424 66.2377 18.72C66.4057 19.016 66.6337 19.248 66.9217 19.416C67.2097 19.576 67.5377 19.656 67.9057 19.656C68.2817 19.656 68.6097 19.576 68.8897 19.416C69.1777 19.248 69.4017 19.016 69.5617 18.72C69.7297 18.424 69.8137 18.092 69.8137 17.724V12.06H71.4457V17.808C71.4457 18.448 71.2937 19.02 70.9897 19.524C70.6857 20.028 70.2657 20.424 69.7297 20.712C69.2017 21 68.5937 21.144 67.9057 21.144ZM73.5749 21V12.06H75.2069V19.56H79.0349V21H73.5749ZM80.5906 21V12.06H86.5306V13.5H82.2226V15.792H86.2906V17.232H82.2226V19.56H86.5306V21H80.5906ZM88.2273 21V12.06H91.5513C92.1593 12.06 92.6953 12.172 93.1593 12.396C93.6313 12.612 93.9993 12.932 94.2633 13.356C94.5273 13.772 94.6593 14.28 94.6593 14.88C94.6593 15.496 94.5113 16.02 94.2153 16.452C93.9273 16.884 93.5353 17.204 93.0393 17.412L95.0913 21H93.2433L91.0473 17.076L92.1033 17.7H89.8593V21H88.2273ZM89.8593 16.26H91.5753C91.8713 16.26 92.1273 16.204 92.3433 16.092C92.5593 15.972 92.7273 15.808 92.8473 15.6C92.9673 15.392 93.0273 15.152 93.0273 14.88C93.0273 14.6 92.9673 14.36 92.8473 14.16C92.7273 13.952 92.5593 13.792 92.3433 13.68C92.1273 13.56 91.8713 13.5 91.5753 13.5H89.8593V16.26Z" fill="white"/>
</svg>
