<svg width="56" height="56" viewBox="0 0 56 56" fill="none" xmlns="http://www.w3.org/2000/svg">
<circle cx="28" cy="28" r="28" fill="#000929"/>
<g clip-path="url(#clip0_29323_19607)">
<path d="M36.4701 23.9967L29.989 18.9604C29.4202 18.5183 28.7202 18.2783 27.9996 18.2783C27.279 18.2783 26.5789 18.5183 26.0102 18.9604L19.5279 23.9967C19.1383 24.2994 18.8231 24.687 18.6064 25.13C18.3897 25.5729 18.2771 26.0595 18.2773 26.5525V35.2945C18.2773 35.9385 18.5334 36.5561 18.9892 37.0115C19.4451 37.4669 20.0633 37.7228 20.7079 37.7228H35.2912C35.9359 37.7228 36.5541 37.4669 37.0099 37.0115C37.4657 36.5561 37.7218 35.9385 37.7218 35.2945V26.5525C37.7218 25.5533 37.26 24.6099 36.4701 23.9967Z" fill="white" stroke="white" stroke-width="2" stroke-linecap="round" stroke-linejoin="round"/>
</g>
<defs>
<clipPath id="clip0_29323_19607">
<rect width="23.3333" height="23.3333" fill="white" transform="translate(16.333 16.3335)"/>
</clipPath>
</defs>
</svg>
