<svg width="48" height="48" viewBox="0 0 48 48" fill="none" xmlns="http://www.w3.org/2000/svg">
<rect width="48" height="48" rx="8" fill="#F0EFFB"/>
<path d="M15.0928 21.4045H32.9167" stroke="#7065F0" stroke-width="2" stroke-linecap="round" stroke-linejoin="round"/>
<path d="M28.442 25.3097H28.4512" stroke="#7065F0" stroke-width="2" stroke-linecap="round" stroke-linejoin="round"/>
<path d="M24.0045 25.3097H24.0137" stroke="#7065F0" stroke-width="2" stroke-linecap="round" stroke-linejoin="round"/>
<path d="M19.5577 25.3097H19.567" stroke="#7065F0" stroke-width="2" stroke-linecap="round" stroke-linejoin="round"/>
<path d="M28.442 29.1964H28.4512" stroke="#7065F0" stroke-width="2" stroke-linecap="round" stroke-linejoin="round"/>
<path d="M24.0045 29.1964H24.0137" stroke="#7065F0" stroke-width="2" stroke-linecap="round" stroke-linejoin="round"/>
<path d="M19.5577 29.1964H19.567" stroke="#7065F0" stroke-width="2" stroke-linecap="round" stroke-linejoin="round"/>
<path d="M28.0438 14V17.2908" stroke="#7065F0" stroke-width="2" stroke-linecap="round" stroke-linejoin="round"/>
<path d="M19.9656 14V17.2908" stroke="#7065F0" stroke-width="2" stroke-linecap="round" stroke-linejoin="round"/>
<path fill-rule="evenodd" clip-rule="evenodd" d="M28.2383 15.5791H19.771C16.8343 15.5791 15 17.215 15 20.2221V29.2718C15 32.3261 16.8343 33.9999 19.771 33.9999H28.229C31.175 33.9999 33 32.3545 33 29.3474V20.2221C33.0092 17.215 31.1842 15.5791 28.2383 15.5791Z" stroke="#7065F0" stroke-width="2" stroke-linecap="round" stroke-linejoin="round"/>
</svg>
