<svg width="20" height="20" viewBox="0 0 20 20" fill="none" xmlns="http://www.w3.org/2000/svg">
<circle cx="10" cy="10" r="10" fill="#F0EFFB"/>
<path d="M5.54639 8.7021H14.4584" stroke="#7065F0" stroke-width="1.5" stroke-linecap="round" stroke-linejoin="round"/>
<path d="M12.221 10.6549H12.2256" stroke="#7065F0" stroke-width="1.5" stroke-linecap="round" stroke-linejoin="round"/>
<path d="M10.0022 10.6549H10.0069" stroke="#7065F0" stroke-width="1.5" stroke-linecap="round" stroke-linejoin="round"/>
<path d="M7.77884 10.6549H7.78348" stroke="#7065F0" stroke-width="1.5" stroke-linecap="round" stroke-linejoin="round"/>
<path d="M12.221 12.5981H12.2256" stroke="#7065F0" stroke-width="1.5" stroke-linecap="round" stroke-linejoin="round"/>
<path d="M10.0022 12.5981H10.0069" stroke="#7065F0" stroke-width="1.5" stroke-linecap="round" stroke-linejoin="round"/>
<path d="M7.77884 12.5981H7.78348" stroke="#7065F0" stroke-width="1.5" stroke-linecap="round" stroke-linejoin="round"/>
<path d="M12.0219 5V6.64539" stroke="#7065F0" stroke-width="1.5" stroke-linecap="round" stroke-linejoin="round"/>
<path d="M7.98282 5V6.64539" stroke="#7065F0" stroke-width="1.5" stroke-linecap="round" stroke-linejoin="round"/>
<path fill-rule="evenodd" clip-rule="evenodd" d="M12.1191 5.78955H7.88548C6.41714 5.78955 5.5 6.60752 5.5 8.11106V12.6359C5.5 14.1631 6.41714 15 7.88548 15H12.1145C13.5875 15 14.5 14.1773 14.5 12.6737V8.11106C14.5046 6.60752 13.5921 5.78955 12.1191 5.78955Z" stroke="#7065F0" stroke-width="1.5" stroke-linecap="round" stroke-linejoin="round"/>
</svg>
