<svg width="48" height="48" viewBox="0 0 48 48" fill="none" xmlns="http://www.w3.org/2000/svg">
<circle cx="24" cy="24" r="24" fill="#7065F0"/>
<path d="M28 14H20C16.5 14 15 16 15 19V29C15 32 16.5 34 20 34H28C31.5 34 33 32 33 29V19C33 16 31.5 14 28 14ZM20 24.25H24C24.41 24.25 24.75 24.59 24.75 25C24.75 25.41 24.41 25.75 24 25.75H20C19.59 25.75 19.25 25.41 19.25 25C19.25 24.59 19.59 24.25 20 24.25ZM28 29.75H20C19.59 29.75 19.25 29.41 19.25 29C19.25 28.59 19.59 28.25 20 28.25H28C28.41 28.25 28.75 28.59 28.75 29C28.75 29.41 28.41 29.75 28 29.75ZM30.5 21.25H28.5C26.98 21.25 25.75 20.02 25.75 18.5V16.5C25.75 16.09 26.09 15.75 26.5 15.75C26.91 15.75 27.25 16.09 27.25 16.5V18.5C27.25 19.19 27.81 19.75 28.5 19.75H30.5C30.91 19.75 31.25 20.09 31.25 20.5C31.25 20.91 30.91 21.25 30.5 21.25Z" fill="white"/>
</svg>
