<svg width="25" height="24" viewBox="0 0 25 24" fill="none" xmlns="http://www.w3.org/2000/svg">
<g opacity="0.5">
<path d="M9.63867 13.7502C9.63867 14.7202 10.3887 15.5002 11.3087 15.5002H13.1887C13.9887 15.5002 14.6387 14.8202 14.6387 13.9702C14.6387 13.0602 14.2387 12.7302 13.6487 12.5202L10.6387 11.4702C10.0487 11.2602 9.64868 10.9402 9.64868 10.0202C9.64868 9.18023 10.2987 8.49023 11.0987 8.49023H12.9787C13.8987 8.49023 14.6487 9.27023 14.6487 10.2402" stroke="#000929" stroke-width="2" stroke-linecap="round" stroke-linejoin="round"/>
<path d="M12.1387 7.5V16.5" stroke="#000929" stroke-width="2" stroke-linecap="round" stroke-linejoin="round"/>
<path d="M22.1387 12C22.1387 17.52 17.6587 22 12.1387 22C6.61867 22 2.13867 17.52 2.13867 12C2.13867 6.48 6.61867 2 12.1387 2" stroke="#000929" stroke-width="2" stroke-linecap="round" stroke-linejoin="round"/>
<path d="M17.1387 3V7H21.1387" stroke="#000929" stroke-width="2" stroke-linecap="round" stroke-linejoin="round"/>
<path d="M22.1387 2L17.1387 7" stroke="#000929" stroke-width="2" stroke-linecap="round" stroke-linejoin="round"/>
</g>
</svg>
