<svg width="20" height="21" viewBox="0 0 20 21" fill="none" xmlns="http://www.w3.org/2000/svg">
<path opacity="0.2" d="M9.99996 18.8332C14.6023 18.8332 18.3333 15.1022 18.3333 10.4998C18.3333 5.89746 14.6023 2.1665 9.99996 2.1665C5.39759 2.1665 1.66663 5.89746 1.66663 10.4998C1.66663 15.1022 5.39759 18.8332 9.99996 18.8332Z" fill="#7065F0"/>
<path d="M10 11.9582C10.3417 11.9582 10.625 11.6748 10.625 11.3332V7.1665C10.625 6.82484 10.3417 6.5415 10 6.5415C9.65833 6.5415 9.375 6.82484 9.375 7.1665V11.3332C9.375 11.6748 9.65833 11.9582 10 11.9582Z" fill="#7065F0"/>
<path d="M10.7666 13.5169C10.725 13.4169 10.6666 13.3252 10.5916 13.2419C10.5083 13.1669 10.4166 13.1086 10.3166 13.0669C10.1166 12.9836 9.88329 12.9836 9.68329 13.0669C9.58329 13.1086 9.49163 13.1669 9.40829 13.2419C9.33329 13.3252 9.27496 13.4169 9.23329 13.5169C9.19163 13.6169 9.16663 13.7252 9.16663 13.8336C9.16663 13.9419 9.19163 14.0502 9.23329 14.1502C9.27496 14.2586 9.33329 14.3419 9.40829 14.4252C9.49163 14.5002 9.58329 14.5586 9.68329 14.6002C9.78329 14.6419 9.89163 14.6669 9.99996 14.6669C10.1083 14.6669 10.2166 14.6419 10.3166 14.6002C10.4166 14.5586 10.5083 14.5002 10.5916 14.4252C10.6666 14.3419 10.725 14.2586 10.7666 14.1502C10.8083 14.0502 10.8333 13.9419 10.8333 13.8336C10.8333 13.7252 10.8083 13.6169 10.7666 13.5169Z" fill="#7065F0"/>
</svg>
