<svg width="25" height="24" viewBox="0 0 25 24" fill="none" xmlns="http://www.w3.org/2000/svg">
<g opacity="0.5">
<path d="M2.13867 15.3V9C2.13867 5.5 4.13867 4 7.13867 4H17.1387C20.1387 4 22.1387 5.5 22.1387 9V15C22.1387 18.5 20.1387 20 17.1387 20H8.63867" stroke="#000929" stroke-width="2" stroke-miterlimit="10" stroke-linecap="round" stroke-linejoin="round"/>
<path d="M12.1387 14.5C13.5194 14.5 14.6387 13.3807 14.6387 12C14.6387 10.6193 13.5194 9.5 12.1387 9.5C10.758 9.5 9.63867 10.6193 9.63867 12C9.63867 13.3807 10.758 14.5 12.1387 14.5Z" stroke="#000929" stroke-width="2" stroke-miterlimit="10" stroke-linecap="round" stroke-linejoin="round"/>
<path d="M18.6387 9.5V14.5" stroke="#000929" stroke-width="2" stroke-miterlimit="10" stroke-linecap="round" stroke-linejoin="round"/>
<path d="M9.13867 18C9.13867 18.75 8.92865 19.46 8.55865 20.06C7.86865 21.22 6.59867 22 5.13867 22C3.67867 22 2.40869 21.22 1.71869 20.06C1.34869 19.46 1.13867 18.75 1.13867 18C1.13867 15.79 2.92867 14 5.13867 14C7.34867 14 9.13867 15.79 9.13867 18Z" stroke="#000929" stroke-width="2" stroke-miterlimit="10" stroke-linecap="round" stroke-linejoin="round"/>
<path d="M6.20959 19.0397L4.09961 16.9297" stroke="#000929" stroke-width="2" stroke-miterlimit="10" stroke-linecap="round" stroke-linejoin="round"/>
<path d="M6.17834 16.96L4.06836 19.0699" stroke="#000929" stroke-width="2" stroke-miterlimit="10" stroke-linecap="round" stroke-linejoin="round"/>
</g>
</svg>
