<svg width="16" height="16" viewBox="0 0 16 16" fill="none" xmlns="http://www.w3.org/2000/svg">
<path d="M14.6467 12.2207C14.6467 12.4607 14.5934 12.7073 14.48 12.9473C14.3667 13.1873 14.22 13.414 14.0267 13.6273C13.7 13.9873 13.34 14.2473 12.9334 14.414C12.5334 14.5807 12.1 14.6673 11.6334 14.6673C10.9534 14.6673 10.2267 14.5073 9.46004 14.1807C8.69337 13.854 7.92671 13.414 7.16671 12.8607C6.40004 12.3007 5.67337 11.6807 4.98004 10.994C4.29337 10.3007 3.67337 9.57398 3.12004 8.81398C2.57337 8.05398 2.13337 7.29398 1.81337 6.54065C1.49337 5.78065 1.33337 5.05398 1.33337 4.36065C1.33337 3.90732 1.41337 3.47398 1.57337 3.07398C1.73337 2.66732 1.98671 2.29398 2.34004 1.96065C2.76671 1.54065 3.23337 1.33398 3.72671 1.33398C3.91337 1.33398 4.10004 1.37398 4.26671 1.45398C4.44004 1.53398 4.59337 1.65398 4.71337 1.82732L6.26004 4.00732C6.38004 4.17398 6.46671 4.32732 6.52671 4.47398C6.58671 4.61398 6.62004 4.75398 6.62004 4.88065C6.62004 5.04065 6.57337 5.20065 6.48004 5.35398C6.39337 5.50732 6.26671 5.66732 6.10671 5.82732L5.60004 6.35398C5.52671 6.42732 5.49337 6.51398 5.49337 6.62065C5.49337 6.67398 5.50004 6.72065 5.51337 6.77398C5.53337 6.82732 5.55337 6.86732 5.56671 6.90732C5.68671 7.12732 5.89337 7.41398 6.18671 7.76065C6.48671 8.10732 6.80671 8.46065 7.15337 8.81398C7.51337 9.16732 7.86004 9.49398 8.21337 9.79398C8.56004 10.0873 8.84671 10.2873 9.07337 10.4073C9.10671 10.4207 9.14671 10.4407 9.19337 10.4607C9.24671 10.4807 9.30004 10.4873 9.36004 10.4873C9.47337 10.4873 9.56004 10.4473 9.63337 10.374L10.14 9.87398C10.3067 9.70732 10.4667 9.58065 10.62 9.50065C10.7734 9.40732 10.9267 9.36065 11.0934 9.36065C11.22 9.36065 11.3534 9.38732 11.5 9.44732C11.6467 9.50732 11.8 9.59398 11.9667 9.70732L14.1734 11.274C14.3467 11.394 14.4667 11.534 14.54 11.7006C14.6067 11.8673 14.6467 12.034 14.6467 12.2207Z" stroke="#7065F0" stroke-width="1.5" stroke-miterlimit="10"/>
</svg>
