<svg width="72" height="72" viewBox="0 0 72 72" fill="none" xmlns="http://www.w3.org/2000/svg">
<rect x="0.75" y="0.75" width="70.5" height="70.5" rx="35.25" fill="#F7F7FD" stroke="#E0DEF7" stroke-width="1.5"/>
<rect x="8" y="8" width="56" height="56" rx="28" fill="#E0DEF7"/>
<path d="M24.333 29.3335C21.5663 29.3335 19.333 31.5668 19.333 34.3335V47.6668C19.333 50.4335 21.5663 52.6668 24.333 52.6668H26.833C28.6663 52.6668 30.1663 51.1668 30.1663 49.3335V32.6668C30.1663 30.8335 28.6663 29.3335 26.833 29.3335H24.333ZM25.9997 44.3335C25.9997 45.0168 25.433 45.5835 24.7497 45.5835C24.0663 45.5835 23.4997 45.0168 23.4997 44.3335V37.6668C23.4997 36.9835 24.0663 36.4168 24.7497 36.4168C25.433 36.4168 25.9997 36.9835 25.9997 37.6668V44.3335Z" fill="#000929"/>
<path d="M47.667 19.3335H37.667C34.9003 19.3335 32.667 21.5668 32.667 24.3335V47.6668C32.667 50.4335 34.9003 52.6668 37.667 52.6668H38.5003C38.967 52.6668 39.3337 52.3002 39.3337 51.8335V46.0002C39.3337 45.0835 40.0837 44.3335 41.0003 44.3335H44.3337C45.2503 44.3335 46.0003 45.0835 46.0003 46.0002V51.8335C46.0003 52.3002 46.367 52.6668 46.8337 52.6668H47.667C50.4337 52.6668 52.667 50.4335 52.667 47.6668V24.3335C52.667 21.5668 50.4337 19.3335 47.667 19.3335ZM40.5837 37.6668C40.5837 38.3502 40.017 38.9168 39.3337 38.9168C38.6503 38.9168 38.0837 38.3502 38.0837 37.6668V29.3335C38.0837 28.6502 38.6503 28.0835 39.3337 28.0835C40.017 28.0835 40.5837 28.6502 40.5837 29.3335V37.6668ZM47.2503 37.6668C47.2503 38.3502 46.6837 38.9168 46.0003 38.9168C45.317 38.9168 44.7503 38.3502 44.7503 37.6668V29.3335C44.7503 28.6502 45.317 28.0835 46.0003 28.0835C46.6837 28.0835 47.2503 28.6502 47.2503 29.3335V37.6668Z" fill="#7065F0"/>
</svg>
