<svg width="48" height="48" viewBox="0 0 48 48" fill="none" xmlns="http://www.w3.org/2000/svg">
<circle cx="24" cy="24" r="24" fill="#FFB154"/>
<g clip-path="url(#clip0_29453_16171)">
<path d="M32.7014 28.4943C32.145 27.5366 31.4817 25.7192 31.4817 22.5V21.8347C31.4817 17.683 28.1511 14.2806 24.0571 14.2502C24.038 14.2501 24.019 14.25 23.9999 14.25C22.0133 14.2526 20.1091 15.0442 18.7062 16.4507C17.3033 17.8572 16.5166 19.7634 16.5191 21.75V22.5C16.5191 25.719 15.8554 27.5363 15.2988 28.494C15.1658 28.7217 15.0953 28.9805 15.0942 29.2443C15.0932 29.508 15.1617 29.7673 15.2929 29.9961C15.4241 30.2249 15.6133 30.4151 15.8414 30.5475C16.0695 30.6798 16.3285 30.7497 16.5922 30.75H20.2501C20.2501 31.7446 20.6451 32.6984 21.3484 33.4017C22.0517 34.1049 23.0055 34.5 24.0001 34.5C24.9946 34.5 25.9484 34.1049 26.6517 33.4017C27.355 32.6984 27.7501 31.7446 27.7501 30.75H31.4079C31.6716 30.7497 31.9305 30.6798 32.1586 30.5475C32.3867 30.4152 32.5759 30.2251 32.707 29.9963C32.8382 29.7675 32.9068 29.5083 32.9058 29.2446C32.9048 28.9809 32.8343 28.7221 32.7014 28.4943ZM24.0001 33C23.4035 32.9993 22.8316 32.7621 22.4098 32.3402C21.988 31.9184 21.7507 31.3465 21.7501 30.75H26.2501C26.2494 31.3465 26.0121 31.9184 25.5903 32.3402C25.1685 32.7621 24.5966 32.9993 24.0001 33Z" fill="white"/>
</g>
<defs>
<clipPath id="clip0_29453_16171">
<rect width="24" height="24" fill="white" transform="translate(12 12)"/>
</clipPath>
</defs>
</svg>
