<svg width="25" height="24" viewBox="0 0 25 24" fill="none" xmlns="http://www.w3.org/2000/svg">
<g opacity="0.5">
<path d="M18.6084 12.6504V16.3504C18.6084 19.4704 15.6984 22.0004 12.1084 22.0004C8.5184 22.0004 5.6084 19.4704 5.6084 16.3504V12.6504C5.6084 15.7704 8.5184 18.0004 12.1084 18.0004C15.6984 18.0004 18.6084 15.7704 18.6084 12.6504Z" stroke="#000929" stroke-width="2" stroke-linecap="round" stroke-linejoin="round"/>
<path d="M18.6084 7.65C18.6084 8.56 18.3584 9.4 17.9184 10.12C16.8484 11.88 14.6484 13 12.1084 13C9.5684 13 7.3684 11.88 6.2984 10.12C5.8584 9.4 5.6084 8.56 5.6084 7.65C5.6084 6.09 6.33839 4.68 7.50839 3.66C8.68839 2.63 10.3084 2 12.1084 2C13.9084 2 15.5284 2.63 16.7084 3.65C17.8784 4.68 18.6084 6.09 18.6084 7.65Z" stroke="#000929" stroke-width="2" stroke-linecap="round" stroke-linejoin="round"/>
<path d="M18.6084 7.65V12.65C18.6084 15.77 15.6984 18 12.1084 18C8.5184 18 5.6084 15.77 5.6084 12.65V7.65C5.6084 4.53 8.5184 2 12.1084 2C13.9084 2 15.5284 2.63 16.7084 3.65C17.8784 4.68 18.6084 6.09 18.6084 7.65Z" stroke="#000929" stroke-width="2" stroke-linecap="round" stroke-linejoin="round"/>
</g>
</svg>
