<svg width="16" height="17" viewBox="0 0 16 17" fill="none" xmlns="http://www.w3.org/2000/svg">
<path fill-rule="evenodd" clip-rule="evenodd" d="M3.99961 2.14307C4.21178 2.14307 4.41527 2.22735 4.56529 2.37738C4.71532 2.52741 4.79961 2.73089 4.79961 2.94307V3.74307H5.59961C5.81178 3.74307 6.01527 3.82735 6.16529 3.97738C6.31532 4.12741 6.39961 4.33089 6.39961 4.54307C6.39961 4.75524 6.31532 4.95872 6.16529 5.10875C6.01527 5.25878 5.81178 5.34307 5.59961 5.34307H4.79961V6.14307C4.79961 6.35524 4.71532 6.55872 4.56529 6.70875C4.41527 6.85878 4.21178 6.94307 3.99961 6.94307C3.78744 6.94307 3.58395 6.85878 3.43392 6.70875C3.2839 6.55872 3.19961 6.35524 3.19961 6.14307V5.34307H2.39961C2.18744 5.34307 1.98395 5.25878 1.83392 5.10875C1.68389 4.95872 1.59961 4.75524 1.59961 4.54307C1.59961 4.33089 1.68389 4.12741 1.83392 3.97738C1.98395 3.82735 2.18744 3.74307 2.39961 3.74307H3.19961V2.94307C3.19961 2.73089 3.2839 2.52741 3.43392 2.37738C3.58395 2.22735 3.78744 2.14307 3.99961 2.14307ZM3.99961 10.1431C4.21178 10.1431 4.41527 10.2274 4.56529 10.3774C4.71532 10.5274 4.79961 10.7309 4.79961 10.9431V11.7431H5.59961C5.81178 11.7431 6.01527 11.8274 6.16529 11.9774C6.31532 12.1274 6.39961 12.3309 6.39961 12.5431C6.39961 12.7552 6.31532 12.9587 6.16529 13.1088C6.01527 13.2588 5.81178 13.3431 5.59961 13.3431H4.79961V14.1431C4.79961 14.3552 4.71532 14.5587 4.56529 14.7088C4.41527 14.8588 4.21178 14.9431 3.99961 14.9431C3.78744 14.9431 3.58395 14.8588 3.43392 14.7088C3.2839 14.5587 3.19961 14.3552 3.19961 14.1431V13.3431H2.39961C2.18744 13.3431 1.98395 13.2588 1.83392 13.1088C1.68389 12.9587 1.59961 12.7552 1.59961 12.5431C1.59961 12.3309 1.68389 12.1274 1.83392 11.9774C1.98395 11.8274 2.18744 11.7431 2.39961 11.7431H3.19961V10.9431C3.19961 10.7309 3.2839 10.5274 3.43392 10.3774C3.58395 10.2274 3.78744 10.1431 3.99961 10.1431ZM9.59961 2.14307C9.77616 2.14301 9.94777 2.20136 10.0877 2.30902C10.2276 2.41668 10.328 2.5676 10.3732 2.73827L11.3164 6.30307L13.9996 7.85027C14.1212 7.92048 14.2222 8.02147 14.2924 8.14308C14.3626 8.26469 14.3996 8.40264 14.3996 8.54307C14.3996 8.68349 14.3626 8.82144 14.2924 8.94305C14.2222 9.06466 14.1212 9.16565 13.9996 9.23587L11.3164 10.7839L10.3724 14.3479C10.3271 14.5184 10.2268 14.6691 10.0869 14.7767C9.94709 14.8842 9.77562 14.9425 9.59921 14.9425C9.4228 14.9425 9.25133 14.8842 9.11149 14.7767C8.97166 14.6691 8.87129 14.5184 8.82601 14.3479L7.88281 10.7831L5.19961 9.23587C5.078 9.16565 4.97702 9.06466 4.90681 8.94305C4.83661 8.82144 4.79964 8.68349 4.79964 8.54307C4.79964 8.40264 4.83661 8.26469 4.90681 8.14308C4.97702 8.02147 5.078 7.92048 5.19961 7.85027L7.88281 6.30227L8.82681 2.73827C8.87197 2.56773 8.97224 2.41691 9.112 2.30926C9.25177 2.20161 9.4232 2.14319 9.59961 2.14307Z" fill="#7065F0"/>
</svg>
