<svg width="48" height="52" viewBox="0 0 48 52" fill="none" xmlns="http://www.w3.org/2000/svg">
<rect width="40" height="48" rx="8" fill="#100A55"/>
<path d="M18.6667 18.333C18.3934 18.333 18.1667 18.5597 18.1667 18.833V19.833C18.1667 20.1063 18.3934 20.333 18.6667 20.333C18.94 20.333 19.1667 20.1063 19.1667 19.833V18.833C19.1667 18.5597 18.94 18.333 18.6667 18.333Z" fill="#E0DEF7"/>
<path d="M26.6666 22.1668H26V14.6535C26 14.2401 25.8133 13.8535 25.4866 13.6001L20.82 9.97348C20.34 9.59348 19.66 9.59348 19.18 9.97348L14.5133 13.6001C14.1866 13.8535 14 14.2401 14 14.6468L13.9666 22.1668H13.3333C13.06 22.1668 12.8333 22.3868 12.8333 22.6668C12.8333 22.9401 13.06 23.1668 13.3333 23.1668H26.6666C26.94 23.1668 27.1666 22.9401 27.1666 22.6668C27.1666 22.3868 26.94 22.1668 26.6666 22.1668ZM19 12.5001H21C21.2733 12.5001 21.5 12.7268 21.5 13.0001C21.5 13.2735 21.2733 13.5001 21 13.5001H19C18.7266 13.5001 18.5 13.2735 18.5 13.0001C18.5 12.7268 18.7266 12.5001 19 12.5001ZM23.3333 22.1668H16.6666V16.3335C16.6666 15.7801 17.1133 15.3335 17.6666 15.3335H22.3333C22.8866 15.3335 23.3333 15.7801 23.3333 16.3335V22.1668Z" fill="#E0DEF7"/>
<path d="M8 32H26" stroke="#E0DEF7" stroke-width="2" stroke-miterlimit="10" stroke-linecap="round" stroke-linejoin="round"/>
<path opacity="0.5" d="M8 38H18" stroke="#E0DEF7" stroke-width="2" stroke-miterlimit="10" stroke-linecap="round" stroke-linejoin="round"/>
<rect x="32" y="34" width="16" height="18" rx="3" fill="#7065F0"/>
<path d="M39.7915 46.7497C41.9777 46.7497 43.7499 44.9775 43.7499 42.7913C43.7499 40.6052 41.9777 38.833 39.7915 38.833C37.6054 38.833 35.8332 40.6052 35.8332 42.7913C35.8332 44.9775 37.6054 46.7497 39.7915 46.7497Z" stroke="white" stroke-width="1.5" stroke-linecap="round" stroke-linejoin="round"/>
<path d="M44.1665 47.1663L43.3332 46.333" stroke="white" stroke-width="1.5" stroke-linecap="round" stroke-linejoin="round"/>
</svg>
