<svg width="16" height="16" viewBox="0 0 16 16" fill="none" xmlns="http://www.w3.org/2000/svg">
<path d="M8.00004 5.25977L7.28671 6.49977C7.12671 6.7731 7.26004 6.99977 7.57337 6.99977H8.42004C8.74004 6.99977 8.86671 7.22643 8.70671 7.49977L8.00004 8.73977" stroke="#7065F0" stroke-width="1.5" stroke-linecap="round" stroke-linejoin="round"/>
<path d="M5.53332 12.0271V11.2538C3.99999 10.3271 2.73999 8.52044 2.73999 6.60044C2.73999 3.30044 5.77332 0.713776 9.19999 1.46044C10.7067 1.79378 12.0267 2.79378 12.7133 4.17378C14.1067 6.97378 12.64 9.94711 10.4867 11.2471V12.0204C10.4867 12.2138 10.56 12.6604 9.84666 12.6604H6.17332C5.43999 12.6671 5.53332 12.3804 5.53332 12.0271Z" stroke="#7065F0" stroke-width="1.5" stroke-linecap="round" stroke-linejoin="round"/>
<path d="M5.66663 14.6668C7.19329 14.2335 8.80663 14.2335 10.3333 14.6668" stroke="#7065F0" stroke-width="1.5" stroke-linecap="round" stroke-linejoin="round"/>
</svg>
