<svg width="16" height="16" viewBox="0 0 16 16" fill="none" xmlns="http://www.w3.org/2000/svg">
<path d="M2.33337 14.6663V3.33301C2.33337 1.99967 3.22671 1.33301 4.33337 1.33301H9.66671C10.7734 1.33301 11.6667 1.99967 11.6667 3.33301V14.6663H2.33337Z" stroke="#7065F0" stroke-width="1.5" stroke-linecap="round" stroke-linejoin="round"/>
<path d="M1.33337 14.667H12.6667" stroke="#7065F0" stroke-width="1.5" stroke-linecap="round" stroke-linejoin="round"/>
<path d="M5.59337 6.66714H8.41337C9.10671 6.66714 9.67337 6.33381 9.67337 5.40714V4.58715C9.67337 3.66048 9.10671 3.32715 8.41337 3.32715H5.59337C4.90004 3.32715 4.33337 3.66048 4.33337 4.58715V5.40714C4.33337 6.33381 4.90004 6.66714 5.59337 6.66714Z" stroke="#7065F0" stroke-width="1.5" stroke-linecap="round" stroke-linejoin="round"/>
<path d="M4.33337 8.66699H6.33337" stroke="#7065F0" stroke-width="1.5" stroke-linecap="round" stroke-linejoin="round"/>
<path d="M11.6666 10.6733L14.6666 10.6667V6.66667L13.3333 6" stroke="#7065F0" stroke-width="1.5" stroke-linecap="round" stroke-linejoin="round"/>
</svg>
