<svg width="180" height="90" viewBox="0 0 180 90" fill="none" xmlns="http://www.w3.org/2000/svg">
<g clip-path="url(#clip0_2680_44)">
<g opacity="0.3">
<mask id="mask0_2680_44" style="mask-type:luminance" maskUnits="userSpaceOnUse" x="0" y="0" width="180" height="90">
<g opacity="0.3">
<path d="M0 90C2.08674e-06 66.1305 9.48212 43.2387 26.3604 26.3604C43.2387 9.48212 66.1305 2.56082e-06 90 0C113.869 -2.56082e-06 136.761 9.48211 153.64 26.3604C170.518 43.2386 180 66.1305 180 90H162C162 70.9044 154.414 52.5909 140.912 39.0883C127.409 25.5857 109.096 18 90 18C70.9044 18 52.5909 25.5857 39.0883 39.0883C25.5857 52.5909 18 70.9044 18 90H0Z" fill="white"/>
</g>
</mask>
<g mask="url(#mask0_2680_44)">
<path d="M0 90C2.08674e-06 66.1305 9.48212 43.2387 26.3604 26.3604C43.2387 9.48212 66.1305 2.56082e-06 90 0C113.869 -2.56082e-06 136.761 9.48211 153.64 26.3604C170.518 43.2386 180 66.1305 180 90H162C162 70.9044 154.414 52.5909 140.912 39.0883C127.409 25.5857 109.096 18 90 18C70.9044 18 52.5909 25.5857 39.0883 39.0883C25.5857 52.5909 18 70.9044 18 90H0Z" stroke="#7065F0" stroke-width="40"/>
</g>
</g>
<mask id="mask1_2680_44" style="mask-type:luminance" maskUnits="userSpaceOnUse" x="0" y="0" width="180" height="90">
<path d="M0 90C2.08674e-06 66.1305 9.48212 43.2387 26.3604 26.3604C43.2387 9.48212 66.1305 2.56082e-06 90 0C113.869 -2.56082e-06 136.761 9.48211 153.64 26.3604C170.518 43.2386 180 66.1305 180 90H162C162 70.9044 154.414 52.5909 140.912 39.0883C127.409 25.5857 109.096 18 90 18C70.9044 18 52.5909 25.5857 39.0883 39.0883C25.5857 52.5909 18 70.9044 18 90H0Z" fill="white"/>
</mask>
<g mask="url(#mask1_2680_44)">
<path d="M0 90C2.08674e-06 66.1305 9.48212 43.2387 26.3604 26.3604C43.2387 9.48212 66.1305 2.56082e-06 90 0C113.869 -2.56082e-06 136.761 9.48211 153.64 26.3604C170.518 43.2386 180 66.1305 180 90H162C162 70.9044 154.414 52.5909 140.912 39.0883C127.409 25.5857 109.096 18 90 18C70.9044 18 52.5909 25.5857 39.0883 39.0883C25.5857 52.5909 18 70.9044 18 90H0Z" stroke="#E0DEF7" stroke-width="64"/>
</g>
<mask id="mask2_2680_44" style="mask-type:luminance" maskUnits="userSpaceOnUse" x="0" y="0" width="158" height="90">
<path d="M0 90C1.64237e-06 71.2135 5.87884 52.898 16.8124 37.6209C27.746 22.3438 43.1861 10.8711 60.9683 4.81103C78.7505 -1.24901 97.9834 -1.59256 115.971 3.82854C131.075 8.38085 144.666 16.8065 155.427 28.1996C158.84 31.8131 158.079 37.5011 154.143 40.5364C150.207 43.5717 144.592 42.7937 141.09 39.2667C132.689 30.8067 122.282 24.5303 110.777 21.0628C96.3867 16.726 81.0004 17.0008 66.7747 21.8488C52.5489 26.6969 40.1968 35.875 31.4499 48.0967C22.7031 60.3184 18 74.9708 18 90H0Z" fill="white"/>
</mask>
<g mask="url(#mask2_2680_44)">
<path d="M0 90H-32V122H0V90ZM18 90V122H50V90H18ZM32 90C32 77.8932 35.7886 66.0898 42.8347 56.2446L-9.20987 18.9972C-24.0309 39.7061 -32 64.5339 -32 90H32ZM42.8347 56.2446C49.8807 46.3993 59.831 39.0058 71.2907 35.1004L50.6459 -25.4784C26.5411 -17.2637 5.61117 -1.71177 -9.20987 18.9972L42.8347 56.2446ZM71.2907 35.1004C82.7504 31.1951 95.1449 30.9737 106.737 34.4673L125.205 -26.8102C100.822 -34.1588 74.7507 -33.6931 50.6459 -25.4784L71.2907 35.1004ZM106.737 34.4673C116.47 37.4009 125.229 42.8307 132.164 50.1729L178.69 6.22634C164.103 -9.21765 145.68 -20.6392 125.205 -26.8102L106.737 34.4673ZM163.796 16.7186C151.661 4.49886 136.629 -4.56727 120.011 -9.57592L101.543 51.7016C107.934 53.6278 113.716 57.1146 118.383 61.8148L163.796 16.7186ZM120.011 -9.57592C99.2253 -15.8403 77.0006 -15.4433 56.4523 -8.44059L77.097 52.1382C85.0002 49.4449 93.5482 49.2922 101.543 51.7016L120.011 -9.57592ZM56.4523 -8.44059C35.9039 -1.43788 18.062 11.8195 5.42766 29.473L57.4722 66.7204C62.3315 59.9306 69.1938 54.8316 77.097 52.1382L56.4523 -8.44059ZM5.42766 29.473C-7.20668 47.1265 -14 68.2912 -14 90H50C50 81.6504 52.6128 73.5102 57.4722 66.7204L5.42766 29.473ZM18 58H0V122H18V58ZM134.602 15.1959C145.34 6.91545 157.708 10.5883 163.796 16.7186L118.383 61.8148C131.475 74.9991 155.074 80.228 173.684 65.8769L134.602 15.1959ZM132.164 50.1729C121.093 38.4517 125.306 22.3646 134.602 15.1959L173.684 65.8769C190.853 52.6376 196.588 25.1746 178.69 6.22634L132.164 50.1729Z" fill="#7065F0"/>
</g>
<path d="M55.6245 89.9974L65.5445 69.8374H54.3125V66.1574H70.1205V69.8374L60.4245 89.9974H55.6245ZM82.2035 90.3814C80.3048 90.3814 78.6408 89.8694 77.2115 88.8454C75.7822 87.8214 74.6622 86.3814 73.8515 84.5254C73.0622 82.6694 72.6675 80.5147 72.6675 78.0614C72.6675 75.5867 73.0622 73.4321 73.8515 71.5974C74.6408 69.7627 75.7502 68.3334 77.1795 67.3094C78.6088 66.2854 80.2728 65.7734 82.1715 65.7734C84.1128 65.7734 85.7875 66.2854 87.1955 67.3094C88.6248 68.3334 89.7448 69.7734 90.5555 71.6294C91.3662 73.4641 91.7715 75.6081 91.7715 78.0614C91.7715 80.5147 91.3662 82.6694 90.5555 84.5254C89.7662 86.3601 88.6568 87.8001 87.2275 88.8454C85.7982 89.8694 84.1235 90.3814 82.2035 90.3814ZM82.2355 86.4134C83.3235 86.4134 84.2515 86.0827 85.0195 85.4214C85.7875 84.7387 86.3742 83.7787 86.7795 82.5414C87.2062 81.2827 87.4195 79.7894 87.4195 78.0614C87.4195 76.3334 87.2062 74.8507 86.7795 73.6134C86.3742 72.3547 85.7768 71.3947 84.9875 70.7334C84.2195 70.0721 83.2808 69.7414 82.1715 69.7414C81.1048 69.7414 80.1875 70.0721 79.4195 70.7334C78.6515 71.3947 78.0542 72.3547 77.6275 73.6134C77.2222 74.8507 77.0195 76.3334 77.0195 78.0614C77.0195 79.7681 77.2222 81.2507 77.6275 82.5094C78.0542 83.7467 78.6515 84.7067 79.4195 85.3894C80.2088 86.0721 81.1475 86.4134 82.2355 86.4134ZM98.1078 89.9974L117.435 66.1574H121.915L102.587 89.9974H98.1078ZM101.819 78.2534C100.646 78.2534 99.5798 77.9761 98.6198 77.4214C97.6811 76.8454 96.9344 76.0881 96.3798 75.1494C95.8251 74.2107 95.5478 73.1654 95.5478 72.0134C95.5478 70.8614 95.8251 69.8161 96.3798 68.8774C96.9344 67.9174 97.6811 67.1601 98.6198 66.6054C99.5798 66.0507 100.646 65.7734 101.819 65.7734C103.015 65.7734 104.081 66.0507 105.019 66.6054C105.958 67.1601 106.706 67.9174 107.26 68.8774C107.815 69.8161 108.092 70.8614 108.092 72.0134C108.092 73.1654 107.815 74.2107 107.26 75.1494C106.706 76.0881 105.958 76.8454 105.019 77.4214C104.081 77.9761 103.015 78.2534 101.819 78.2534ZM101.819 75.0214C102.459 75.0214 102.993 74.8827 103.419 74.6054C103.846 74.3067 104.166 73.9334 104.379 73.4854C104.614 73.0161 104.732 72.5254 104.732 72.0134C104.732 71.4801 104.614 70.9894 104.379 70.5414C104.166 70.0934 103.846 69.7201 103.419 69.4214C102.993 69.1227 102.459 68.9734 101.819 68.9734C101.222 68.9734 100.699 69.1227 100.251 69.4214C99.8251 69.7201 99.4944 70.1041 99.2598 70.5734C99.0251 71.0214 98.9078 71.5014 98.9078 72.0134C98.9078 72.5041 99.0251 72.9841 99.2598 73.4534C99.4944 73.9227 99.8251 74.3067 100.251 74.6054C100.699 74.8827 101.222 75.0214 101.819 75.0214ZM118.075 90.3814C116.902 90.3814 115.835 90.1041 114.875 89.5494C113.937 88.9734 113.191 88.2161 112.636 87.2774C112.082 86.3387 111.804 85.2934 111.804 84.1414C111.804 82.9894 112.082 81.9441 112.636 81.0054C113.191 80.0454 113.937 79.2881 114.875 78.7334C115.835 78.1787 116.902 77.9014 118.075 77.9014C119.27 77.9014 120.337 78.1787 121.275 78.7334C122.214 79.2881 122.962 80.0454 123.516 81.0054C124.071 81.9441 124.348 82.9894 124.348 84.1414C124.348 85.2934 124.071 86.3387 123.516 87.2774C122.962 88.2161 122.214 88.9734 121.275 89.5494C120.337 90.1041 119.27 90.3814 118.075 90.3814ZM118.075 87.1494C118.694 87.1494 119.217 87.0107 119.643 86.7334C120.091 86.4347 120.422 86.0614 120.635 85.6134C120.87 85.1441 120.988 84.6534 120.988 84.1414C120.988 83.6081 120.87 83.1174 120.635 82.6694C120.422 82.2214 120.091 81.8481 119.643 81.5494C119.217 81.2507 118.694 81.1014 118.075 81.1014C117.478 81.1014 116.956 81.2507 116.508 81.5494C116.082 81.8481 115.75 82.2321 115.515 82.7014C115.281 83.1494 115.164 83.6294 115.164 84.1414C115.164 84.6321 115.281 85.1121 115.515 85.5814C115.75 86.0507 116.082 86.4347 116.508 86.7334C116.956 87.0107 117.478 87.1494 118.075 87.1494Z" fill="white"/>
</g>
<defs>
<clipPath id="clip0_2680_44">
<rect width="180" height="90" fill="white"/>
</clipPath>
</defs>
</svg>
