<svg width="912" height="156" viewBox="0 0 912 156" fill="none" xmlns="http://www.w3.org/2000/svg">
<path d="M0 104C0 99.5817 3.58172 96 8 96H46C50.4183 96 54 99.5817 54 104V120H0V104Z" fill="#E8E6F9"/>
<path opacity="0.5" d="M16.9129 152V150.67H17.4869C17.9816 150.67 18.3736 150.525 18.6629 150.236C18.9522 149.937 19.0969 149.536 19.0969 149.032V141.57H20.4829V149.004C20.4829 149.611 20.3569 150.138 20.1049 150.586C19.8622 151.034 19.5169 151.384 19.0689 151.636C18.6209 151.879 18.0936 152 17.4869 152H16.9129ZM24.8333 152.168C24.3386 152.168 23.8999 152.079 23.5173 151.902C23.1439 151.715 22.8499 151.463 22.6353 151.146C22.4206 150.819 22.3133 150.446 22.3133 150.026C22.3133 149.625 22.3973 149.265 22.5653 148.948C22.7426 148.621 23.0133 148.346 23.3773 148.122C23.7506 147.898 24.2173 147.739 24.7773 147.646L27.5773 147.184V148.276L25.0713 148.696C24.5859 148.78 24.2313 148.934 24.0073 149.158C23.7926 149.382 23.6853 149.657 23.6853 149.984C23.6853 150.292 23.8066 150.549 24.0493 150.754C24.3013 150.959 24.6139 151.062 24.9873 151.062C25.4633 151.062 25.8739 150.964 26.2193 150.768C26.5739 150.563 26.8493 150.287 27.0453 149.942C27.2506 149.597 27.3533 149.214 27.3533 148.794V146.876C27.3533 146.465 27.1993 146.134 26.8913 145.882C26.5926 145.621 26.1959 145.49 25.7013 145.49C25.2719 145.49 24.8893 145.602 24.5533 145.826C24.2266 146.041 23.9839 146.33 23.8253 146.694L22.6913 146.106C22.8313 145.761 23.0553 145.453 23.3633 145.182C23.6713 144.902 24.0306 144.683 24.4413 144.524C24.8519 144.365 25.2813 144.286 25.7293 144.286C26.3079 144.286 26.8166 144.398 27.2553 144.622C27.6939 144.837 28.0346 145.14 28.2773 145.532C28.5293 145.915 28.6553 146.363 28.6553 146.876V152H27.3813V150.572L27.6193 150.656C27.4606 150.955 27.2459 151.216 26.9753 151.44C26.7046 151.664 26.3873 151.841 26.0233 151.972C25.6593 152.103 25.2626 152.168 24.8333 152.168ZM30.674 152V144.454H31.948V145.924L31.738 145.798C31.9247 145.322 32.2233 144.953 32.634 144.692C33.054 144.421 33.544 144.286 34.104 144.286C34.6453 144.286 35.126 144.407 35.546 144.65C35.9753 144.893 36.3113 145.229 36.554 145.658C36.806 146.087 36.932 146.573 36.932 147.114V152H35.616V147.534C35.616 147.114 35.5413 146.759 35.392 146.47C35.2427 146.181 35.028 145.957 34.748 145.798C34.4773 145.63 34.1647 145.546 33.81 145.546C33.4553 145.546 33.138 145.63 32.858 145.798C32.5873 145.957 32.3727 146.185 32.214 146.484C32.0553 146.773 31.976 147.123 31.976 147.534V152H30.674Z" fill="#000929"/>
<path d="M78 48C78 43.5817 81.5817 40 86 40H124C128.418 40 132 43.5817 132 48V120H78V48Z" fill="#E8E6F9"/>
<path opacity="0.5" d="M93.2147 152V141.57H99.8227V142.83H94.5867V146.204H99.3327V147.464H94.5867V152H93.2147ZM104.462 152.168C103.734 152.168 103.086 151.995 102.516 151.65C101.947 151.305 101.499 150.833 101.172 150.236C100.846 149.629 100.682 148.953 100.682 148.206C100.682 147.45 100.841 146.778 101.158 146.19C101.485 145.602 101.924 145.14 102.474 144.804C103.034 144.459 103.66 144.286 104.35 144.286C104.91 144.286 105.405 144.389 105.834 144.594C106.273 144.79 106.642 145.061 106.94 145.406C107.248 145.742 107.482 146.129 107.64 146.568C107.808 146.997 107.892 147.445 107.892 147.912C107.892 148.015 107.883 148.131 107.864 148.262C107.855 148.383 107.841 148.5 107.822 148.612H101.634V147.492H107.066L106.45 147.996C106.534 147.511 106.488 147.077 106.31 146.694C106.133 146.311 105.872 146.008 105.526 145.784C105.181 145.56 104.789 145.448 104.35 145.448C103.912 145.448 103.51 145.56 103.146 145.784C102.782 146.008 102.498 146.33 102.292 146.75C102.096 147.161 102.017 147.651 102.054 148.22C102.017 148.771 102.101 149.256 102.306 149.676C102.521 150.087 102.82 150.409 103.202 150.642C103.594 150.866 104.019 150.978 104.476 150.978C104.98 150.978 105.405 150.861 105.75 150.628C106.096 150.395 106.376 150.096 106.59 149.732L107.682 150.292C107.533 150.637 107.3 150.955 106.982 151.244C106.674 151.524 106.306 151.748 105.876 151.916C105.456 152.084 104.985 152.168 104.462 152.168ZM113.496 152.168C112.889 152.168 112.334 152.033 111.83 151.762C111.335 151.491 110.953 151.109 110.682 150.614L110.864 150.39V152H109.59V141.402H110.892V146.078L110.696 145.756C110.976 145.308 111.359 144.953 111.844 144.692C112.329 144.421 112.885 144.286 113.51 144.286C114.219 144.286 114.854 144.459 115.414 144.804C115.983 145.149 116.431 145.621 116.758 146.218C117.085 146.806 117.248 147.478 117.248 148.234C117.248 148.971 117.085 149.639 116.758 150.236C116.431 150.833 115.983 151.305 115.414 151.65C114.854 151.995 114.215 152.168 113.496 152.168ZM113.398 150.908C113.874 150.908 114.299 150.791 114.672 150.558C115.045 150.325 115.335 150.007 115.54 149.606C115.755 149.195 115.862 148.738 115.862 148.234C115.862 147.711 115.755 147.254 115.54 146.862C115.335 146.461 115.045 146.143 114.672 145.91C114.299 145.667 113.874 145.546 113.398 145.546C112.922 145.546 112.493 145.663 112.11 145.896C111.737 146.129 111.438 146.451 111.214 146.862C110.999 147.263 110.892 147.721 110.892 148.234C110.892 148.738 110.999 149.195 111.214 149.606C111.438 150.007 111.737 150.325 112.11 150.558C112.493 150.791 112.922 150.908 113.398 150.908Z" fill="#000929"/>
<path d="M156 8C156 3.58172 159.582 0 164 0H202C206.418 0 210 3.58172 210 8V120H156V8Z" fill="#E8E6F9"/>
<path opacity="0.5" d="M171.7 152V141.57H172.96L176.866 147.128H176.222L180.1 141.57H181.36V152H179.974V143.306L180.464 143.46L176.586 148.92H176.474L172.638 143.46L173.072 143.306V152H171.7ZM185.735 152.168C185.24 152.168 184.801 152.079 184.419 151.902C184.045 151.715 183.751 151.463 183.537 151.146C183.322 150.819 183.215 150.446 183.215 150.026C183.215 149.625 183.299 149.265 183.467 148.948C183.644 148.621 183.915 148.346 184.279 148.122C184.652 147.898 185.119 147.739 185.679 147.646L188.479 147.184V148.276L185.973 148.696C185.487 148.78 185.133 148.934 184.909 149.158C184.694 149.382 184.587 149.657 184.587 149.984C184.587 150.292 184.708 150.549 184.951 150.754C185.203 150.959 185.515 151.062 185.889 151.062C186.365 151.062 186.775 150.964 187.121 150.768C187.475 150.563 187.751 150.287 187.947 149.942C188.152 149.597 188.255 149.214 188.255 148.794V146.876C188.255 146.465 188.101 146.134 187.793 145.882C187.494 145.621 187.097 145.49 186.603 145.49C186.173 145.49 185.791 145.602 185.455 145.826C185.128 146.041 184.885 146.33 184.727 146.694L183.593 146.106C183.733 145.761 183.957 145.453 184.265 145.182C184.573 144.902 184.932 144.683 185.343 144.524C185.753 144.365 186.183 144.286 186.631 144.286C187.209 144.286 187.718 144.398 188.157 144.622C188.595 144.837 188.936 145.14 189.179 145.532C189.431 145.915 189.557 146.363 189.557 146.876V152H188.283V150.572L188.521 150.656C188.362 150.955 188.147 151.216 187.877 151.44C187.606 151.664 187.289 151.841 186.925 151.972C186.561 152.103 186.164 152.168 185.735 152.168ZM191.575 152V144.454H192.849V145.84L192.709 145.644C192.887 145.215 193.157 144.897 193.521 144.692C193.885 144.477 194.329 144.37 194.851 144.37H195.313V145.602H194.655C194.123 145.602 193.694 145.77 193.367 146.106C193.041 146.433 192.877 146.899 192.877 147.506V152H191.575Z" fill="#000929"/>
<path d="M234 72C234 67.5817 237.582 64 242 64H280C284.418 64 288 67.5817 288 72V120H234V72Z" fill="#E8E6F9"/>
<path opacity="0.5" d="M249.321 152L253.059 141.57H254.683L258.421 152H256.951L256.097 149.55H251.645L250.791 152H249.321ZM252.079 148.29H255.663L253.675 142.564H254.067L252.079 148.29ZM259.581 154.8V144.454H260.855V146.078L260.687 145.756C260.967 145.308 261.35 144.953 261.835 144.692C262.321 144.421 262.876 144.286 263.501 144.286C264.211 144.286 264.845 144.459 265.405 144.804C265.975 145.149 266.423 145.621 266.749 146.218C267.076 146.806 267.239 147.478 267.239 148.234C267.239 148.971 267.076 149.639 266.749 150.236C266.423 150.833 265.975 151.305 265.405 151.65C264.845 151.995 264.206 152.168 263.487 152.168C262.881 152.168 262.325 152.033 261.821 151.762C261.327 151.491 260.944 151.109 260.673 150.614L260.883 150.39V154.8H259.581ZM263.389 150.908C263.865 150.908 264.29 150.791 264.663 150.558C265.037 150.325 265.326 150.007 265.531 149.606C265.746 149.195 265.853 148.738 265.853 148.234C265.853 147.711 265.746 147.254 265.531 146.862C265.326 146.461 265.037 146.143 264.663 145.91C264.29 145.667 263.865 145.546 263.389 145.546C262.913 145.546 262.484 145.663 262.101 145.896C261.728 146.129 261.429 146.451 261.205 146.862C260.991 147.263 260.883 147.721 260.883 148.234C260.883 148.738 260.991 149.195 261.205 149.606C261.429 150.007 261.728 150.325 262.101 150.558C262.484 150.791 262.913 150.908 263.389 150.908ZM268.946 152V144.454H270.22V145.84L270.08 145.644C270.258 145.215 270.528 144.897 270.892 144.692C271.256 144.477 271.7 144.37 272.222 144.37H272.684V145.602H272.026C271.494 145.602 271.065 145.77 270.738 146.106C270.412 146.433 270.248 146.899 270.248 147.506V152H268.946Z" fill="#000929"/>
<path d="M312 112C312 107.582 315.582 104 320 104H358C362.418 104 366 107.582 366 112V120H312V112Z" fill="#E8E6F9"/>
<path opacity="0.5" d="M326.278 152V141.57H327.538L331.444 147.128H330.8L334.678 141.57H335.938V152H334.552V143.306L335.042 143.46L331.164 148.92H331.052L327.216 143.46L327.65 143.306V152H326.278ZM340.313 152.168C339.818 152.168 339.379 152.079 338.997 151.902C338.623 151.715 338.329 151.463 338.115 151.146C337.9 150.819 337.793 150.446 337.793 150.026C337.793 149.625 337.877 149.265 338.045 148.948C338.222 148.621 338.493 148.346 338.857 148.122C339.23 147.898 339.697 147.739 340.257 147.646L343.057 147.184V148.276L340.551 148.696C340.065 148.78 339.711 148.934 339.487 149.158C339.272 149.382 339.165 149.657 339.165 149.984C339.165 150.292 339.286 150.549 339.529 150.754C339.781 150.959 340.093 151.062 340.467 151.062C340.943 151.062 341.353 150.964 341.699 150.768C342.053 150.563 342.329 150.287 342.525 149.942C342.73 149.597 342.833 149.214 342.833 148.794V146.876C342.833 146.465 342.679 146.134 342.371 145.882C342.072 145.621 341.675 145.49 341.181 145.49C340.751 145.49 340.369 145.602 340.033 145.826C339.706 146.041 339.463 146.33 339.305 146.694L338.171 146.106C338.311 145.761 338.535 145.453 338.843 145.182C339.151 144.902 339.51 144.683 339.921 144.524C340.331 144.365 340.761 144.286 341.209 144.286C341.787 144.286 342.296 144.398 342.735 144.622C343.173 144.837 343.514 145.14 343.757 145.532C344.009 145.915 344.135 146.363 344.135 146.876V152H342.861V150.572L343.099 150.656C342.94 150.955 342.725 151.216 342.455 151.44C342.184 151.664 341.867 151.841 341.503 151.972C341.139 152.103 340.742 152.168 340.313 152.168ZM346.56 155.08C346.392 155.08 346.224 155.066 346.056 155.038C345.888 155.019 345.729 154.977 345.58 154.912V153.75C345.682 153.759 345.808 153.778 345.958 153.806C346.116 153.834 346.27 153.848 346.42 153.848C346.858 153.848 347.19 153.75 347.414 153.554C347.647 153.358 347.866 153.027 348.072 152.56L348.548 151.426L348.52 152.56L345.3 144.454H346.714L349.22 150.894H348.8L351.292 144.454H352.734L349.332 152.896C349.173 153.297 348.968 153.666 348.716 154.002C348.473 154.338 348.174 154.599 347.82 154.786C347.465 154.982 347.045 155.08 346.56 155.08Z" fill="#000929"/>
<path d="M390 58C390 53.5817 393.582 50 398 50H436C440.418 50 444 53.5817 444 58V120H390V58Z" fill="#E8E6F9"/>
<path opacity="0.5" d="M406.879 152V150.67H407.453C407.947 150.67 408.339 150.525 408.629 150.236C408.918 149.937 409.063 149.536 409.063 149.032V141.57H410.449V149.004C410.449 149.611 410.323 150.138 410.071 150.586C409.828 151.034 409.483 151.384 409.035 151.636C408.587 151.879 408.059 152 407.453 152H406.879ZM415.261 152.168C414.72 152.168 414.23 152.042 413.791 151.79C413.362 151.538 413.026 151.188 412.783 150.74C412.55 150.283 412.433 149.76 412.433 149.172V144.454H413.735V149.032C413.735 149.405 413.81 149.732 413.959 150.012C414.118 150.292 414.332 150.511 414.603 150.67C414.883 150.829 415.2 150.908 415.555 150.908C415.91 150.908 416.222 150.829 416.493 150.67C416.773 150.511 416.988 150.283 417.137 149.984C417.296 149.685 417.375 149.331 417.375 148.92V144.454H418.691V152H417.417V150.53L417.627 150.656C417.45 151.132 417.146 151.505 416.717 151.776C416.297 152.037 415.812 152.168 415.261 152.168ZM420.708 152V144.454H421.982V145.924L421.772 145.798C421.959 145.322 422.258 144.953 422.668 144.692C423.088 144.421 423.578 144.286 424.138 144.286C424.68 144.286 425.16 144.407 425.58 144.65C426.01 144.893 426.346 145.229 426.588 145.658C426.84 146.087 426.966 146.573 426.966 147.114V152H425.65V147.534C425.65 147.114 425.576 146.759 425.426 146.47C425.277 146.181 425.062 145.957 424.782 145.798C424.512 145.63 424.199 145.546 423.844 145.546C423.49 145.546 423.172 145.63 422.892 145.798C422.622 145.957 422.407 146.185 422.248 146.484C422.09 146.773 422.01 147.123 422.01 147.534V152H420.708Z" fill="#000929"/>
<path d="M468 34C468 29.5817 471.582 26 476 26H514C518.418 26 522 29.5817 522 34V120H468V34Z" fill="#E8E6F9"/>
<path opacity="0.5" d="M487.278 152V150.67H487.852C488.347 150.67 488.739 150.525 489.028 150.236C489.317 149.937 489.462 149.536 489.462 149.032V141.57H490.848V149.004C490.848 149.611 490.722 150.138 490.47 150.586C490.227 151.034 489.882 151.384 489.434 151.636C488.986 151.879 488.459 152 487.852 152H487.278ZM495.661 152.168C495.119 152.168 494.629 152.042 494.191 151.79C493.761 151.538 493.425 151.188 493.183 150.74C492.949 150.283 492.833 149.76 492.833 149.172V144.454H494.135V149.032C494.135 149.405 494.209 149.732 494.359 150.012C494.517 150.292 494.732 150.511 495.003 150.67C495.283 150.829 495.6 150.908 495.955 150.908C496.309 150.908 496.622 150.829 496.893 150.67C497.173 150.511 497.387 150.283 497.537 149.984C497.695 149.685 497.775 149.331 497.775 148.92V144.454H499.091V152H497.817V150.53L498.027 150.656C497.849 151.132 497.546 151.505 497.117 151.776C496.697 152.037 496.211 152.168 495.661 152.168ZM501.108 152V141.402H502.41V152H501.108Z" fill="#000929"/>
<path d="M546 58C546 53.5817 549.582 50 554 50H592C596.418 50 600 53.5817 600 58V120H546V58Z" fill="#E8E6F9"/>
<path opacity="0.5" d="M559.844 152L563.582 141.57H565.206L568.944 152H567.474L566.62 149.55H562.168L561.314 152H559.844ZM562.602 148.29H566.186L564.198 142.564H564.59L562.602 148.29ZM572.642 152.168C572.101 152.168 571.611 152.042 571.172 151.79C570.743 151.538 570.407 151.188 570.164 150.74C569.931 150.283 569.814 149.76 569.814 149.172V144.454H571.116V149.032C571.116 149.405 571.191 149.732 571.34 150.012C571.499 150.292 571.713 150.511 571.984 150.67C572.264 150.829 572.581 150.908 572.936 150.908C573.291 150.908 573.603 150.829 573.874 150.67C574.154 150.511 574.369 150.283 574.518 149.984C574.677 149.685 574.756 149.331 574.756 148.92V144.454H576.072V152H574.798V150.53L575.008 150.656C574.831 151.132 574.527 151.505 574.098 151.776C573.678 152.037 573.193 152.168 572.642 152.168ZM581.687 155.08C581.155 155.08 580.66 154.996 580.203 154.828C579.755 154.66 579.368 154.427 579.041 154.128C578.724 153.839 578.481 153.498 578.313 153.106L579.531 152.546C579.662 152.901 579.909 153.199 580.273 153.442C580.646 153.694 581.113 153.82 581.673 153.82C582.102 153.82 582.49 153.736 582.835 153.568C583.19 153.409 583.47 153.167 583.675 152.84C583.88 152.523 583.983 152.135 583.983 151.678V149.984L584.221 150.236C583.96 150.749 583.582 151.141 583.087 151.412C582.602 151.683 582.065 151.818 581.477 151.818C580.768 151.818 580.133 151.655 579.573 151.328C579.013 150.992 578.574 150.539 578.257 149.97C577.94 149.391 577.781 148.752 577.781 148.052C577.781 147.343 577.94 146.703 578.257 146.134C578.574 145.565 579.008 145.117 579.559 144.79C580.119 144.454 580.754 144.286 581.463 144.286C582.051 144.286 582.583 144.421 583.059 144.692C583.544 144.953 583.932 145.317 584.221 145.784L584.025 146.134V144.454H585.299V151.678C585.299 152.331 585.145 152.915 584.837 153.428C584.529 153.941 584.1 154.343 583.549 154.632C583.008 154.931 582.387 155.08 581.687 155.08ZM581.589 150.558C582.037 150.558 582.438 150.446 582.793 150.222C583.157 149.998 583.446 149.699 583.661 149.326C583.876 148.943 583.983 148.519 583.983 148.052C583.983 147.595 583.876 147.175 583.661 146.792C583.446 146.409 583.157 146.106 582.793 145.882C582.438 145.658 582.037 145.546 581.589 145.546C581.132 145.546 580.716 145.658 580.343 145.882C579.97 146.106 579.676 146.409 579.461 146.792C579.256 147.165 579.153 147.585 579.153 148.052C579.153 148.519 579.256 148.943 579.461 149.326C579.676 149.699 579.965 149.998 580.329 150.222C580.702 150.446 581.122 150.558 581.589 150.558Z" fill="#000929"/>
<path d="M624.316 115.305C624.144 110.77 627.773 107 632.311 107H650.752L670.112 107.272C674.486 107.333 678 110.896 678 115.271V120H624.495L624.316 115.305Z" fill="#7065F0"/>
<path d="M642.238 152.168C641.576 152.168 640.969 152.047 640.418 151.804C639.868 151.552 639.401 151.211 639.018 150.782C638.636 150.353 638.36 149.872 638.192 149.34L639.382 148.85C639.634 149.522 640.008 150.04 640.502 150.404C641.006 150.759 641.594 150.936 642.266 150.936C642.677 150.936 643.036 150.871 643.344 150.74C643.652 150.609 643.89 150.427 644.058 150.194C644.236 149.951 644.324 149.671 644.324 149.354C644.324 148.915 644.198 148.57 643.946 148.318C643.704 148.057 643.344 147.861 642.868 147.73L640.95 147.142C640.194 146.909 639.616 146.54 639.214 146.036C638.813 145.532 638.612 144.953 638.612 144.3C638.612 143.731 638.748 143.231 639.018 142.802C639.298 142.363 639.681 142.023 640.166 141.78C640.661 141.528 641.221 141.402 641.846 141.402C642.472 141.402 643.036 141.514 643.54 141.738C644.054 141.962 644.488 142.265 644.842 142.648C645.197 143.021 645.458 143.451 645.626 143.936L644.45 144.426C644.226 143.838 643.89 143.395 643.442 143.096C642.994 142.788 642.467 142.634 641.86 142.634C641.487 142.634 641.156 142.699 640.866 142.83C640.586 142.951 640.367 143.133 640.208 143.376C640.059 143.609 639.984 143.889 639.984 144.216C639.984 144.599 640.106 144.939 640.348 145.238C640.591 145.537 640.96 145.765 641.454 145.924L643.204 146.442C644.026 146.694 644.646 147.053 645.066 147.52C645.486 147.987 645.696 148.565 645.696 149.256C645.696 149.825 645.547 150.329 645.248 150.768C644.959 151.207 644.553 151.552 644.03 151.804C643.517 152.047 642.92 152.168 642.238 152.168ZM651.023 152.168C650.295 152.168 649.646 151.995 649.077 151.65C648.508 151.305 648.06 150.833 647.733 150.236C647.406 149.629 647.243 148.953 647.243 148.206C647.243 147.45 647.402 146.778 647.719 146.19C648.046 145.602 648.484 145.14 649.035 144.804C649.595 144.459 650.22 144.286 650.911 144.286C651.471 144.286 651.966 144.389 652.395 144.594C652.834 144.79 653.202 145.061 653.501 145.406C653.809 145.742 654.042 146.129 654.201 146.568C654.369 146.997 654.453 147.445 654.453 147.912C654.453 148.015 654.444 148.131 654.425 148.262C654.416 148.383 654.402 148.5 654.383 148.612H648.195V147.492H653.627L653.011 147.996C653.095 147.511 653.048 147.077 652.871 146.694C652.694 146.311 652.432 146.008 652.087 145.784C651.742 145.56 651.35 145.448 650.911 145.448C650.472 145.448 650.071 145.56 649.707 145.784C649.343 146.008 649.058 146.33 648.853 146.75C648.657 147.161 648.578 147.651 648.615 148.22C648.578 148.771 648.662 149.256 648.867 149.676C649.082 150.087 649.38 150.409 649.763 150.642C650.155 150.866 650.58 150.978 651.037 150.978C651.541 150.978 651.966 150.861 652.311 150.628C652.656 150.395 652.936 150.096 653.151 149.732L654.243 150.292C654.094 150.637 653.86 150.955 653.543 151.244C653.235 151.524 652.866 151.748 652.437 151.916C652.017 152.084 651.546 152.168 651.023 152.168ZM656.151 154.8V144.454H657.425V146.078L657.257 145.756C657.537 145.308 657.919 144.953 658.405 144.692C658.89 144.421 659.445 144.286 660.071 144.286C660.78 144.286 661.415 144.459 661.975 144.804C662.544 145.149 662.992 145.621 663.319 146.218C663.645 146.806 663.809 147.478 663.809 148.234C663.809 148.971 663.645 149.639 663.319 150.236C662.992 150.833 662.544 151.305 661.975 151.65C661.415 151.995 660.775 152.168 660.057 152.168C659.45 152.168 658.895 152.033 658.391 151.762C657.896 151.491 657.513 151.109 657.243 150.614L657.453 150.39V154.8H656.151ZM659.959 150.908C660.435 150.908 660.859 150.791 661.233 150.558C661.606 150.325 661.895 150.007 662.101 149.606C662.315 149.195 662.423 148.738 662.423 148.234C662.423 147.711 662.315 147.254 662.101 146.862C661.895 146.461 661.606 146.143 661.233 145.91C660.859 145.667 660.435 145.546 659.959 145.546C659.483 145.546 659.053 145.663 658.671 145.896C658.297 146.129 657.999 146.451 657.775 146.862C657.56 147.263 657.453 147.721 657.453 148.234C657.453 148.738 657.56 149.195 657.775 149.606C657.999 150.007 658.297 150.325 658.671 150.558C659.053 150.791 659.483 150.908 659.959 150.908Z" fill="#000929"/>
<path d="M702 10C702 5.58172 705.582 2 710 2H748C752.418 2 756 5.58172 756 10V120H702V10Z" fill="#E8E6F9"/>
<path opacity="0.5" d="M722.007 152.168C721.27 152.168 720.579 152.037 719.935 151.776C719.291 151.505 718.727 151.127 718.241 150.642C717.765 150.157 717.392 149.587 717.121 148.934C716.851 148.271 716.715 147.553 716.715 146.778C716.715 145.994 716.851 145.275 717.121 144.622C717.392 143.969 717.765 143.399 718.241 142.914C718.727 142.429 719.287 142.055 719.921 141.794C720.565 141.533 721.261 141.402 722.007 141.402C722.754 141.402 723.445 141.537 724.079 141.808C724.723 142.069 725.283 142.443 725.759 142.928C726.245 143.404 726.623 143.969 726.893 144.622C727.173 145.275 727.313 145.994 727.313 146.778C727.313 147.553 727.173 148.271 726.893 148.934C726.623 149.587 726.245 150.157 725.759 150.642C725.283 151.127 724.723 151.505 724.079 151.776C723.445 152.037 722.754 152.168 722.007 152.168ZM722.007 150.894C722.586 150.894 723.113 150.791 723.589 150.586C724.065 150.371 724.476 150.077 724.821 149.704C725.176 149.321 725.447 148.883 725.633 148.388C725.829 147.884 725.927 147.347 725.927 146.778C725.927 146.209 725.829 145.677 725.633 145.182C725.447 144.687 725.176 144.253 724.821 143.88C724.476 143.497 724.065 143.203 723.589 142.998C723.113 142.783 722.586 142.676 722.007 142.676C721.438 142.676 720.915 142.783 720.439 142.998C719.963 143.203 719.548 143.497 719.193 143.88C718.848 144.253 718.577 144.687 718.381 145.182C718.185 145.677 718.087 146.209 718.087 146.778C718.087 147.347 718.185 147.884 718.381 148.388C718.577 148.883 718.848 149.321 719.193 149.704C719.548 150.077 719.963 150.371 720.439 150.586C720.915 150.791 721.438 150.894 722.007 150.894ZM732.66 152.168C731.923 152.168 731.265 151.995 730.686 151.65C730.117 151.305 729.669 150.833 729.342 150.236C729.016 149.639 728.852 148.967 728.852 148.22C728.852 147.464 729.016 146.792 729.342 146.204C729.669 145.616 730.117 145.149 730.686 144.804C731.265 144.459 731.923 144.286 732.66 144.286C733.155 144.286 733.617 144.375 734.046 144.552C734.476 144.729 734.854 144.967 735.18 145.266C735.507 145.565 735.745 145.915 735.894 146.316L734.732 146.876C734.555 146.484 734.284 146.167 733.92 145.924C733.556 145.672 733.136 145.546 732.66 145.546C732.203 145.546 731.788 145.663 731.414 145.896C731.05 146.129 730.761 146.447 730.546 146.848C730.332 147.249 730.224 147.711 730.224 148.234C730.224 148.738 730.332 149.195 730.546 149.606C730.761 150.007 731.05 150.325 731.414 150.558C731.788 150.791 732.203 150.908 732.66 150.908C733.136 150.908 733.556 150.787 733.92 150.544C734.284 150.292 734.555 149.961 734.732 149.55L735.894 150.138C735.745 150.53 735.507 150.88 735.18 151.188C734.854 151.487 734.476 151.725 734.046 151.902C733.617 152.079 733.155 152.168 732.66 152.168ZM740.662 152.084C739.925 152.084 739.355 151.874 738.954 151.454C738.562 151.034 738.366 150.441 738.366 149.676V145.7H736.994V144.454H737.274C737.61 144.454 737.876 144.351 738.072 144.146C738.268 143.941 738.366 143.67 738.366 143.334V142.718H739.668V144.454H741.362V145.7H739.668V149.634C739.668 149.886 739.705 150.105 739.78 150.292C739.864 150.479 739.999 150.628 740.186 150.74C740.373 150.843 740.62 150.894 740.928 150.894C740.993 150.894 741.073 150.889 741.166 150.88C741.269 150.871 741.362 150.861 741.446 150.852V152C741.325 152.028 741.189 152.047 741.04 152.056C740.891 152.075 740.765 152.084 740.662 152.084Z" fill="#000929"/>
<path d="M780 82C780 77.5817 783.582 74 788 74H826C830.418 74 834 77.5817 834 82V120H780V82Z" fill="#E8E6F9"/>
<path opacity="0.5" d="M794.75 152V141.57H795.898L801.89 149.998L801.372 150.054V141.57H802.758V152H801.61L795.646 143.516L796.122 143.46V152H794.75ZM808.516 152.168C807.788 152.168 807.13 152 806.542 151.664C805.954 151.319 805.487 150.847 805.142 150.25C804.796 149.653 804.624 148.976 804.624 148.22C804.624 147.464 804.792 146.792 805.128 146.204C805.473 145.616 805.94 145.149 806.528 144.804C807.116 144.459 807.778 144.286 808.516 144.286C809.244 144.286 809.902 144.459 810.49 144.804C811.078 145.14 811.54 145.602 811.876 146.19C812.221 146.778 812.394 147.455 812.394 148.22C812.394 148.985 812.216 149.667 811.862 150.264C811.507 150.852 811.036 151.319 810.448 151.664C809.869 152 809.225 152.168 808.516 152.168ZM808.516 150.908C808.982 150.908 809.402 150.791 809.776 150.558C810.158 150.325 810.457 150.003 810.672 149.592C810.896 149.181 811.008 148.724 811.008 148.22C811.008 147.707 810.896 147.254 810.672 146.862C810.457 146.461 810.158 146.143 809.776 145.91C809.402 145.667 808.982 145.546 808.516 145.546C808.04 145.546 807.61 145.667 807.228 145.91C806.854 146.143 806.556 146.461 806.332 146.862C806.108 147.254 805.996 147.707 805.996 148.22C805.996 148.724 806.108 149.181 806.332 149.592C806.556 150.003 806.854 150.325 807.228 150.558C807.61 150.791 808.04 150.908 808.516 150.908ZM816.055 152L813.101 144.454H814.557L816.923 150.838H816.419L818.799 144.454H820.255L817.287 152H816.055Z" fill="#000929"/>
<path d="M858 34C858 29.5817 861.582 26 866 26H904C908.418 26 912 29.5817 912 34V120H858V34Z" fill="#E8E6F9"/>
<path opacity="0.5" d="M872.456 152V141.57H875.872C876.927 141.57 877.846 141.785 878.63 142.214C879.414 142.643 880.021 143.25 880.45 144.034C880.879 144.809 881.094 145.723 881.094 146.778C881.094 147.823 880.879 148.738 880.45 149.522C880.021 150.306 879.414 150.917 878.63 151.356C877.846 151.785 876.927 152 875.872 152H872.456ZM873.828 150.74H875.886C876.661 150.74 877.328 150.577 877.888 150.25C878.457 149.923 878.896 149.466 879.204 148.878C879.512 148.281 879.666 147.581 879.666 146.778C879.666 145.966 879.507 145.266 879.19 144.678C878.882 144.09 878.443 143.637 877.874 143.32C877.314 142.993 876.651 142.83 875.886 142.83H873.828V150.74ZM886.151 152.168C885.423 152.168 884.774 151.995 884.205 151.65C883.636 151.305 883.188 150.833 882.861 150.236C882.534 149.629 882.371 148.953 882.371 148.206C882.371 147.45 882.53 146.778 882.847 146.19C883.174 145.602 883.612 145.14 884.163 144.804C884.723 144.459 885.348 144.286 886.039 144.286C886.599 144.286 887.094 144.389 887.523 144.594C887.962 144.79 888.33 145.061 888.629 145.406C888.937 145.742 889.17 146.129 889.329 146.568C889.497 146.997 889.581 147.445 889.581 147.912C889.581 148.015 889.572 148.131 889.553 148.262C889.544 148.383 889.53 148.5 889.511 148.612H883.323V147.492H888.755L888.139 147.996C888.223 147.511 888.176 147.077 887.999 146.694C887.822 146.311 887.56 146.008 887.215 145.784C886.87 145.56 886.478 145.448 886.039 145.448C885.6 145.448 885.199 145.56 884.835 145.784C884.471 146.008 884.186 146.33 883.981 146.75C883.785 147.161 883.706 147.651 883.743 148.22C883.706 148.771 883.79 149.256 883.995 149.676C884.21 150.087 884.508 150.409 884.891 150.642C885.283 150.866 885.708 150.978 886.165 150.978C886.669 150.978 887.094 150.861 887.439 150.628C887.784 150.395 888.064 150.096 888.279 149.732L889.371 150.292C889.222 150.637 888.988 150.955 888.671 151.244C888.363 151.524 887.994 151.748 887.565 151.916C887.145 152.084 886.674 152.168 886.151 152.168ZM894.779 152.168C894.041 152.168 893.383 151.995 892.805 151.65C892.235 151.305 891.787 150.833 891.461 150.236C891.134 149.639 890.971 148.967 890.971 148.22C890.971 147.464 891.134 146.792 891.461 146.204C891.787 145.616 892.235 145.149 892.805 144.804C893.383 144.459 894.041 144.286 894.779 144.286C895.273 144.286 895.735 144.375 896.165 144.552C896.594 144.729 896.972 144.967 897.299 145.266C897.625 145.565 897.863 145.915 898.013 146.316L896.851 146.876C896.673 146.484 896.403 146.167 896.039 145.924C895.675 145.672 895.255 145.546 894.779 145.546C894.321 145.546 893.906 145.663 893.533 145.896C893.169 146.129 892.879 146.447 892.665 146.848C892.45 147.249 892.343 147.711 892.343 148.234C892.343 148.738 892.45 149.195 892.665 149.606C892.879 150.007 893.169 150.325 893.533 150.558C893.906 150.791 894.321 150.908 894.779 150.908C895.255 150.908 895.675 150.787 896.039 150.544C896.403 150.292 896.673 149.961 896.851 149.55L898.013 150.138C897.863 150.53 897.625 150.88 897.299 151.188C896.972 151.487 896.594 151.725 896.165 151.902C895.735 152.079 895.273 152.168 894.779 152.168Z" fill="#000929"/>
</svg>
