<svg width="1279" height="240" viewBox="0 0 1279 240" fill="none" xmlns="http://www.w3.org/2000/svg">
<path opacity="0.5" d="M23.328 235V223.08H24.64L31.488 232.712L30.896 232.776V223.08H32.48V235H31.168L24.352 225.304L24.896 225.24V235H23.328ZM39.0605 235.192C38.2285 235.192 37.4765 235 36.8045 234.616C36.1325 234.221 35.5992 233.683 35.2045 233C34.8098 232.317 34.6125 231.544 34.6125 230.68C34.6125 229.816 34.8045 229.048 35.1885 228.376C35.5832 227.704 36.1165 227.171 36.7885 226.776C37.4605 226.381 38.2178 226.184 39.0605 226.184C39.8925 226.184 40.6445 226.381 41.3165 226.776C41.9885 227.16 42.5165 227.688 42.9005 228.36C43.2952 229.032 43.4925 229.805 43.4925 230.68C43.4925 231.555 43.2898 232.333 42.8845 233.016C42.4792 233.688 41.9405 234.221 41.2685 234.616C40.6072 235 39.8712 235.192 39.0605 235.192ZM39.0605 233.752C39.5938 233.752 40.0738 233.619 40.5005 233.352C40.9378 233.085 41.2792 232.717 41.5245 232.248C41.7805 231.779 41.9085 231.256 41.9085 230.68C41.9085 230.093 41.7805 229.576 41.5245 229.128C41.2792 228.669 40.9378 228.307 40.5005 228.04C40.0738 227.763 39.5938 227.624 39.0605 227.624C38.5165 227.624 38.0258 227.763 37.5885 228.04C37.1618 228.307 36.8205 228.669 36.5645 229.128C36.3085 229.576 36.1805 230.093 36.1805 230.68C36.1805 231.256 36.3085 231.779 36.5645 232.248C36.8205 232.717 37.1618 233.085 37.5885 233.352C38.0258 233.619 38.5165 233.752 39.0605 233.752ZM47.677 235L44.301 226.376H45.965L48.669 233.672H48.093L50.813 226.376H52.477L49.085 235H47.677ZM58.2699 235V224.44H56.0139V223.08H59.8539V235H58.2699Z" fill="#000929"/>
<path opacity="0.5" d="M133.328 235V223.08H134.64L141.488 232.712L140.896 232.776V223.08H142.48V235H141.168L134.352 225.304L134.896 225.24V235H133.328ZM149.061 235.192C148.229 235.192 147.477 235 146.805 234.616C146.133 234.221 145.599 233.683 145.205 233C144.81 232.317 144.613 231.544 144.613 230.68C144.613 229.816 144.805 229.048 145.189 228.376C145.583 227.704 146.117 227.171 146.789 226.776C147.461 226.381 148.218 226.184 149.061 226.184C149.893 226.184 150.645 226.381 151.317 226.776C151.989 227.16 152.517 227.688 152.901 228.36C153.295 229.032 153.493 229.805 153.493 230.68C153.493 231.555 153.29 232.333 152.885 233.016C152.479 233.688 151.941 234.221 151.269 234.616C150.607 235 149.871 235.192 149.061 235.192ZM149.061 233.752C149.594 233.752 150.074 233.619 150.501 233.352C150.938 233.085 151.279 232.717 151.525 232.248C151.781 231.779 151.909 231.256 151.909 230.68C151.909 230.093 151.781 229.576 151.525 229.128C151.279 228.669 150.938 228.307 150.501 228.04C150.074 227.763 149.594 227.624 149.061 227.624C148.517 227.624 148.026 227.763 147.589 228.04C147.162 228.307 146.821 228.669 146.565 229.128C146.309 229.576 146.181 230.093 146.181 230.68C146.181 231.256 146.309 231.779 146.565 232.248C146.821 232.717 147.162 233.085 147.589 233.352C148.026 233.619 148.517 233.752 149.061 233.752ZM157.677 235L154.301 226.376H155.965L158.669 233.672H158.093L160.813 226.376H162.477L159.085 235H157.677ZM166.654 235L171.886 224.44H166.046V223.08H173.534V224.44L168.35 235H166.654Z" fill="#000929"/>
<path opacity="0.5" d="M246.328 235V223.08H247.64L254.488 232.712L253.896 232.776V223.08H255.48V235H254.168L247.352 225.304L247.896 225.24V235H246.328ZM262.061 235.192C261.229 235.192 260.477 235 259.805 234.616C259.133 234.221 258.599 233.683 258.205 233C257.81 232.317 257.613 231.544 257.613 230.68C257.613 229.816 257.805 229.048 258.189 228.376C258.583 227.704 259.117 227.171 259.789 226.776C260.461 226.381 261.218 226.184 262.061 226.184C262.893 226.184 263.645 226.381 264.317 226.776C264.989 227.16 265.517 227.688 265.901 228.36C266.295 229.032 266.493 229.805 266.493 230.68C266.493 231.555 266.29 232.333 265.885 233.016C265.479 233.688 264.941 234.221 264.269 234.616C263.607 235 262.871 235.192 262.061 235.192ZM262.061 233.752C262.594 233.752 263.074 233.619 263.501 233.352C263.938 233.085 264.279 232.717 264.525 232.248C264.781 231.779 264.909 231.256 264.909 230.68C264.909 230.093 264.781 229.576 264.525 229.128C264.279 228.669 263.938 228.307 263.501 228.04C263.074 227.763 262.594 227.624 262.061 227.624C261.517 227.624 261.026 227.763 260.589 228.04C260.162 228.307 259.821 228.669 259.565 229.128C259.309 229.576 259.181 230.093 259.181 230.68C259.181 231.256 259.309 231.779 259.565 232.248C259.821 232.717 260.162 233.085 260.589 233.352C261.026 233.619 261.517 233.752 262.061 233.752ZM270.677 235L267.301 226.376H268.965L271.669 233.672H271.093L273.813 226.376H275.477L272.085 235H270.677ZM281.27 235V224.44H279.014V223.08H282.854V235H281.27ZM289.235 235.192C288.606 235.192 288.019 235.08 287.475 234.856C286.931 234.632 286.462 234.317 286.067 233.912C285.673 233.496 285.379 233.005 285.187 232.44L286.515 231.896C286.739 232.493 287.091 232.957 287.571 233.288C288.051 233.619 288.606 233.784 289.235 233.784C289.726 233.784 290.163 233.688 290.547 233.496C290.931 233.304 291.23 233.027 291.443 232.664C291.667 232.301 291.779 231.864 291.779 231.352C291.779 230.829 291.667 230.392 291.443 230.04C291.23 229.677 290.931 229.4 290.547 229.208C290.163 229.016 289.721 228.92 289.219 228.92C289.059 228.92 288.883 228.931 288.691 228.952C288.51 228.973 288.355 229.005 288.227 229.048L287.891 228.328L291.075 224.44H285.795V223.08H292.851V224.392L289.811 228.136L289.715 227.72C290.43 227.741 291.059 227.907 291.603 228.216C292.147 228.525 292.574 228.947 292.883 229.48C293.193 230.003 293.347 230.616 293.347 231.32C293.347 232.045 293.171 232.701 292.819 233.288C292.467 233.875 291.982 234.339 291.363 234.68C290.745 235.021 290.035 235.192 289.235 235.192Z" fill="#000929"/>
<path opacity="0.5" d="M366.328 235V223.08H367.64L374.488 232.712L373.896 232.776V223.08H375.48V235H374.168L367.352 225.304L367.896 225.24V235H366.328ZM382.061 235.192C381.229 235.192 380.477 235 379.805 234.616C379.133 234.221 378.599 233.683 378.205 233C377.81 232.317 377.613 231.544 377.613 230.68C377.613 229.816 377.805 229.048 378.189 228.376C378.583 227.704 379.117 227.171 379.789 226.776C380.461 226.381 381.218 226.184 382.061 226.184C382.893 226.184 383.645 226.381 384.317 226.776C384.989 227.16 385.517 227.688 385.901 228.36C386.295 229.032 386.493 229.805 386.493 230.68C386.493 231.555 386.29 232.333 385.885 233.016C385.479 233.688 384.941 234.221 384.269 234.616C383.607 235 382.871 235.192 382.061 235.192ZM382.061 233.752C382.594 233.752 383.074 233.619 383.501 233.352C383.938 233.085 384.279 232.717 384.525 232.248C384.781 231.779 384.909 231.256 384.909 230.68C384.909 230.093 384.781 229.576 384.525 229.128C384.279 228.669 383.938 228.307 383.501 228.04C383.074 227.763 382.594 227.624 382.061 227.624C381.517 227.624 381.026 227.763 380.589 228.04C380.162 228.307 379.821 228.669 379.565 229.128C379.309 229.576 379.181 230.093 379.181 230.68C379.181 231.256 379.309 231.779 379.565 232.248C379.821 232.717 380.162 233.085 380.589 233.352C381.026 233.619 381.517 233.752 382.061 233.752ZM390.677 235L387.301 226.376H388.965L391.669 233.672H391.093L393.813 226.376H395.477L392.085 235H390.677ZM401.27 235V224.44H399.014V223.08H402.854V235H401.27ZM406.579 235L410.691 229.64L410.979 229.672C410.819 229.885 410.643 230.056 410.451 230.184C410.259 230.301 410.046 230.387 409.811 230.44C409.587 230.493 409.342 230.52 409.075 230.52C408.371 230.52 407.737 230.36 407.171 230.04C406.617 229.709 406.174 229.261 405.843 228.696C405.523 228.12 405.363 227.464 405.363 226.728C405.363 225.992 405.534 225.336 405.875 224.76C406.217 224.184 406.686 223.731 407.283 223.4C407.881 223.059 408.553 222.888 409.299 222.888C410.067 222.888 410.745 223.059 411.331 223.4C411.929 223.731 412.398 224.195 412.739 224.792C413.081 225.379 413.251 226.056 413.251 226.824C413.251 227.24 413.203 227.651 413.107 228.056C413.011 228.461 412.857 228.872 412.643 229.288C412.441 229.704 412.169 230.136 411.827 230.584L408.467 235H406.579ZM409.299 229.144C409.758 229.144 410.163 229.043 410.515 228.84C410.878 228.627 411.161 228.339 411.363 227.976C411.566 227.603 411.667 227.187 411.667 226.728C411.667 226.248 411.561 225.827 411.347 225.464C411.145 225.101 410.867 224.813 410.515 224.6C410.163 224.387 409.758 224.28 409.299 224.28C408.851 224.28 408.451 224.387 408.099 224.6C407.747 224.813 407.465 225.101 407.251 225.464C407.049 225.827 406.947 226.248 406.947 226.728C406.947 227.187 407.049 227.603 407.251 227.976C407.454 228.339 407.731 228.627 408.083 228.84C408.446 229.043 408.851 229.144 409.299 229.144Z" fill="#000929"/>
<path opacity="0.5" d="M486.328 235V223.08H487.64L494.488 232.712L493.896 232.776V223.08H495.48V235H494.168L487.352 225.304L487.896 225.24V235H486.328ZM502.061 235.192C501.229 235.192 500.477 235 499.805 234.616C499.133 234.221 498.599 233.683 498.205 233C497.81 232.317 497.613 231.544 497.613 230.68C497.613 229.816 497.805 229.048 498.189 228.376C498.583 227.704 499.117 227.171 499.789 226.776C500.461 226.381 501.218 226.184 502.061 226.184C502.893 226.184 503.645 226.381 504.317 226.776C504.989 227.16 505.517 227.688 505.901 228.36C506.295 229.032 506.493 229.805 506.493 230.68C506.493 231.555 506.29 232.333 505.885 233.016C505.479 233.688 504.941 234.221 504.269 234.616C503.607 235 502.871 235.192 502.061 235.192ZM502.061 233.752C502.594 233.752 503.074 233.619 503.501 233.352C503.938 233.085 504.279 232.717 504.525 232.248C504.781 231.779 504.909 231.256 504.909 230.68C504.909 230.093 504.781 229.576 504.525 229.128C504.279 228.669 503.938 228.307 503.501 228.04C503.074 227.763 502.594 227.624 502.061 227.624C501.517 227.624 501.026 227.763 500.589 228.04C500.162 228.307 499.821 228.669 499.565 229.128C499.309 229.576 499.181 230.093 499.181 230.68C499.181 231.256 499.309 231.779 499.565 232.248C499.821 232.717 500.162 233.085 500.589 233.352C501.026 233.619 501.517 233.752 502.061 233.752ZM510.677 235L507.301 226.376H508.965L511.669 233.672H511.093L513.813 226.376H515.477L512.085 235H510.677ZM519.286 235V233.912L522.582 230.344C523.233 229.651 523.75 229.08 524.134 228.632C524.529 228.184 524.817 227.784 524.998 227.432C525.179 227.08 525.27 226.707 525.27 226.312C525.27 225.661 525.078 225.16 524.694 224.808C524.31 224.456 523.803 224.28 523.174 224.28C522.534 224.28 521.99 224.467 521.542 224.84C521.094 225.203 520.785 225.72 520.614 226.392L519.19 226.024C519.329 225.384 519.585 224.829 519.958 224.36C520.331 223.891 520.795 223.528 521.35 223.272C521.905 223.016 522.513 222.888 523.174 222.888C523.899 222.888 524.534 223.032 525.078 223.32C525.633 223.597 526.065 223.987 526.374 224.488C526.694 224.989 526.854 225.571 526.854 226.232C526.854 226.669 526.763 227.096 526.582 227.512C526.401 227.928 526.134 228.371 525.782 228.84C525.43 229.299 524.971 229.832 524.406 230.44L521.462 233.64H527.11V235H519.286ZM532.8 235.192C532.181 235.192 531.6 235.085 531.056 234.872C530.512 234.648 530.037 234.333 529.632 233.928C529.237 233.512 528.949 233.027 528.768 232.472L530.048 231.928C530.272 232.515 530.635 232.973 531.136 233.304C531.648 233.624 532.203 233.784 532.8 233.784C533.291 233.784 533.723 233.677 534.096 233.464C534.48 233.24 534.779 232.936 534.992 232.552C535.205 232.157 535.312 231.72 535.312 231.24C535.312 230.739 535.2 230.296 534.976 229.912C534.763 229.528 534.469 229.229 534.096 229.016C533.723 228.792 533.296 228.68 532.816 228.68C532.325 228.68 531.877 228.792 531.472 229.016C531.067 229.24 530.773 229.523 530.592 229.864L529.328 229.592L530.24 223.08H536.416V224.44H530.832L531.44 223.832L530.736 228.888L530.192 228.568C530.544 228.12 530.955 227.8 531.424 227.608C531.904 227.405 532.421 227.304 532.976 227.304C533.755 227.304 534.437 227.48 535.024 227.832C535.611 228.184 536.069 228.653 536.4 229.24C536.731 229.827 536.896 230.493 536.896 231.24C536.896 231.987 536.715 232.659 536.352 233.256C536 233.853 535.515 234.328 534.896 234.68C534.288 235.021 533.589 235.192 532.8 235.192Z" fill="#000929"/>
<path opacity="0.5" d="M609.328 235V223.08H613.232C614.437 223.08 615.488 223.325 616.384 223.816C617.28 224.307 617.973 225 618.464 225.896C618.955 226.781 619.2 227.827 619.2 229.032C619.2 230.227 618.955 231.272 618.464 232.168C617.973 233.064 617.28 233.763 616.384 234.264C615.488 234.755 614.437 235 613.232 235H609.328ZM610.896 233.56H613.248C614.133 233.56 614.896 233.373 615.536 233C616.187 232.627 616.688 232.104 617.04 231.432C617.392 230.749 617.568 229.949 617.568 229.032C617.568 228.104 617.387 227.304 617.024 226.632C616.672 225.96 616.171 225.443 615.52 225.08C614.88 224.707 614.123 224.52 613.248 224.52H610.896V233.56ZM624.979 235.192C624.147 235.192 623.406 234.995 622.755 234.6C622.105 234.205 621.593 233.667 621.219 232.984C620.846 232.291 620.659 231.517 620.659 230.664C620.659 229.8 620.841 229.032 621.203 228.36C621.577 227.688 622.078 227.16 622.707 226.776C623.347 226.381 624.062 226.184 624.851 226.184C625.491 226.184 626.057 226.301 626.547 226.536C627.049 226.76 627.47 227.069 627.811 227.464C628.163 227.848 628.43 228.291 628.611 228.792C628.803 229.283 628.899 229.795 628.899 230.328C628.899 230.445 628.889 230.579 628.867 230.728C628.857 230.867 628.841 231 628.819 231.128H621.747V229.848H627.955L627.251 230.424C627.347 229.869 627.294 229.373 627.091 228.936C626.889 228.499 626.59 228.152 626.195 227.896C625.801 227.64 625.353 227.512 624.851 227.512C624.35 227.512 623.891 227.64 623.475 227.896C623.059 228.152 622.734 228.52 622.499 229C622.275 229.469 622.185 230.029 622.227 230.68C622.185 231.309 622.281 231.864 622.515 232.344C622.761 232.813 623.102 233.181 623.539 233.448C623.987 233.704 624.473 233.832 624.995 233.832C625.571 233.832 626.057 233.699 626.451 233.432C626.846 233.165 627.166 232.824 627.411 232.408L628.659 233.048C628.489 233.443 628.222 233.805 627.859 234.136C627.507 234.456 627.086 234.712 626.595 234.904C626.115 235.096 625.577 235.192 624.979 235.192ZM634.84 235.192C633.997 235.192 633.245 234.995 632.584 234.6C631.933 234.205 631.421 233.667 631.048 232.984C630.674 232.301 630.488 231.533 630.488 230.68C630.488 229.816 630.674 229.048 631.048 228.376C631.421 227.704 631.933 227.171 632.584 226.776C633.245 226.381 633.997 226.184 634.84 226.184C635.405 226.184 635.933 226.285 636.424 226.488C636.914 226.691 637.346 226.963 637.72 227.304C638.093 227.645 638.365 228.045 638.536 228.504L637.208 229.144C637.005 228.696 636.696 228.333 636.28 228.056C635.864 227.768 635.384 227.624 634.84 227.624C634.317 227.624 633.842 227.757 633.416 228.024C633 228.291 632.669 228.653 632.424 229.112C632.178 229.571 632.056 230.099 632.056 230.696C632.056 231.272 632.178 231.795 632.424 232.264C632.669 232.723 633 233.085 633.416 233.352C633.842 233.619 634.317 233.752 634.84 233.752C635.384 233.752 635.864 233.613 636.28 233.336C636.696 233.048 637.005 232.669 637.208 232.2L638.536 232.872C638.365 233.32 638.093 233.72 637.72 234.072C637.346 234.413 636.914 234.685 636.424 234.888C635.933 235.091 635.405 235.192 634.84 235.192ZM644.942 235V224.44H642.686V223.08H646.526V235H644.942Z" fill="#000929"/>
<path opacity="0.5" d="M720.328 235V223.08H724.232C725.437 223.08 726.488 223.325 727.384 223.816C728.28 224.307 728.973 225 729.464 225.896C729.955 226.781 730.2 227.827 730.2 229.032C730.2 230.227 729.955 231.272 729.464 232.168C728.973 233.064 728.28 233.763 727.384 234.264C726.488 234.755 725.437 235 724.232 235H720.328ZM721.896 233.56H724.248C725.133 233.56 725.896 233.373 726.536 233C727.187 232.627 727.688 232.104 728.04 231.432C728.392 230.749 728.568 229.949 728.568 229.032C728.568 228.104 728.387 227.304 728.024 226.632C727.672 225.96 727.171 225.443 726.52 225.08C725.88 224.707 725.123 224.52 724.248 224.52H721.896V233.56ZM735.979 235.192C735.147 235.192 734.406 234.995 733.755 234.6C733.105 234.205 732.593 233.667 732.219 232.984C731.846 232.291 731.659 231.517 731.659 230.664C731.659 229.8 731.841 229.032 732.203 228.36C732.577 227.688 733.078 227.16 733.707 226.776C734.347 226.381 735.062 226.184 735.851 226.184C736.491 226.184 737.057 226.301 737.547 226.536C738.049 226.76 738.47 227.069 738.811 227.464C739.163 227.848 739.43 228.291 739.611 228.792C739.803 229.283 739.899 229.795 739.899 230.328C739.899 230.445 739.889 230.579 739.867 230.728C739.857 230.867 739.841 231 739.819 231.128H732.747V229.848H738.955L738.251 230.424C738.347 229.869 738.294 229.373 738.091 228.936C737.889 228.499 737.59 228.152 737.195 227.896C736.801 227.64 736.353 227.512 735.851 227.512C735.35 227.512 734.891 227.64 734.475 227.896C734.059 228.152 733.734 228.52 733.499 229C733.275 229.469 733.185 230.029 733.227 230.68C733.185 231.309 733.281 231.864 733.515 232.344C733.761 232.813 734.102 233.181 734.539 233.448C734.987 233.704 735.473 233.832 735.995 233.832C736.571 233.832 737.057 233.699 737.451 233.432C737.846 233.165 738.166 232.824 738.411 232.408L739.659 233.048C739.489 233.443 739.222 233.805 738.859 234.136C738.507 234.456 738.086 234.712 737.595 234.904C737.115 235.096 736.577 235.192 735.979 235.192ZM745.84 235.192C744.997 235.192 744.245 234.995 743.584 234.6C742.933 234.205 742.421 233.667 742.048 232.984C741.674 232.301 741.488 231.533 741.488 230.68C741.488 229.816 741.674 229.048 742.048 228.376C742.421 227.704 742.933 227.171 743.584 226.776C744.245 226.381 744.997 226.184 745.84 226.184C746.405 226.184 746.933 226.285 747.424 226.488C747.914 226.691 748.346 226.963 748.72 227.304C749.093 227.645 749.365 228.045 749.536 228.504L748.208 229.144C748.005 228.696 747.696 228.333 747.28 228.056C746.864 227.768 746.384 227.624 745.84 227.624C745.317 227.624 744.842 227.757 744.416 228.024C744 228.291 743.669 228.653 743.424 229.112C743.178 229.571 743.056 230.099 743.056 230.696C743.056 231.272 743.178 231.795 743.424 232.264C743.669 232.723 744 233.085 744.416 233.352C744.842 233.619 745.317 233.752 745.84 233.752C746.384 233.752 746.864 233.613 747.28 233.336C747.696 233.048 748.005 232.669 748.208 232.2L749.536 232.872C749.365 233.32 749.093 233.72 748.72 234.072C748.346 234.413 747.914 234.685 747.424 234.888C746.933 235.091 746.405 235.192 745.84 235.192ZM754.326 235L759.558 224.44H753.718V223.08H761.206V224.44L756.022 235H754.326Z" fill="#000929"/>
<path opacity="0.5" d="M833.328 235V223.08H837.232C838.437 223.08 839.488 223.325 840.384 223.816C841.28 224.307 841.973 225 842.464 225.896C842.955 226.781 843.2 227.827 843.2 229.032C843.2 230.227 842.955 231.272 842.464 232.168C841.973 233.064 841.28 233.763 840.384 234.264C839.488 234.755 838.437 235 837.232 235H833.328ZM834.896 233.56H837.248C838.133 233.56 838.896 233.373 839.536 233C840.187 232.627 840.688 232.104 841.04 231.432C841.392 230.749 841.568 229.949 841.568 229.032C841.568 228.104 841.387 227.304 841.024 226.632C840.672 225.96 840.171 225.443 839.52 225.08C838.88 224.707 838.123 224.52 837.248 224.52H834.896V233.56ZM848.979 235.192C848.147 235.192 847.406 234.995 846.755 234.6C846.105 234.205 845.593 233.667 845.219 232.984C844.846 232.291 844.659 231.517 844.659 230.664C844.659 229.8 844.841 229.032 845.203 228.36C845.577 227.688 846.078 227.16 846.707 226.776C847.347 226.381 848.062 226.184 848.851 226.184C849.491 226.184 850.057 226.301 850.547 226.536C851.049 226.76 851.47 227.069 851.811 227.464C852.163 227.848 852.43 228.291 852.611 228.792C852.803 229.283 852.899 229.795 852.899 230.328C852.899 230.445 852.889 230.579 852.867 230.728C852.857 230.867 852.841 231 852.819 231.128H845.747V229.848H851.955L851.251 230.424C851.347 229.869 851.294 229.373 851.091 228.936C850.889 228.499 850.59 228.152 850.195 227.896C849.801 227.64 849.353 227.512 848.851 227.512C848.35 227.512 847.891 227.64 847.475 227.896C847.059 228.152 846.734 228.52 846.499 229C846.275 229.469 846.185 230.029 846.227 230.68C846.185 231.309 846.281 231.864 846.515 232.344C846.761 232.813 847.102 233.181 847.539 233.448C847.987 233.704 848.473 233.832 848.995 233.832C849.571 233.832 850.057 233.699 850.451 233.432C850.846 233.165 851.166 232.824 851.411 232.408L852.659 233.048C852.489 233.443 852.222 233.805 851.859 234.136C851.507 234.456 851.086 234.712 850.595 234.904C850.115 235.096 849.577 235.192 848.979 235.192ZM858.84 235.192C857.997 235.192 857.245 234.995 856.584 234.6C855.933 234.205 855.421 233.667 855.048 232.984C854.674 232.301 854.488 231.533 854.488 230.68C854.488 229.816 854.674 229.048 855.048 228.376C855.421 227.704 855.933 227.171 856.584 226.776C857.245 226.381 857.997 226.184 858.84 226.184C859.405 226.184 859.933 226.285 860.424 226.488C860.914 226.691 861.346 226.963 861.72 227.304C862.093 227.645 862.365 228.045 862.536 228.504L861.208 229.144C861.005 228.696 860.696 228.333 860.28 228.056C859.864 227.768 859.384 227.624 858.84 227.624C858.317 227.624 857.842 227.757 857.416 228.024C857 228.291 856.669 228.653 856.424 229.112C856.178 229.571 856.056 230.099 856.056 230.696C856.056 231.272 856.178 231.795 856.424 232.264C856.669 232.723 857 233.085 857.416 233.352C857.842 233.619 858.317 233.752 858.84 233.752C859.384 233.752 859.864 233.613 860.28 233.336C860.696 233.048 861.005 232.669 861.208 232.2L862.536 232.872C862.365 233.32 862.093 233.72 861.72 234.072C861.346 234.413 860.914 234.685 860.424 234.888C859.933 235.091 859.405 235.192 858.84 235.192ZM868.942 235V224.44H866.686V223.08H870.526V235H868.942ZM876.907 235.192C876.278 235.192 875.691 235.08 875.147 234.856C874.603 234.632 874.134 234.317 873.739 233.912C873.344 233.496 873.051 233.005 872.859 232.44L874.187 231.896C874.411 232.493 874.763 232.957 875.243 233.288C875.723 233.619 876.278 233.784 876.907 233.784C877.398 233.784 877.835 233.688 878.219 233.496C878.603 233.304 878.902 233.027 879.115 232.664C879.339 232.301 879.451 231.864 879.451 231.352C879.451 230.829 879.339 230.392 879.115 230.04C878.902 229.677 878.603 229.4 878.219 229.208C877.835 229.016 877.392 228.92 876.891 228.92C876.731 228.92 876.555 228.931 876.363 228.952C876.182 228.973 876.027 229.005 875.899 229.048L875.563 228.328L878.747 224.44H873.467V223.08H880.523V224.392L877.483 228.136L877.387 227.72C878.102 227.741 878.731 227.907 879.275 228.216C879.819 228.525 880.246 228.947 880.555 229.48C880.864 230.003 881.019 230.616 881.019 231.32C881.019 232.045 880.843 232.701 880.491 233.288C880.139 233.875 879.654 234.339 879.035 234.68C878.416 235.021 877.707 235.192 876.907 235.192Z" fill="#000929"/>
<path opacity="0.5" d="M953.328 235V223.08H957.232C958.437 223.08 959.488 223.325 960.384 223.816C961.28 224.307 961.973 225 962.464 225.896C962.955 226.781 963.2 227.827 963.2 229.032C963.2 230.227 962.955 231.272 962.464 232.168C961.973 233.064 961.28 233.763 960.384 234.264C959.488 234.755 958.437 235 957.232 235H953.328ZM954.896 233.56H957.248C958.133 233.56 958.896 233.373 959.536 233C960.187 232.627 960.688 232.104 961.04 231.432C961.392 230.749 961.568 229.949 961.568 229.032C961.568 228.104 961.387 227.304 961.024 226.632C960.672 225.96 960.171 225.443 959.52 225.08C958.88 224.707 958.123 224.52 957.248 224.52H954.896V233.56ZM968.979 235.192C968.147 235.192 967.406 234.995 966.755 234.6C966.105 234.205 965.593 233.667 965.219 232.984C964.846 232.291 964.659 231.517 964.659 230.664C964.659 229.8 964.841 229.032 965.203 228.36C965.577 227.688 966.078 227.16 966.707 226.776C967.347 226.381 968.062 226.184 968.851 226.184C969.491 226.184 970.057 226.301 970.547 226.536C971.049 226.76 971.47 227.069 971.811 227.464C972.163 227.848 972.43 228.291 972.611 228.792C972.803 229.283 972.899 229.795 972.899 230.328C972.899 230.445 972.889 230.579 972.867 230.728C972.857 230.867 972.841 231 972.819 231.128H965.747V229.848H971.955L971.251 230.424C971.347 229.869 971.294 229.373 971.091 228.936C970.889 228.499 970.59 228.152 970.195 227.896C969.801 227.64 969.353 227.512 968.851 227.512C968.35 227.512 967.891 227.64 967.475 227.896C967.059 228.152 966.734 228.52 966.499 229C966.275 229.469 966.185 230.029 966.227 230.68C966.185 231.309 966.281 231.864 966.515 232.344C966.761 232.813 967.102 233.181 967.539 233.448C967.987 233.704 968.473 233.832 968.995 233.832C969.571 233.832 970.057 233.699 970.451 233.432C970.846 233.165 971.166 232.824 971.411 232.408L972.659 233.048C972.489 233.443 972.222 233.805 971.859 234.136C971.507 234.456 971.086 234.712 970.595 234.904C970.115 235.096 969.577 235.192 968.979 235.192ZM978.84 235.192C977.997 235.192 977.245 234.995 976.584 234.6C975.933 234.205 975.421 233.667 975.048 232.984C974.674 232.301 974.488 231.533 974.488 230.68C974.488 229.816 974.674 229.048 975.048 228.376C975.421 227.704 975.933 227.171 976.584 226.776C977.245 226.381 977.997 226.184 978.84 226.184C979.405 226.184 979.933 226.285 980.424 226.488C980.914 226.691 981.346 226.963 981.72 227.304C982.093 227.645 982.365 228.045 982.536 228.504L981.208 229.144C981.005 228.696 980.696 228.333 980.28 228.056C979.864 227.768 979.384 227.624 978.84 227.624C978.317 227.624 977.842 227.757 977.416 228.024C977 228.291 976.669 228.653 976.424 229.112C976.178 229.571 976.056 230.099 976.056 230.696C976.056 231.272 976.178 231.795 976.424 232.264C976.669 232.723 977 233.085 977.416 233.352C977.842 233.619 978.317 233.752 978.84 233.752C979.384 233.752 979.864 233.613 980.28 233.336C980.696 233.048 981.005 232.669 981.208 232.2L982.536 232.872C982.365 233.32 982.093 233.72 981.72 234.072C981.346 234.413 980.914 234.685 980.424 234.888C979.933 235.091 979.405 235.192 978.84 235.192ZM988.942 235V224.44H986.686V223.08H990.526V235H988.942ZM994.251 235L998.363 229.64L998.651 229.672C998.491 229.885 998.315 230.056 998.123 230.184C997.931 230.301 997.718 230.387 997.483 230.44C997.259 230.493 997.014 230.52 996.747 230.52C996.043 230.52 995.408 230.36 994.843 230.04C994.288 229.709 993.846 229.261 993.515 228.696C993.195 228.12 993.035 227.464 993.035 226.728C993.035 225.992 993.206 225.336 993.547 224.76C993.888 224.184 994.358 223.731 994.955 223.4C995.552 223.059 996.224 222.888 996.971 222.888C997.739 222.888 998.416 223.059 999.003 223.4C999.6 223.731 1000.07 224.195 1000.41 224.792C1000.75 225.379 1000.92 226.056 1000.92 226.824C1000.92 227.24 1000.88 227.651 1000.78 228.056C1000.68 228.461 1000.53 228.872 1000.32 229.288C1000.11 229.704 999.84 230.136 999.499 230.584L996.139 235H994.251ZM996.971 229.144C997.43 229.144 997.835 229.043 998.187 228.84C998.55 228.627 998.832 228.339 999.035 227.976C999.238 227.603 999.339 227.187 999.339 226.728C999.339 226.248 999.232 225.827 999.019 225.464C998.816 225.101 998.539 224.813 998.187 224.6C997.835 224.387 997.43 224.28 996.971 224.28C996.523 224.28 996.123 224.387 995.771 224.6C995.419 224.813 995.136 225.101 994.923 225.464C994.72 225.827 994.619 226.248 994.619 226.728C994.619 227.187 994.72 227.603 994.923 227.976C995.126 228.339 995.403 228.627 995.755 228.84C996.118 229.043 996.523 229.144 996.971 229.144Z" fill="#000929"/>
<path opacity="0.5" d="M1073.33 235V223.08H1077.23C1078.44 223.08 1079.49 223.325 1080.38 223.816C1081.28 224.307 1081.97 225 1082.46 225.896C1082.95 226.781 1083.2 227.827 1083.2 229.032C1083.2 230.227 1082.95 231.272 1082.46 232.168C1081.97 233.064 1081.28 233.763 1080.38 234.264C1079.49 234.755 1078.44 235 1077.23 235H1073.33ZM1074.9 233.56H1077.25C1078.13 233.56 1078.9 233.373 1079.54 233C1080.19 232.627 1080.69 232.104 1081.04 231.432C1081.39 230.749 1081.57 229.949 1081.57 229.032C1081.57 228.104 1081.39 227.304 1081.02 226.632C1080.67 225.96 1080.17 225.443 1079.52 225.08C1078.88 224.707 1078.12 224.52 1077.25 224.52H1074.9V233.56ZM1088.98 235.192C1088.15 235.192 1087.41 234.995 1086.76 234.6C1086.1 234.205 1085.59 233.667 1085.22 232.984C1084.85 232.291 1084.66 231.517 1084.66 230.664C1084.66 229.8 1084.84 229.032 1085.2 228.36C1085.58 227.688 1086.08 227.16 1086.71 226.776C1087.35 226.381 1088.06 226.184 1088.85 226.184C1089.49 226.184 1090.06 226.301 1090.55 226.536C1091.05 226.76 1091.47 227.069 1091.81 227.464C1092.16 227.848 1092.43 228.291 1092.61 228.792C1092.8 229.283 1092.9 229.795 1092.9 230.328C1092.9 230.445 1092.89 230.579 1092.87 230.728C1092.86 230.867 1092.84 231 1092.82 231.128H1085.75V229.848H1091.96L1091.25 230.424C1091.35 229.869 1091.29 229.373 1091.09 228.936C1090.89 228.499 1090.59 228.152 1090.2 227.896C1089.8 227.64 1089.35 227.512 1088.85 227.512C1088.35 227.512 1087.89 227.64 1087.48 227.896C1087.06 228.152 1086.73 228.52 1086.5 229C1086.28 229.469 1086.18 230.029 1086.23 230.68C1086.18 231.309 1086.28 231.864 1086.52 232.344C1086.76 232.813 1087.1 233.181 1087.54 233.448C1087.99 233.704 1088.47 233.832 1089 233.832C1089.57 233.832 1090.06 233.699 1090.45 233.432C1090.85 233.165 1091.17 232.824 1091.41 232.408L1092.66 233.048C1092.49 233.443 1092.22 233.805 1091.86 234.136C1091.51 234.456 1091.09 234.712 1090.6 234.904C1090.12 235.096 1089.58 235.192 1088.98 235.192ZM1098.84 235.192C1098 235.192 1097.24 234.995 1096.58 234.6C1095.93 234.205 1095.42 233.667 1095.05 232.984C1094.67 232.301 1094.49 231.533 1094.49 230.68C1094.49 229.816 1094.67 229.048 1095.05 228.376C1095.42 227.704 1095.93 227.171 1096.58 226.776C1097.24 226.381 1098 226.184 1098.84 226.184C1099.4 226.184 1099.93 226.285 1100.42 226.488C1100.91 226.691 1101.35 226.963 1101.72 227.304C1102.09 227.645 1102.36 228.045 1102.54 228.504L1101.21 229.144C1101 228.696 1100.7 228.333 1100.28 228.056C1099.86 227.768 1099.38 227.624 1098.84 227.624C1098.32 227.624 1097.84 227.757 1097.42 228.024C1097 228.291 1096.67 228.653 1096.42 229.112C1096.18 229.571 1096.06 230.099 1096.06 230.696C1096.06 231.272 1096.18 231.795 1096.42 232.264C1096.67 232.723 1097 233.085 1097.42 233.352C1097.84 233.619 1098.32 233.752 1098.84 233.752C1099.38 233.752 1099.86 233.613 1100.28 233.336C1100.7 233.048 1101 232.669 1101.21 232.2L1102.54 232.872C1102.36 233.32 1102.09 233.72 1101.72 234.072C1101.35 234.413 1100.91 234.685 1100.42 234.888C1099.93 235.091 1099.4 235.192 1098.84 235.192ZM1106.96 235V233.912L1110.25 230.344C1110.9 229.651 1111.42 229.08 1111.81 228.632C1112.2 228.184 1112.49 227.784 1112.67 227.432C1112.85 227.08 1112.94 226.707 1112.94 226.312C1112.94 225.661 1112.75 225.16 1112.37 224.808C1111.98 224.456 1111.48 224.28 1110.85 224.28C1110.21 224.28 1109.66 224.467 1109.21 224.84C1108.77 225.203 1108.46 225.72 1108.29 226.392L1106.86 226.024C1107 225.384 1107.26 224.829 1107.63 224.36C1108 223.891 1108.47 223.528 1109.02 223.272C1109.58 223.016 1110.18 222.888 1110.85 222.888C1111.57 222.888 1112.21 223.032 1112.75 223.32C1113.3 223.597 1113.74 223.987 1114.05 224.488C1114.37 224.989 1114.53 225.571 1114.53 226.232C1114.53 226.669 1114.44 227.096 1114.25 227.512C1114.07 227.928 1113.81 228.371 1113.45 228.84C1113.1 229.299 1112.64 229.832 1112.08 230.44L1109.13 233.64H1114.78V235H1106.96ZM1120.47 235.192C1119.85 235.192 1119.27 235.085 1118.73 234.872C1118.18 234.648 1117.71 234.333 1117.3 233.928C1116.91 233.512 1116.62 233.027 1116.44 232.472L1117.72 231.928C1117.94 232.515 1118.31 232.973 1118.81 233.304C1119.32 233.624 1119.87 233.784 1120.47 233.784C1120.96 233.784 1121.39 233.677 1121.77 233.464C1122.15 233.24 1122.45 232.936 1122.66 232.552C1122.88 232.157 1122.98 231.72 1122.98 231.24C1122.98 230.739 1122.87 230.296 1122.65 229.912C1122.43 229.528 1122.14 229.229 1121.77 229.016C1121.39 228.792 1120.97 228.68 1120.49 228.68C1120 228.68 1119.55 228.792 1119.14 229.016C1118.74 229.24 1118.45 229.523 1118.26 229.864L1117 229.592L1117.91 223.08H1124.09V224.44H1118.5L1119.11 223.832L1118.41 228.888L1117.86 228.568C1118.22 228.12 1118.63 227.8 1119.1 227.608C1119.58 227.405 1120.09 227.304 1120.65 227.304C1121.43 227.304 1122.11 227.48 1122.7 227.832C1123.28 228.184 1123.74 228.653 1124.07 229.24C1124.4 229.827 1124.57 230.493 1124.57 231.24C1124.57 231.987 1124.39 232.659 1124.02 233.256C1123.67 233.853 1123.19 234.328 1122.57 234.68C1121.96 235.021 1121.26 235.192 1120.47 235.192Z" fill="#000929"/>
<path opacity="0.5" d="M1197.33 235V223.08H1201.23C1202.44 223.08 1203.49 223.325 1204.38 223.816C1205.28 224.307 1205.97 225 1206.46 225.896C1206.95 226.781 1207.2 227.827 1207.2 229.032C1207.2 230.227 1206.95 231.272 1206.46 232.168C1205.97 233.064 1205.28 233.763 1204.38 234.264C1203.49 234.755 1202.44 235 1201.23 235H1197.33ZM1198.9 233.56H1201.25C1202.13 233.56 1202.9 233.373 1203.54 233C1204.19 232.627 1204.69 232.104 1205.04 231.432C1205.39 230.749 1205.57 229.949 1205.57 229.032C1205.57 228.104 1205.39 227.304 1205.02 226.632C1204.67 225.96 1204.17 225.443 1203.52 225.08C1202.88 224.707 1202.12 224.52 1201.25 224.52H1198.9V233.56ZM1212.98 235.192C1212.15 235.192 1211.41 234.995 1210.76 234.6C1210.1 234.205 1209.59 233.667 1209.22 232.984C1208.85 232.291 1208.66 231.517 1208.66 230.664C1208.66 229.8 1208.84 229.032 1209.2 228.36C1209.58 227.688 1210.08 227.16 1210.71 226.776C1211.35 226.381 1212.06 226.184 1212.85 226.184C1213.49 226.184 1214.06 226.301 1214.55 226.536C1215.05 226.76 1215.47 227.069 1215.81 227.464C1216.16 227.848 1216.43 228.291 1216.61 228.792C1216.8 229.283 1216.9 229.795 1216.9 230.328C1216.9 230.445 1216.89 230.579 1216.87 230.728C1216.86 230.867 1216.84 231 1216.82 231.128H1209.75V229.848H1215.96L1215.25 230.424C1215.35 229.869 1215.29 229.373 1215.09 228.936C1214.89 228.499 1214.59 228.152 1214.2 227.896C1213.8 227.64 1213.35 227.512 1212.85 227.512C1212.35 227.512 1211.89 227.64 1211.48 227.896C1211.06 228.152 1210.73 228.52 1210.5 229C1210.28 229.469 1210.18 230.029 1210.23 230.68C1210.18 231.309 1210.28 231.864 1210.52 232.344C1210.76 232.813 1211.1 233.181 1211.54 233.448C1211.99 233.704 1212.47 233.832 1213 233.832C1213.57 233.832 1214.06 233.699 1214.45 233.432C1214.85 233.165 1215.17 232.824 1215.41 232.408L1216.66 233.048C1216.49 233.443 1216.22 233.805 1215.86 234.136C1215.51 234.456 1215.09 234.712 1214.6 234.904C1214.12 235.096 1213.58 235.192 1212.98 235.192ZM1222.84 235.192C1222 235.192 1221.24 234.995 1220.58 234.6C1219.93 234.205 1219.42 233.667 1219.05 232.984C1218.67 232.301 1218.49 231.533 1218.49 230.68C1218.49 229.816 1218.67 229.048 1219.05 228.376C1219.42 227.704 1219.93 227.171 1220.58 226.776C1221.24 226.381 1222 226.184 1222.84 226.184C1223.4 226.184 1223.93 226.285 1224.42 226.488C1224.91 226.691 1225.35 226.963 1225.72 227.304C1226.09 227.645 1226.36 228.045 1226.54 228.504L1225.21 229.144C1225 228.696 1224.7 228.333 1224.28 228.056C1223.86 227.768 1223.38 227.624 1222.84 227.624C1222.32 227.624 1221.84 227.757 1221.42 228.024C1221 228.291 1220.67 228.653 1220.42 229.112C1220.18 229.571 1220.06 230.099 1220.06 230.696C1220.06 231.272 1220.18 231.795 1220.42 232.264C1220.67 232.723 1221 233.085 1221.42 233.352C1221.84 233.619 1222.32 233.752 1222.84 233.752C1223.38 233.752 1223.86 233.613 1224.28 233.336C1224.7 233.048 1225 232.669 1225.21 232.2L1226.54 232.872C1226.36 233.32 1226.09 233.72 1225.72 234.072C1225.35 234.413 1224.91 234.685 1224.42 234.888C1223.93 235.091 1223.4 235.192 1222.84 235.192ZM1234.8 235.192C1234.17 235.192 1233.58 235.08 1233.04 234.856C1232.49 234.632 1232.02 234.317 1231.63 233.912C1231.24 233.496 1230.94 233.005 1230.75 232.44L1232.08 231.896C1232.3 232.493 1232.65 232.957 1233.13 233.288C1233.61 233.619 1234.17 233.784 1234.8 233.784C1235.29 233.784 1235.73 233.688 1236.11 233.496C1236.49 233.304 1236.79 233.027 1237.01 232.664C1237.23 232.301 1237.34 231.864 1237.34 231.352C1237.34 230.829 1237.23 230.392 1237.01 230.04C1236.79 229.677 1236.49 229.4 1236.11 229.208C1235.73 229.016 1235.28 228.92 1234.78 228.92C1234.62 228.92 1234.45 228.931 1234.25 228.952C1234.07 228.973 1233.92 229.005 1233.79 229.048L1233.45 228.328L1236.64 224.44H1231.36V223.08H1238.41V224.392L1235.37 228.136L1235.28 227.72C1235.99 227.741 1236.62 227.907 1237.17 228.216C1237.71 228.525 1238.14 228.947 1238.45 229.48C1238.76 230.003 1238.91 230.616 1238.91 231.32C1238.91 232.045 1238.73 232.701 1238.38 233.288C1238.03 233.875 1237.54 234.339 1236.93 234.68C1236.31 235.021 1235.6 235.192 1234.8 235.192ZM1242.71 235V224.44H1240.45V223.08H1244.29V235H1242.71Z" fill="#000929"/>
<rect x="38.5" y="1.5" width="1179" height="190" stroke="#F0EFFB"/>
<line x1="38.75" y1="1" x2="38.75" y2="192" stroke="#E0DEF7" stroke-width="1.5" stroke-dasharray="8 8"/>
<line x1="156.75" y1="1" x2="156.75" y2="192" stroke="#E0DEF7" stroke-width="1.5" stroke-dasharray="8 8"/>
<line x1="274.75" y1="1" x2="274.75" y2="192" stroke="#E0DEF7" stroke-width="1.5" stroke-dasharray="8 8"/>
<line x1="392.75" y1="1" x2="392.75" y2="192" stroke="#E0DEF7" stroke-width="1.5" stroke-dasharray="8 8"/>
<line x1="510.75" y1="1" x2="510.75" y2="192" stroke="#E0DEF7" stroke-width="1.5" stroke-dasharray="8 8"/>
<line x1="628.75" y1="1" x2="628.75" y2="192" stroke="#E0DEF7" stroke-width="1.5" stroke-dasharray="8 8"/>
<line x1="746.75" y1="1" x2="746.75" y2="192" stroke="#E0DEF7" stroke-width="1.5" stroke-dasharray="8 8"/>
<line x1="864.75" y1="1" x2="864.75" y2="192" stroke="#E0DEF7" stroke-width="1.5" stroke-dasharray="8 8"/>
<line x1="982.75" y1="1" x2="982.75" y2="192" stroke="#E0DEF7" stroke-width="1.5" stroke-dasharray="8 8"/>
<line x1="1100.75" y1="1" x2="1100.75" y2="192" stroke="#E0DEF7" stroke-width="1.5" stroke-dasharray="8 8"/>
<line x1="1218.75" y1="1" x2="1218.75" y2="192" stroke="#E0DEF7" stroke-width="1.5" stroke-dasharray="8 8"/>
<path d="M237.5 141.5H0V192H1276V10.9593L962.991 53.267L778.28 2L537.657 112L439.311 96.5701L312.5 53.267L237.5 141.5Z" fill="url(#paint0_linear_2684_138)"/>
<path d="M0 143.5H237.5L312.5 53.267L438.689 96.5701L537.343 112L778.72 2L964.009 53.267L1278 10.9593" stroke="#7065F0" stroke-width="3"/>
<line x1="510.5" y1="199" x2="510.5" y2="108" stroke="#100A55" stroke-width="3"/>
<g filter="url(#filter0_d_2684_138)">
<circle cx="510.5" cy="108" r="5" fill="#100A55"/>
<circle cx="510.5" cy="108" r="6" stroke="white" stroke-width="2"/>
</g>
<rect x="530" y="90" width="183" height="60" rx="4" fill="#100A55"/>
<path opacity="0.7" d="M543.232 114V103.57H544.212L550.33 112.348H549.952V103.57H551.072V114H550.092L543.974 105.166H544.352V114H543.232ZM556.901 114.168C556.191 114.168 555.547 114 554.969 113.664C554.39 113.319 553.928 112.852 553.583 112.264C553.247 111.667 553.079 110.99 553.079 110.234C553.079 109.487 553.247 108.82 553.583 108.232C553.919 107.644 554.371 107.182 554.941 106.846C555.519 106.501 556.173 106.328 556.901 106.328C557.629 106.328 558.277 106.496 558.847 106.832C559.425 107.168 559.878 107.63 560.205 108.218C560.541 108.806 560.709 109.478 560.709 110.234C560.709 110.999 560.536 111.681 560.191 112.278C559.845 112.866 559.383 113.328 558.805 113.664C558.235 114 557.601 114.168 556.901 114.168ZM556.901 113.118C557.405 113.118 557.857 112.992 558.259 112.74C558.669 112.488 558.991 112.143 559.225 111.704C559.467 111.265 559.589 110.775 559.589 110.234C559.589 109.693 559.467 109.207 559.225 108.778C558.991 108.349 558.669 108.008 558.259 107.756C557.857 107.504 557.405 107.378 556.901 107.378C556.397 107.378 555.939 107.504 555.529 107.756C555.127 108.008 554.805 108.349 554.563 108.778C554.32 109.207 554.199 109.693 554.199 110.234C554.199 110.775 554.32 111.265 554.563 111.704C554.805 112.143 555.127 112.488 555.529 112.74C555.939 112.992 556.397 113.118 556.901 113.118ZM564.426 114L561.5 106.496H562.676L565.14 113.076H564.762L567.24 106.496H568.43L565.476 114H564.426ZM571.769 114V113.3L574.681 110.094C575.25 109.469 575.712 108.951 576.067 108.54C576.431 108.129 576.702 107.756 576.879 107.42C577.056 107.084 577.145 106.72 577.145 106.328C577.145 105.703 576.963 105.222 576.599 104.886C576.235 104.55 575.75 104.382 575.143 104.382C574.518 104.382 573.99 104.559 573.561 104.914C573.141 105.269 572.856 105.763 572.707 106.398L571.685 106.174C571.806 105.605 572.026 105.115 572.343 104.704C572.66 104.293 573.057 103.976 573.533 103.752C574.009 103.519 574.541 103.402 575.129 103.402C575.754 103.402 576.3 103.528 576.767 103.78C577.234 104.032 577.598 104.377 577.859 104.816C578.13 105.255 578.265 105.759 578.265 106.328C578.265 106.72 578.181 107.098 578.013 107.462C577.854 107.826 577.612 108.218 577.285 108.638C576.958 109.058 576.538 109.548 576.025 110.108L573.379 113.02H578.545V114H571.769ZM583.58 114.168C583.038 114.168 582.534 114.075 582.068 113.888C581.61 113.701 581.209 113.435 580.864 113.09C580.518 112.745 580.257 112.334 580.08 111.858L580.934 111.438C581.148 111.979 581.498 112.409 581.984 112.726C582.478 113.034 583.01 113.188 583.58 113.188C584.037 113.188 584.443 113.081 584.798 112.866C585.162 112.651 585.446 112.362 585.652 111.998C585.857 111.625 585.96 111.209 585.96 110.752C585.96 110.276 585.852 109.856 585.638 109.492C585.432 109.128 585.152 108.843 584.798 108.638C584.443 108.423 584.042 108.316 583.594 108.316C583.136 108.316 582.712 108.423 582.32 108.638C581.937 108.843 581.657 109.095 581.48 109.394L580.598 109.226L581.382 103.57H586.66V104.55H581.788L582.222 104.172L581.592 108.624L581.158 108.428C581.484 108.027 581.867 107.742 582.306 107.574C582.744 107.397 583.192 107.308 583.65 107.308C584.322 107.308 584.914 107.467 585.428 107.784C585.941 108.092 586.342 108.507 586.632 109.03C586.93 109.543 587.08 110.117 587.08 110.752C587.08 111.396 586.926 111.979 586.618 112.502C586.319 113.015 585.904 113.421 585.372 113.72C584.849 114.019 584.252 114.168 583.58 114.168ZM589.099 115.82V115.33C589.379 115.255 589.584 115.111 589.715 114.896C589.845 114.681 589.911 114.383 589.911 114H589.379V112.46H590.499V113.636C590.499 114.243 590.382 114.728 590.149 115.092C589.915 115.465 589.565 115.708 589.099 115.82ZM594.943 114V113.3L597.855 110.094C598.424 109.469 598.886 108.951 599.241 108.54C599.605 108.129 599.876 107.756 600.053 107.42C600.23 107.084 600.319 106.72 600.319 106.328C600.319 105.703 600.137 105.222 599.773 104.886C599.409 104.55 598.924 104.382 598.317 104.382C597.692 104.382 597.164 104.559 596.735 104.914C596.315 105.269 596.03 105.763 595.881 106.398L594.859 106.174C594.98 105.605 595.2 105.115 595.517 104.704C595.834 104.293 596.231 103.976 596.707 103.752C597.183 103.519 597.715 103.402 598.303 103.402C598.928 103.402 599.474 103.528 599.941 103.78C600.408 104.032 600.772 104.377 601.033 104.816C601.304 105.255 601.439 105.759 601.439 106.328C601.439 106.72 601.355 107.098 601.187 107.462C601.028 107.826 600.786 108.218 600.459 108.638C600.132 109.058 599.712 109.548 599.199 110.108L596.553 113.02H601.719V114H594.943ZM607.663 114.168C606.842 114.168 606.119 113.944 605.493 113.496C604.877 113.039 604.397 112.409 604.051 111.606C603.706 110.794 603.533 109.851 603.533 108.778C603.533 107.705 603.706 106.767 604.051 105.964C604.397 105.152 604.877 104.522 605.493 104.074C606.109 103.626 606.828 103.402 607.649 103.402C608.471 103.402 609.189 103.626 609.805 104.074C610.421 104.522 610.902 105.152 611.247 105.964C611.593 106.767 611.765 107.705 611.765 108.778C611.765 109.851 611.593 110.794 611.247 111.606C610.911 112.418 610.435 113.048 609.819 113.496C609.203 113.944 608.485 114.168 607.663 114.168ZM607.663 113.118C608.261 113.118 608.783 112.936 609.231 112.572C609.679 112.208 610.029 111.704 610.281 111.06C610.533 110.407 610.659 109.646 610.659 108.778C610.659 107.91 610.533 107.154 610.281 106.51C610.029 105.857 609.679 105.353 609.231 104.998C608.783 104.634 608.256 104.452 607.649 104.452C607.052 104.452 606.529 104.634 606.081 104.998C605.633 105.353 605.283 105.857 605.031 106.51C604.779 107.154 604.653 107.91 604.653 108.778C604.653 109.637 604.779 110.393 605.031 111.046C605.283 111.699 605.633 112.208 606.081 112.572C606.539 112.936 607.066 113.118 607.663 113.118ZM613.591 114V113.3L616.503 110.094C617.073 109.469 617.535 108.951 617.889 108.54C618.253 108.129 618.524 107.756 618.701 107.42C618.879 107.084 618.967 106.72 618.967 106.328C618.967 105.703 618.785 105.222 618.421 104.886C618.057 104.55 617.572 104.382 616.965 104.382C616.34 104.382 615.813 104.559 615.383 104.914C614.963 105.269 614.679 105.763 614.529 106.398L613.507 106.174C613.629 105.605 613.848 105.115 614.165 104.704C614.483 104.293 614.879 103.976 615.355 103.752C615.831 103.519 616.363 103.402 616.951 103.402C617.577 103.402 618.123 103.528 618.589 103.78C619.056 104.032 619.42 104.377 619.681 104.816C619.952 105.255 620.087 105.759 620.087 106.328C620.087 106.72 620.003 107.098 619.835 107.462C619.677 107.826 619.434 108.218 619.107 108.638C618.781 109.058 618.361 109.548 617.847 110.108L615.201 113.02H620.367V114H613.591ZM625.402 114.168C624.86 114.168 624.356 114.075 623.89 113.888C623.432 113.701 623.031 113.435 622.686 113.09C622.34 112.745 622.079 112.334 621.902 111.858L622.756 111.438C622.97 111.979 623.32 112.409 623.806 112.726C624.3 113.034 624.832 113.188 625.402 113.188C625.859 113.188 626.265 113.081 626.62 112.866C626.984 112.651 627.268 112.362 627.474 111.998C627.679 111.625 627.782 111.209 627.782 110.752C627.782 110.276 627.674 109.856 627.46 109.492C627.254 109.128 626.974 108.843 626.62 108.638C626.265 108.423 625.864 108.316 625.416 108.316C624.958 108.316 624.534 108.423 624.142 108.638C623.759 108.843 623.479 109.095 623.302 109.394L622.42 109.226L623.204 103.57H628.482V104.55H623.61L624.044 104.172L623.414 108.624L622.98 108.428C623.306 108.027 623.689 107.742 624.128 107.574C624.566 107.397 625.014 107.308 625.472 107.308C626.144 107.308 626.736 107.467 627.25 107.784C627.763 108.092 628.164 108.507 628.454 109.03C628.752 109.543 628.902 110.117 628.902 110.752C628.902 111.396 628.748 111.979 628.44 112.502C628.141 113.015 627.726 113.421 627.194 113.72C626.671 114.019 626.074 114.168 625.402 114.168Z" fill="white"/>
<path d="M544.492 138V128.76H542.518V127.57H545.878V138H544.492ZM551.756 138.168C551.056 138.168 550.435 138.028 549.894 137.748C549.362 137.468 548.942 137.09 548.634 136.614C548.335 136.129 548.186 135.587 548.186 134.99C548.186 134.318 548.372 133.73 548.746 133.226C549.119 132.722 549.632 132.363 550.286 132.148L550.258 132.498C549.763 132.302 549.376 131.989 549.096 131.56C548.825 131.121 548.69 130.65 548.69 130.146C548.69 129.614 548.82 129.143 549.082 128.732C549.352 128.321 549.716 127.999 550.174 127.766C550.64 127.523 551.168 127.402 551.756 127.402C552.344 127.402 552.866 127.519 553.324 127.752C553.781 127.985 554.14 128.312 554.402 128.732C554.672 129.143 554.808 129.614 554.808 130.146C554.808 130.678 554.663 131.154 554.374 131.574C554.094 131.994 553.72 132.307 553.254 132.512L553.212 132.148C553.874 132.363 554.392 132.727 554.766 133.24C555.139 133.744 555.326 134.327 555.326 134.99C555.326 135.587 555.172 136.129 554.864 136.614C554.565 137.09 554.145 137.468 553.604 137.748C553.072 138.028 552.456 138.168 551.756 138.168ZM551.756 136.978C552.194 136.978 552.577 136.894 552.904 136.726C553.23 136.558 553.482 136.325 553.66 136.026C553.846 135.718 553.94 135.368 553.94 134.976C553.94 134.575 553.846 134.225 553.66 133.926C553.482 133.618 553.23 133.385 552.904 133.226C552.577 133.058 552.194 132.974 551.756 132.974C551.317 132.974 550.93 133.058 550.594 133.226C550.267 133.385 550.015 133.618 549.838 133.926C549.66 134.225 549.572 134.575 549.572 134.976C549.572 135.368 549.66 135.718 549.838 136.026C550.015 136.325 550.267 136.558 550.594 136.726C550.93 136.894 551.317 136.978 551.756 136.978ZM551.756 131.784C552.073 131.784 552.353 131.714 552.596 131.574C552.848 131.434 553.048 131.247 553.198 131.014C553.347 130.771 553.422 130.491 553.422 130.174C553.422 129.857 553.347 129.581 553.198 129.348C553.048 129.115 552.848 128.933 552.596 128.802C552.353 128.662 552.073 128.592 551.756 128.592C551.429 128.592 551.14 128.662 550.888 128.802C550.636 128.933 550.435 129.115 550.286 129.348C550.136 129.581 550.062 129.857 550.062 130.174C550.062 130.491 550.136 130.771 550.286 131.014C550.435 131.247 550.636 131.434 550.888 131.574C551.14 131.714 551.429 131.784 551.756 131.784ZM559.27 138V136.67H559.844C560.339 136.67 560.731 136.525 561.02 136.236C561.31 135.937 561.454 135.536 561.454 135.032V127.57H562.84V135.004C562.84 135.611 562.714 136.138 562.462 136.586C562.22 137.034 561.874 137.384 561.426 137.636C560.978 137.879 560.451 138 559.844 138H559.27ZM566.953 138V128.83H564.125V127.57H571.125V128.83H568.339V138H566.953Z" fill="white"/>
<path d="M582.232 138V127.57H585.816C586.497 127.57 587.095 127.705 587.608 127.976C588.121 128.237 588.518 128.611 588.798 129.096C589.087 129.572 589.232 130.127 589.232 130.762C589.232 131.397 589.087 131.952 588.798 132.428C588.518 132.904 588.121 133.277 587.608 133.548C587.104 133.809 586.507 133.94 585.816 133.94H583.352V138H582.232ZM583.352 132.89H585.872C586.32 132.89 586.712 132.806 587.048 132.638C587.384 132.461 587.645 132.213 587.832 131.896C588.019 131.569 588.112 131.187 588.112 130.748C588.112 130.309 588.019 129.931 587.832 129.614C587.645 129.297 587.384 129.054 587.048 128.886C586.712 128.709 586.32 128.62 585.872 128.62H583.352V132.89ZM594.217 138.168C593.517 138.168 592.882 138 592.313 137.664C591.753 137.319 591.309 136.847 590.983 136.25C590.656 135.653 590.493 134.976 590.493 134.22C590.493 133.464 590.651 132.797 590.969 132.218C591.286 131.63 591.715 131.168 592.257 130.832C592.807 130.496 593.423 130.328 594.105 130.328C594.646 130.328 595.127 130.431 595.547 130.636C595.976 130.832 596.34 131.103 596.639 131.448C596.937 131.784 597.166 132.167 597.325 132.596C597.483 133.016 597.563 133.45 597.563 133.898C597.563 133.991 597.558 134.099 597.549 134.22C597.539 134.332 597.525 134.449 597.507 134.57H591.165V133.59H596.905L596.401 134.01C596.485 133.497 596.424 133.039 596.219 132.638C596.023 132.227 595.738 131.905 595.365 131.672C594.991 131.429 594.571 131.308 594.105 131.308C593.638 131.308 593.204 131.429 592.803 131.672C592.411 131.915 592.103 132.255 591.879 132.694C591.655 133.123 591.566 133.637 591.613 134.234C591.566 134.831 591.659 135.354 591.893 135.802C592.135 136.241 592.462 136.581 592.873 136.824C593.293 137.067 593.741 137.188 594.217 137.188C594.767 137.188 595.229 137.057 595.603 136.796C595.976 136.535 596.279 136.208 596.513 135.816L597.409 136.292C597.259 136.628 597.031 136.941 596.723 137.23C596.415 137.51 596.046 137.739 595.617 137.916C595.197 138.084 594.73 138.168 594.217 138.168ZM599.414 138V130.496H600.464V131.924L600.296 131.714C600.501 131.275 600.805 130.935 601.206 130.692C601.617 130.449 602.065 130.328 602.55 130.328C603.129 130.328 603.651 130.491 604.118 130.818C604.585 131.145 604.916 131.569 605.112 132.092L604.818 132.106C605.005 131.527 605.327 131.089 605.784 130.79C606.251 130.482 606.764 130.328 607.324 130.328C607.828 130.328 608.29 130.449 608.71 130.692C609.139 130.935 609.48 131.271 609.732 131.7C609.993 132.12 610.124 132.596 610.124 133.128V138H609.074V133.534C609.074 133.077 608.99 132.689 608.822 132.372C608.663 132.055 608.444 131.812 608.164 131.644C607.884 131.467 607.562 131.378 607.198 131.378C606.843 131.378 606.521 131.467 606.232 131.644C605.943 131.812 605.714 132.059 605.546 132.386C605.378 132.703 605.294 133.086 605.294 133.534V138H604.244V133.534C604.244 133.077 604.16 132.689 603.992 132.372C603.833 132.055 603.614 131.812 603.334 131.644C603.054 131.467 602.732 131.378 602.368 131.378C602.004 131.378 601.677 131.467 601.388 131.644C601.108 131.812 600.884 132.059 600.716 132.386C600.548 132.703 600.464 133.086 600.464 133.534V138H599.414ZM615.923 138.168C615.279 138.168 614.695 138.023 614.173 137.734C613.659 137.435 613.272 137.015 613.011 136.474L613.179 136.32V138H612.129V127.402H613.179V132.176L613.011 131.882C613.309 131.406 613.706 131.028 614.201 130.748C614.705 130.468 615.279 130.328 615.923 130.328C616.632 130.328 617.262 130.501 617.813 130.846C618.373 131.182 618.811 131.644 619.129 132.232C619.455 132.82 619.619 133.492 619.619 134.248C619.619 134.995 619.455 135.667 619.129 136.264C618.811 136.852 618.373 137.319 617.813 137.664C617.262 138 616.632 138.168 615.923 138.168ZM615.867 137.118C616.371 137.118 616.819 136.992 617.211 136.74C617.612 136.488 617.925 136.147 618.149 135.718C618.382 135.279 618.499 134.789 618.499 134.248C618.499 133.697 618.382 133.207 618.149 132.778C617.925 132.349 617.612 132.008 617.211 131.756C616.819 131.504 616.371 131.378 615.867 131.378C615.363 131.378 614.905 131.504 614.495 131.756C614.093 132.008 613.771 132.353 613.529 132.792C613.295 133.221 613.179 133.707 613.179 134.248C613.179 134.789 613.295 135.279 613.529 135.718C613.771 136.147 614.093 136.488 614.495 136.74C614.905 136.992 615.363 137.118 615.867 137.118ZM623.637 138.168C623.161 138.168 622.736 138.079 622.363 137.902C621.989 137.715 621.695 137.463 621.481 137.146C621.266 136.829 621.159 136.465 621.159 136.054C621.159 135.662 621.243 135.307 621.411 134.99C621.579 134.663 621.84 134.388 622.195 134.164C622.549 133.94 623.002 133.781 623.553 133.688L626.493 133.198V134.15L623.805 134.598C623.263 134.691 622.871 134.864 622.629 135.116C622.395 135.368 622.279 135.667 622.279 136.012C622.279 136.348 622.409 136.633 622.671 136.866C622.941 137.099 623.287 137.216 623.707 137.216C624.22 137.216 624.668 137.109 625.051 136.894C625.433 136.67 625.732 136.371 625.947 135.998C626.161 135.625 626.269 135.209 626.269 134.752V132.848C626.269 132.4 626.105 132.036 625.779 131.756C625.452 131.476 625.027 131.336 624.505 131.336C624.047 131.336 623.646 131.453 623.301 131.686C622.955 131.91 622.699 132.204 622.531 132.568L621.579 132.05C621.719 131.733 621.938 131.443 622.237 131.182C622.545 130.921 622.895 130.715 623.287 130.566C623.679 130.407 624.085 130.328 624.505 130.328C625.055 130.328 625.541 130.435 625.961 130.65C626.39 130.865 626.721 131.163 626.955 131.546C627.197 131.919 627.319 132.353 627.319 132.848V138H626.269V136.502L626.423 136.656C626.292 136.936 626.087 137.193 625.807 137.426C625.536 137.65 625.214 137.832 624.841 137.972C624.477 138.103 624.075 138.168 623.637 138.168ZM629.632 141.08C629.483 141.08 629.329 141.066 629.17 141.038C629.021 141.019 628.872 140.982 628.722 140.926V139.946C628.816 139.955 628.932 139.969 629.072 139.988C629.222 140.016 629.371 140.03 629.52 140.03C629.978 140.03 630.328 139.932 630.57 139.736C630.813 139.549 631.051 139.185 631.284 138.644L631.76 137.524L631.732 138.448L628.554 130.496H629.688L632.292 137.062H631.998L634.588 130.496H635.75L632.32 138.952C632.171 139.316 631.98 139.661 631.746 139.988C631.522 140.315 631.238 140.576 630.892 140.772C630.547 140.977 630.127 141.08 629.632 141.08ZM638.881 138.168C638.405 138.168 637.98 138.079 637.607 137.902C637.233 137.715 636.939 137.463 636.725 137.146C636.51 136.829 636.403 136.465 636.403 136.054C636.403 135.662 636.487 135.307 636.655 134.99C636.823 134.663 637.084 134.388 637.439 134.164C637.793 133.94 638.246 133.781 638.797 133.688L641.737 133.198V134.15L639.049 134.598C638.507 134.691 638.115 134.864 637.873 135.116C637.639 135.368 637.523 135.667 637.523 136.012C637.523 136.348 637.653 136.633 637.915 136.866C638.185 137.099 638.531 137.216 638.951 137.216C639.464 137.216 639.912 137.109 640.295 136.894C640.677 136.67 640.976 136.371 641.191 135.998C641.405 135.625 641.513 135.209 641.513 134.752V132.848C641.513 132.4 641.349 132.036 641.023 131.756C640.696 131.476 640.271 131.336 639.749 131.336C639.291 131.336 638.89 131.453 638.545 131.686C638.199 131.91 637.943 132.204 637.775 132.568L636.823 132.05C636.963 131.733 637.182 131.443 637.481 131.182C637.789 130.921 638.139 130.715 638.531 130.566C638.923 130.407 639.329 130.328 639.749 130.328C640.299 130.328 640.785 130.435 641.205 130.65C641.634 130.865 641.965 131.163 642.199 131.546C642.441 131.919 642.563 132.353 642.563 132.848V138H641.513V136.502L641.667 136.656C641.536 136.936 641.331 137.193 641.051 137.426C640.78 137.65 640.458 137.832 640.085 137.972C639.721 138.103 639.319 138.168 638.881 138.168ZM644.723 138V130.496H645.773V131.728L645.633 131.546C645.81 131.191 646.076 130.911 646.431 130.706C646.795 130.501 647.233 130.398 647.747 130.398H648.223V131.448H647.565C647.023 131.448 646.589 131.616 646.263 131.952C645.936 132.288 645.773 132.764 645.773 133.38V138H644.723ZM651.623 138.168C651.147 138.168 650.722 138.079 650.349 137.902C649.976 137.715 649.682 137.463 649.467 137.146C649.252 136.829 649.145 136.465 649.145 136.054C649.145 135.662 649.229 135.307 649.397 134.99C649.565 134.663 649.826 134.388 650.181 134.164C650.536 133.94 650.988 133.781 651.539 133.688L654.479 133.198V134.15L651.791 134.598C651.25 134.691 650.858 134.864 650.615 135.116C650.382 135.368 650.265 135.667 650.265 136.012C650.265 136.348 650.396 136.633 650.657 136.866C650.928 137.099 651.273 137.216 651.693 137.216C652.206 137.216 652.654 137.109 653.037 136.894C653.42 136.67 653.718 136.371 653.933 135.998C654.148 135.625 654.255 135.209 654.255 134.752V132.848C654.255 132.4 654.092 132.036 653.765 131.756C653.438 131.476 653.014 131.336 652.491 131.336C652.034 131.336 651.632 131.453 651.287 131.686C650.942 131.91 650.685 132.204 650.517 132.568L649.565 132.05C649.705 131.733 649.924 131.443 650.223 131.182C650.531 130.921 650.881 130.715 651.273 130.566C651.665 130.407 652.071 130.328 652.491 130.328C653.042 130.328 653.527 130.435 653.947 130.65C654.376 130.865 654.708 131.163 654.941 131.546C655.184 131.919 655.305 132.353 655.305 132.848V138H654.255V136.502L654.409 136.656C654.278 136.936 654.073 137.193 653.793 137.426C653.522 137.65 653.2 137.832 652.827 137.972C652.463 138.103 652.062 138.168 651.623 138.168ZM657.465 138V130.496H658.515V131.952L658.277 131.896C658.463 131.411 658.767 131.028 659.187 130.748C659.616 130.468 660.111 130.328 660.671 130.328C661.203 130.328 661.679 130.449 662.099 130.692C662.528 130.935 662.864 131.271 663.107 131.7C663.359 132.12 663.485 132.596 663.485 133.128V138H662.435V133.534C662.435 133.077 662.351 132.689 662.183 132.372C662.024 132.055 661.795 131.812 661.497 131.644C661.207 131.467 660.871 131.378 660.489 131.378C660.106 131.378 659.765 131.467 659.467 131.644C659.168 131.812 658.935 132.059 658.767 132.386C658.599 132.703 658.515 133.086 658.515 133.534V138H657.465ZM671.537 138.168C670.874 138.168 670.272 138.042 669.731 137.79C669.19 137.538 668.732 137.202 668.359 136.782C667.986 136.353 667.72 135.881 667.561 135.368L668.569 134.99C668.812 135.699 669.19 136.241 669.703 136.614C670.216 136.978 670.828 137.16 671.537 137.16C671.985 137.16 672.377 137.09 672.713 136.95C673.058 136.801 673.324 136.595 673.511 136.334C673.698 136.073 673.791 135.769 673.791 135.424C673.791 134.911 673.651 134.514 673.371 134.234C673.091 133.954 672.69 133.739 672.167 133.59L670.291 133.03C669.554 132.815 668.984 132.456 668.583 131.952C668.191 131.448 667.995 130.874 667.995 130.23C667.995 129.679 668.13 129.194 668.401 128.774C668.672 128.345 669.04 128.009 669.507 127.766C669.983 127.523 670.52 127.402 671.117 127.402C671.742 127.402 672.302 127.519 672.797 127.752C673.301 127.976 673.726 128.275 674.071 128.648C674.416 129.021 674.664 129.437 674.813 129.894L673.833 130.286C673.609 129.67 673.259 129.203 672.783 128.886C672.316 128.569 671.766 128.41 671.131 128.41C670.73 128.41 670.375 128.48 670.067 128.62C669.768 128.76 669.535 128.961 669.367 129.222C669.199 129.483 669.115 129.791 669.115 130.146C669.115 130.575 669.25 130.963 669.521 131.308C669.792 131.644 670.207 131.896 670.767 132.064L672.419 132.554C673.24 132.797 673.861 133.147 674.281 133.604C674.701 134.061 674.911 134.635 674.911 135.326C674.911 135.886 674.766 136.381 674.477 136.81C674.197 137.23 673.8 137.561 673.287 137.804C672.783 138.047 672.2 138.168 671.537 138.168ZM680.336 138.168C679.636 138.168 679.001 138 678.432 137.664C677.872 137.319 677.428 136.847 677.102 136.25C676.775 135.653 676.612 134.976 676.612 134.22C676.612 133.464 676.77 132.797 677.088 132.218C677.405 131.63 677.834 131.168 678.376 130.832C678.926 130.496 679.542 130.328 680.224 130.328C680.765 130.328 681.246 130.431 681.666 130.636C682.095 130.832 682.459 131.103 682.758 131.448C683.056 131.784 683.285 132.167 683.444 132.596C683.602 133.016 683.682 133.45 683.682 133.898C683.682 133.991 683.677 134.099 683.668 134.22C683.658 134.332 683.644 134.449 683.626 134.57H677.284V133.59H683.024L682.52 134.01C682.604 133.497 682.543 133.039 682.338 132.638C682.142 132.227 681.857 131.905 681.484 131.672C681.11 131.429 680.69 131.308 680.224 131.308C679.757 131.308 679.323 131.429 678.922 131.672C678.53 131.915 678.222 132.255 677.998 132.694C677.774 133.123 677.685 133.637 677.732 134.234C677.685 134.831 677.778 135.354 678.012 135.802C678.254 136.241 678.581 136.581 678.992 136.824C679.412 137.067 679.86 137.188 680.336 137.188C680.886 137.188 681.348 137.057 681.722 136.796C682.095 136.535 682.398 136.208 682.632 135.816L683.528 136.292C683.378 136.628 683.15 136.941 682.842 137.23C682.534 137.51 682.165 137.739 681.736 137.916C681.316 138.084 680.849 138.168 680.336 138.168ZM687.185 138L684.609 130.496H685.799L687.927 137.062H687.507L689.509 130.496H690.559L692.561 137.062H692.141L694.283 130.496H695.459L692.883 138H691.833L689.887 131.574H690.181L688.235 138H687.185ZM698.586 138.168C698.11 138.168 697.685 138.079 697.312 137.902C696.939 137.715 696.645 137.463 696.43 137.146C696.215 136.829 696.108 136.465 696.108 136.054C696.108 135.662 696.192 135.307 696.36 134.99C696.528 134.663 696.789 134.388 697.144 134.164C697.499 133.94 697.951 133.781 698.502 133.688L701.442 133.198V134.15L698.754 134.598C698.213 134.691 697.821 134.864 697.578 135.116C697.345 135.368 697.228 135.667 697.228 136.012C697.228 136.348 697.359 136.633 697.62 136.866C697.891 137.099 698.236 137.216 698.656 137.216C699.169 137.216 699.617 137.109 700 136.894C700.383 136.67 700.681 136.371 700.896 135.998C701.111 135.625 701.218 135.209 701.218 134.752V132.848C701.218 132.4 701.055 132.036 700.728 131.756C700.401 131.476 699.977 131.336 699.454 131.336C698.997 131.336 698.595 131.453 698.25 131.686C697.905 131.91 697.648 132.204 697.48 132.568L696.528 132.05C696.668 131.733 696.887 131.443 697.186 131.182C697.494 130.921 697.844 130.715 698.236 130.566C698.628 130.407 699.034 130.328 699.454 130.328C700.005 130.328 700.49 130.435 700.91 130.65C701.339 130.865 701.671 131.163 701.904 131.546C702.147 131.919 702.268 132.353 702.268 132.848V138H701.218V136.502L701.372 136.656C701.241 136.936 701.036 137.193 700.756 137.426C700.485 137.65 700.163 137.832 699.79 137.972C699.426 138.103 699.025 138.168 698.586 138.168Z" fill="white"/>
<path d="M526.247 109.622C525.141 108.823 525.141 107.177 526.247 106.378L532.83 101.628C534.152 100.673 536 101.618 536 103.25L536 112.75C536 114.382 534.152 115.327 532.83 114.372L526.247 109.622Z" fill="#100A55"/>
<defs>
<filter id="filter0_d_2684_138" x="493.5" y="91" width="34" height="34" filterUnits="userSpaceOnUse" color-interpolation-filters="sRGB">
<feFlood flood-opacity="0" result="BackgroundImageFix"/>
<feColorMatrix in="SourceAlpha" type="matrix" values="0 0 0 0 0 0 0 0 0 0 0 0 0 0 0 0 0 0 127 0" result="hardAlpha"/>
<feOffset/>
<feGaussianBlur stdDeviation="5"/>
<feComposite in2="hardAlpha" operator="out"/>
<feColorMatrix type="matrix" values="0 0 0 0 0.054902 0 0 0 0 0.0313726 0 0 0 0 0.329412 0 0 0 0.25 0"/>
<feBlend mode="normal" in2="BackgroundImageFix" result="effect1_dropShadow_2684_138"/>
<feBlend mode="normal" in="SourceGraphic" in2="effect1_dropShadow_2684_138" result="shape"/>
</filter>
<linearGradient id="paint0_linear_2684_138" x1="638" y1="2" x2="638" y2="192" gradientUnits="userSpaceOnUse">
<stop stop-color="#F0EFFB"/>
<stop offset="1" stop-color="white"/>
</linearGradient>
</defs>
</svg>
