<svg width="40" height="40" viewBox="0 0 40 40" fill="none" xmlns="http://www.w3.org/2000/svg">
<circle cx="20" cy="20" r="20" fill="#FFB154"/>
<mask id="mask0_29323_19783" style="mask-type:alpha" maskUnits="userSpaceOnUse" x="0" y="0" width="40" height="40">
<circle cx="20" cy="20" r="20" fill="#FFB154"/>
</mask>
<g mask="url(#mask0_29323_19783)">
<rect opacity="0.3" width="20" height="40" fill="white"/>
</g>
<path d="M24.166 27.0832H15.8327C13.3327 27.0832 11.666 25.8332 11.666 22.9165V17.0832C11.666 14.1665 13.3327 12.9165 15.8327 12.9165H24.166C26.666 12.9165 28.3327 14.1665 28.3327 17.0832V22.9165C28.3327 25.8332 26.666 27.0832 24.166 27.0832Z" stroke="white" stroke-width="2" stroke-miterlimit="10" stroke-linecap="round" stroke-linejoin="round"/>
<path d="M20 22.5C21.3807 22.5 22.5 21.3807 22.5 20C22.5 18.6193 21.3807 17.5 20 17.5C18.6193 17.5 17.5 18.6193 17.5 20C17.5 21.3807 18.6193 22.5 20 22.5Z" stroke="white" stroke-width="2" stroke-miterlimit="10" stroke-linecap="round" stroke-linejoin="round"/>
<path d="M14.584 17.9165V22.0832" stroke="white" stroke-width="2" stroke-miterlimit="10" stroke-linecap="round" stroke-linejoin="round"/>
<path d="M25.416 17.9165V22.0832" stroke="white" stroke-width="2" stroke-miterlimit="10" stroke-linecap="round" stroke-linejoin="round"/>
</svg>
